<svg width="87" height="48" viewBox="0 0 87 48" fill="none" xmlns="http://www.w3.org/2000/svg">
<path d="M26.2191 -1.44782C27.3287 -1.04417 28.4143 -0.417558 28.6123 0.0867752C28.9737 1.00738 28.6648 2.27224 27.9255 2.89906C27.1862 3.52587 26.2865 3.28573 25.9251 2.36512C25.7271 1.86079 25.9046 0.173871 26.2191 -1.44782ZM25.71 -2.74468C25.71 -2.74468 24.6584 1.5612 25.2115 2.97014C25.7678 4.38707 27.1365 4.7524 28.2743 3.78764C29.4122 2.82289 29.8821 0.898695 29.3259 -0.518241C28.7664 -1.92172 25.71 -2.74468 25.71 -2.74468Z" fill="white"/>
<path d="M3.87098 16.6966C4.98053 17.1002 6.06621 17.7268 6.26419 18.2312C6.62559 19.1518 6.31668 20.4166 5.57738 21.0435C4.83807 21.6703 3.93837 21.4301 3.57698 20.5095C3.379 20.0052 3.55649 18.3183 3.87098 16.6966ZM3.36188 15.3997C3.36188 15.3997 2.3103 19.7056 2.86339 21.1145C3.41962 22.5315 4.78831 22.8968 5.9262 21.9321C7.06409 20.9673 7.53401 19.0431 6.97778 17.6262C6.4247 16.2172 3.36188 15.3997 3.36188 15.3997Z" fill="white"/>
<path d="M43.5352 4.79332C44.2745 4.1665 45.1742 4.40664 45.5356 5.32725C45.7336 5.83158 45.5592 7.52651 45.2416 9.14019C44.132 8.73654 43.0463 8.10994 42.8484 7.6056C42.487 6.685 42.7959 5.42014 43.5352 4.79332ZM43.1863 3.90473C42.0485 4.86949 41.5785 6.79369 42.1348 8.21062C42.691 9.62756 45.7507 10.4371 45.7507 10.4371C45.7507 10.4371 46.8023 6.13116 46.2492 4.72223C45.6929 3.30529 44.3242 2.93998 43.1863 3.90473Z" fill="white"/>
<path d="M21.187 22.9379C21.9263 22.311 22.826 22.5512 23.1874 23.4718C23.3854 23.9761 23.2111 25.671 22.8934 27.2847C21.7839 26.8811 20.6982 26.2545 20.5002 25.7501C20.1388 24.8295 20.4477 23.5647 21.187 22.9379ZM20.8382 22.0493C19.7003 23.014 19.2304 24.9382 19.7866 26.3552C20.3429 27.7721 23.4025 28.5816 23.4025 28.5816C23.4025 28.5816 24.4541 24.2757 23.901 22.8668C23.3448 21.4498 21.9761 21.0845 20.8382 22.0493Z" fill="white"/>
<path d="M-0.932605 40.8968C-0.1933 40.27 0.706405 40.5102 1.0678 41.4308C1.26578 41.9351 1.09143 43.63 0.773798 45.2437C-0.335753 44.8401 -1.42144 44.2135 -1.61942 43.7091C-1.98081 42.7885 -1.67834 41.5291 -0.932605 40.8968ZM-1.28143 40.0083C-2.41932 40.973 -2.88924 42.8972 -2.33301 44.3141C-1.77678 45.7311 1.28289 46.5406 1.28289 46.5406C1.28289 46.5406 2.33448 42.2347 1.78139 40.8258C1.21873 39.4143 -0.14997 39.0489 -1.28143 40.0083Z" fill="white"/>
<path d="M61.1608 11.804C62.2703 12.2077 63.356 12.8343 63.554 13.3386C63.9154 14.2592 63.6065 15.5241 62.8672 16.1509C62.1279 16.7777 61.2282 16.5376 60.8668 15.6169C60.6688 15.1126 60.8399 13.4311 61.1608 11.804ZM60.6517 10.5072C60.6517 10.5072 59.6001 14.813 60.1532 16.222C60.7094 17.6389 62.0781 18.0042 63.216 17.0395C64.3539 16.0747 64.8238 14.1505 64.2676 12.7336C63.7081 11.3301 60.6517 10.5072 60.6517 10.5072Z" fill="white"/>
<path d="M39.035 29.7679C40.1446 30.1715 41.2303 30.7981 41.4282 31.3025C41.7896 32.2231 41.4807 33.4879 40.7414 34.1147C40.0021 34.7416 39.1024 34.5014 38.741 33.5808C38.5431 33.0765 38.7205 31.3896 39.035 29.7679ZM38.5259 28.471C38.5259 28.471 37.4744 32.7769 38.0274 34.1858C38.5837 35.6028 39.9524 35.9681 41.0903 35.0033C42.2281 34.0386 42.6981 32.1144 42.1418 30.6975C41.5823 29.294 38.5259 28.471 38.5259 28.471Z" fill="white"/>
<path d="M16.6869 47.9124C17.7964 48.3161 18.8821 48.9427 19.0801 49.447C19.4415 50.3676 19.1326 51.6325 18.3933 52.2593C17.654 52.8861 16.7543 52.6459 16.3929 51.7253C16.1949 51.221 16.3724 49.5341 16.6869 47.9124ZM16.1778 46.6156C16.1778 46.6156 15.1262 50.9214 15.6793 52.3304C16.2355 53.7473 17.6042 54.1126 18.7421 53.1479C19.88 52.1831 20.3499 50.2589 19.7937 48.842C19.2406 47.433 16.1778 46.6156 16.1778 46.6156Z" fill="white"/>
<path d="M56.3513 36.0091C57.0906 35.3823 57.9903 35.6225 58.3517 36.5431C58.5497 37.0474 58.3754 38.7423 58.0577 40.356C56.945 39.9444 55.8625 39.3258 55.6645 38.8214C55.3 37.8928 55.612 36.636 56.3513 36.0091ZM56.0025 35.1206C54.8646 36.0853 54.3947 38.0095 54.9509 39.4264C55.5072 40.8434 58.5668 41.6529 58.5668 41.6529C58.5668 41.6529 59.6184 37.347 59.0653 35.938C58.5091 34.5211 57.1404 34.1558 56.0025 35.1206Z" fill="white"/>
<path d="M73.9767 43.0198C75.0862 43.4235 76.1719 44.0501 76.3699 44.5544C76.7313 45.475 76.4224 46.7399 75.6831 47.3667C74.9438 47.9935 74.0441 47.7534 73.6827 46.8328C73.4847 46.3284 73.6558 44.647 73.9767 43.0198ZM73.4676 41.723C73.4676 41.723 72.416 46.0289 72.9691 47.4378C73.5253 48.8547 74.894 49.22 76.0319 48.2553C77.1698 47.2905 77.6397 45.3663 77.0835 43.9494C76.524 42.5459 73.4676 41.723 73.4676 41.723Z" fill="white"/>
</svg>
