<svg width="106" height="48" viewBox="0 0 106 48" fill="none" xmlns="http://www.w3.org/2000/svg">
<path d="M32.7094 -1.51944C34.0922 -1.03791 35.4546 -0.332722 35.7187 0.189951C36.2008 1.14404 35.8711 2.40137 34.9856 2.9855C34.1002 3.56964 32.9824 3.26724 32.5003 2.31315C32.2362 1.79048 32.3871 0.0980205 32.7094 -1.51944ZM32.0303 -2.86346C32.0303 -2.86346 30.9078 1.41681 31.6456 2.87697C32.3876 4.34543 34.0881 4.80546 35.4509 3.9064C36.8137 3.00734 37.3153 1.09459 36.5733 -0.373867C35.8279 -1.82895 32.0303 -2.86346 32.0303 -2.86346Z" fill="white"/>
<path d="M4.77383 16.625C6.15667 17.1065 7.51907 17.8117 7.78316 18.3344C8.26524 19.2884 7.93552 20.5458 7.05007 21.1299C6.16462 21.714 5.04681 21.4116 4.56473 20.4576C4.30064 19.9349 4.45155 18.2424 4.77383 16.625ZM4.09472 15.281C4.09472 15.281 2.97229 19.5612 3.71008 21.0214C4.45206 22.4898 6.15255 22.9499 7.51538 22.0508C8.87821 21.1517 9.3798 19.239 8.63782 17.7705C7.90003 16.3104 4.09472 15.281 4.09472 15.281Z" fill="white"/>
<path d="M54.3403 4.70685C55.2258 4.12272 56.3436 4.4251 56.8257 5.37919C57.0898 5.90186 56.943 7.60263 56.6166 9.21179C55.2337 8.73027 53.8713 8.02508 53.6072 7.50241C53.1251 6.54832 53.4549 5.29099 54.3403 4.70685ZM53.875 3.78595C52.5122 4.68502 52.0106 6.59776 52.7526 8.06623C53.4945 9.53469 57.2957 10.5558 57.2957 10.5558C57.2957 10.5558 58.4181 6.27553 57.6803 4.81537C56.9383 3.34691 55.2378 2.88689 53.875 3.78595Z" fill="white"/>
<path d="M26.4057 22.8514C27.2912 22.2672 28.409 22.5696 28.8911 23.5237C29.1552 24.0464 29.0084 25.7472 28.682 27.3563C27.2991 26.8748 25.9367 26.1696 25.6726 25.6469C25.1906 24.6929 25.5203 23.4355 26.4057 22.8514ZM25.9404 21.9305C24.5776 22.8295 24.076 24.7423 24.818 26.2108C25.56 27.6792 29.3611 28.7003 29.3611 28.7003C29.3611 28.7003 30.4835 24.4201 29.7457 22.9599C29.0038 21.4915 27.3033 21.0314 25.9404 21.9305Z" fill="white"/>
<path d="M-1.24368 40.8104C-0.358224 40.2262 0.759589 40.5286 1.24167 41.4827C1.50576 42.0054 1.35903 43.7061 1.03257 45.3153C-0.350276 44.8338 -1.71267 44.1286 -1.97676 43.6059C-2.45884 42.6518 -2.13683 41.3996 -1.24368 40.8104ZM-1.70899 39.8895C-3.07181 40.7885 -3.5734 42.7013 -2.83142 44.1697C-2.08944 45.6382 1.71167 46.6593 1.71167 46.6593C1.71167 46.6593 2.83411 42.3791 2.09632 40.9189C1.34664 39.4555 -0.353859 38.9955 -1.70899 39.8895Z" fill="white"/>
<path d="M76.3861 11.7324C77.769 12.2139 79.1314 12.9191 79.3955 13.4418C79.8775 14.3959 79.5478 15.6532 78.6624 16.2373C77.7769 16.8215 76.6591 16.5191 76.177 15.565C75.9129 15.0423 76.0562 13.3549 76.3861 11.7324ZM75.707 10.3884C75.707 10.3884 74.5846 14.6686 75.3224 16.1288C76.0644 17.5973 77.7649 18.0573 79.1277 17.1582C80.4905 16.2592 80.9921 14.3464 80.2501 12.8779C79.5046 11.4229 75.707 10.3884 75.707 10.3884Z" fill="white"/>
<path d="M48.7289 29.6963C50.1117 30.1778 51.4741 30.883 51.7382 31.4056C52.2203 32.3597 51.8906 33.6171 51.0051 34.2012C50.1197 34.7853 49.0019 34.4829 48.5198 33.5288C48.2557 33.0062 48.4066 31.3137 48.7289 29.6963ZM48.0498 28.3522C48.0498 28.3522 46.9274 32.6325 47.6652 34.0927C48.4071 35.5611 50.1076 36.0211 51.4704 35.1221C52.8333 34.223 53.3349 32.3103 52.5929 30.8418C51.8474 29.3867 48.0498 28.3522 48.0498 28.3522Z" fill="white"/>
<path d="M20.7934 47.8407C22.1762 48.3222 23.5386 49.0274 23.8027 49.55C24.2848 50.5041 23.955 51.7615 23.0696 52.3456C22.1841 52.9297 21.0663 52.6273 20.5843 51.6733C20.3202 51.1506 20.4711 49.4581 20.7934 47.8407ZM20.1143 46.4966C20.1143 46.4966 18.9918 50.7769 19.7296 52.2371C20.4716 53.7055 22.1721 54.1656 23.5349 53.2665C24.8977 52.3674 25.3993 50.4547 24.6573 48.9862C23.9196 47.5261 20.1143 46.4966 20.1143 46.4966Z" fill="white"/>
<path d="M70.3608 35.9227C71.2463 35.3385 72.3641 35.6409 72.8462 36.595C73.1103 37.1177 72.9635 38.8185 72.6371 40.4276C71.25 39.9378 69.8918 39.2409 69.6277 38.7182C69.1415 37.7558 69.4754 36.5068 70.3608 35.9227ZM69.8955 35.0018C68.5327 35.9008 68.0311 37.8136 68.7731 39.282C69.5151 40.7505 73.3162 41.7716 73.3162 41.7716C73.3162 41.7716 74.4386 37.4913 73.7008 36.0312C72.9588 34.5627 71.2583 34.1027 69.8955 35.0018Z" fill="white"/>
<path d="M92.4057 42.9482C93.7885 43.4297 95.1509 44.1349 95.415 44.6576C95.8971 45.6117 95.5674 46.869 94.6819 47.4531C93.7965 48.0373 92.6786 47.7349 92.1966 46.7808C91.9325 46.2581 92.0757 44.5707 92.4057 42.9482ZM91.7266 41.6042C91.7266 41.6042 90.6041 45.8845 91.3419 47.3446C92.0839 48.8131 93.7844 49.2731 95.1472 48.374C96.51 47.475 97.0116 45.5622 96.2697 44.0938C95.5242 42.6387 91.7266 41.6042 91.7266 41.6042Z" fill="white"/>
</svg>
