<svg width="222" height="48" viewBox="0 0 222 48" fill="none" xmlns="http://www.w3.org/2000/svg">
<path d="M49.5727 -2.77018C50.9555 -2.28865 52.3179 -1.58346 52.582 -1.06078C53.0641 -0.106698 52.7344 1.15063 51.8489 1.73477C50.9635 2.3189 49.8457 2.01651 49.3636 1.06243C49.0995 0.539752 49.2462 -1.16101 49.5727 -2.77018ZM48.8936 -4.11419C48.8936 -4.11419 47.7711 0.166078 48.5089 1.62624C49.2509 3.09471 50.9514 3.55473 52.3142 2.65567C53.6771 1.7566 54.1787 -0.15614 53.4367 -1.6246C52.6947 -3.09307 48.8936 -4.11419 48.8936 -4.11419Z" fill="white"/>
<path d="M71.4858 3.2624C72.3713 2.67826 73.4891 2.98066 73.9712 3.93474C74.2353 4.45742 74.0885 6.15818 73.7621 7.76734C72.3792 7.28581 71.0168 6.58063 70.7527 6.05795C70.2707 5.10387 70.5927 3.85161 71.4858 3.2624ZM71.0205 2.34149C69.6577 3.24056 69.1561 5.15331 69.8981 6.62177C70.6401 8.09023 74.4412 9.11136 74.4412 9.11136C74.4412 9.11136 75.5636 4.83109 74.8258 3.37092C74.0761 1.90754 72.3756 1.44751 71.0205 2.34149Z" fill="white"/>
<path d="M43.5503 21.4068C44.4357 20.8227 45.5535 21.1251 46.0356 22.0792C46.2997 22.6018 46.153 24.3026 45.8265 25.9118C44.4437 25.4302 43.0813 24.725 42.8172 24.2024C42.3351 23.2483 42.6648 21.9909 43.5503 21.4068ZM43.085 20.4859C41.7221 21.385 41.2205 23.2977 41.9625 24.7662C42.7045 26.2346 46.5056 27.2558 46.5056 27.2558C46.5056 27.2558 47.628 22.9755 46.8902 21.5153C46.1483 20.0469 44.4478 19.5868 43.085 20.4859Z" fill="white"/>
<path d="M93.2455 10.4734C94.6284 10.9549 95.9907 11.6601 96.2548 12.1827C96.7369 13.1368 96.4072 14.3942 95.5218 14.9783C94.6363 15.5624 93.5185 15.26 93.0364 14.306C92.7723 13.7833 92.9232 12.0908 93.2455 10.4734ZM92.5664 9.12934C92.5664 9.12934 91.444 13.4096 92.1818 14.8698C92.9237 16.3382 94.6242 16.7983 95.9871 15.8992C97.3499 15.0001 97.8515 13.0874 97.1095 11.6189C96.3717 10.1588 92.5664 9.12934 92.5664 9.12934Z" fill="white"/>
<path d="M65.5883 28.4372C66.9711 28.9187 68.3335 29.6239 68.5976 30.1466C69.0797 31.1007 68.75 32.358 67.8645 32.9422C66.9791 33.5263 65.8613 33.2239 65.3792 32.2698C65.1151 31.7471 65.266 30.0547 65.5883 28.4372ZM64.9092 27.0932C64.9092 27.0932 63.7867 31.3735 64.5245 32.8336C65.2665 34.3021 66.967 34.7621 68.3298 33.8631C69.6927 32.964 70.1942 31.0513 69.4523 29.5828C68.7145 28.1226 64.9092 27.0932 64.9092 27.0932Z" fill="white"/>
<path d="M142.535 -1.26409C143.42 -1.84823 144.538 -1.54583 145.02 -0.591746C145.284 -0.0690731 145.137 1.63168 144.811 3.24085C143.428 2.75932 142.066 2.05414 141.802 1.53146C141.319 0.577379 141.649 -0.679956 142.535 -1.26409ZM142.069 -2.18499C140.707 -1.28593 140.205 0.626818 140.947 2.09528C141.689 3.56374 145.49 4.58487 145.49 4.58487C145.49 4.58487 146.612 0.3046 145.875 -1.15556C145.133 -2.62403 143.432 -3.08405 142.069 -2.18499Z" fill="white"/>
<path d="M114.885 16.6949C115.771 16.1108 116.888 16.4131 117.371 17.3672C117.635 17.8899 117.488 19.5907 117.161 21.1998C115.779 20.7183 114.416 20.0131 114.152 19.4904C113.67 18.5364 113.992 17.2841 114.885 16.6949ZM114.42 15.774C113.057 16.6731 112.556 18.5858 113.297 20.0543C114.039 21.5227 117.841 22.5439 117.841 22.5439C117.841 22.5439 118.963 18.2636 118.225 16.8034C117.476 15.34 115.775 14.88 114.42 15.774Z" fill="white"/>
<path d="M87.5053 34.4782C88.3908 33.8941 89.5086 34.1965 89.9907 35.1506C90.2548 35.6732 90.1081 37.374 89.7816 38.9832C88.3987 38.5016 87.0364 37.7964 86.7723 37.2738C86.2902 36.3197 86.6122 35.0674 87.5053 34.4782ZM87.04 33.5573C85.6772 34.4564 85.1756 36.3691 85.9176 37.8376C86.6596 39.3061 90.4607 40.3272 90.4607 40.3272C90.4607 40.3272 91.5831 36.0469 90.8453 34.5867C90.0957 33.1234 88.3952 32.6633 87.04 33.5573Z" fill="white"/>
<path d="M164.858 5.58077C166.241 6.0623 167.603 6.76749 167.867 7.29016C168.349 8.24425 168.019 9.50157 167.134 10.0857C166.249 10.6698 165.131 10.3675 164.649 9.41337C164.385 8.89069 164.536 7.19823 164.858 5.58077ZM164.179 4.23676C164.179 4.23676 163.056 8.51702 163.794 9.97719C164.536 11.4456 166.237 11.9057 167.599 11.0066C168.962 10.1075 169.464 8.19481 168.722 6.72635C167.976 5.27126 164.179 4.23676 164.179 4.23676Z" fill="white"/>
<path d="M136.922 23.7252C138.305 24.2067 139.668 24.9119 139.932 25.4346C140.414 26.3887 140.084 27.646 139.199 28.2301C138.313 28.8143 137.195 28.5119 136.713 27.5578C136.449 27.0351 136.6 25.3426 136.922 23.7252ZM136.243 22.3812C136.243 22.3812 135.121 26.6614 135.859 28.1216C136.6 29.5901 138.301 30.0501 139.664 29.151C141.027 28.252 141.528 26.3392 140.786 24.8707C140.048 23.4106 136.243 22.3812 136.243 22.3812Z" fill="white"/>
<path d="M109.265 41.6892C110.648 42.1707 112.01 42.8759 112.274 43.3986C112.756 44.3526 112.427 45.61 111.541 46.1941C110.656 46.7782 109.538 46.4759 109.056 45.5218C108.792 44.9991 108.943 43.3066 109.265 41.6892ZM108.586 40.3452C108.586 40.3452 107.464 44.6254 108.201 46.0856C108.943 47.554 110.644 48.0141 112.007 47.115C113.369 46.2159 113.871 44.3032 113.129 42.8347C112.391 41.3746 108.586 40.3452 108.586 40.3452Z" fill="white"/>
<path d="M186.49 11.8072C187.375 11.2231 188.493 11.5254 188.975 12.4795C189.239 13.0022 189.092 14.703 188.766 16.3121C187.379 15.8223 186.021 15.1254 185.757 14.6027C185.27 13.6404 185.604 12.3913 186.49 11.8072ZM186.024 10.8863C184.662 11.7854 184.16 13.6981 184.902 15.1666C185.644 16.635 189.445 17.6562 189.445 17.6562C189.445 17.6562 190.568 13.3759 189.83 11.9157C189.088 10.4472 187.387 9.98723 186.024 10.8863Z" fill="white"/>
<path d="M158.554 29.9516C159.44 29.3675 160.557 29.6699 161.04 30.6239C161.304 31.1466 161.157 32.8474 160.83 34.4566C159.443 33.9667 158.085 33.2698 157.821 32.7472C157.335 31.7848 157.669 30.5357 158.554 29.9516ZM158.089 29.0307C156.726 29.9298 156.224 31.8425 156.966 33.311C157.708 34.7794 161.51 35.8006 161.51 35.8006C161.51 35.8006 162.632 31.5203 161.894 30.0601C161.152 28.5917 159.452 28.1316 158.089 29.0307Z" fill="white"/>
<path d="M130.905 47.9107C131.79 47.3266 132.908 47.629 133.39 48.583C133.654 49.1057 133.507 50.8065 133.181 52.4157C131.794 51.9258 130.436 51.2289 130.172 50.7063C129.685 49.7439 130.012 48.4999 130.905 47.9107ZM130.439 46.9898C129.077 47.8889 128.575 49.8016 129.317 51.2701C130.059 52.7385 133.86 53.7597 133.86 53.7597C133.86 53.7597 134.983 49.4794 134.245 48.0192C133.495 46.5558 131.795 46.0958 130.439 46.9898Z" fill="white"/>
<path d="M208.535 18.8327C209.917 19.3142 211.28 20.0194 211.544 20.5421C212.026 21.4962 211.696 22.7535 210.811 23.3377C209.925 23.9218 208.808 23.6194 208.325 22.6653C208.061 22.1427 208.205 20.4553 208.535 18.8327ZM207.855 17.4887C207.855 17.4887 206.733 21.769 207.471 23.2291C208.213 24.6976 209.913 25.1576 211.276 24.2586C212.639 23.3595 213.141 21.4468 212.399 19.9783C211.653 18.5232 207.855 17.4887 207.855 17.4887Z" fill="white"/>
<path d="M180.877 36.7966C182.26 37.2781 183.623 37.9833 183.887 38.506C184.369 39.4601 184.039 40.7174 183.154 41.3015C182.268 41.8857 181.15 41.5833 180.668 40.6292C180.404 40.1065 180.555 38.4141 180.877 36.7966ZM180.198 35.4526C180.198 35.4526 179.076 39.7328 179.814 41.193C180.556 42.6615 182.256 43.1215 183.619 42.2224C184.982 41.3234 185.483 39.4106 184.741 37.9422C183.996 36.4871 180.198 35.4526 180.198 35.4526Z" fill="white"/>
</svg>
