<svg width="1024" height="232" viewBox="0 0 1024 232" fill="none" xmlns="http://www.w3.org/2000/svg">
<g opacity="0.1">
<path d="M1072.59 151.188L1003.9 169.593L1015.86 214.24L1084.55 195.835L1072.59 151.188Z" stroke="white" stroke-width="2" stroke-miterlimit="10" stroke-linecap="round" stroke-linejoin="round"/>
<path d="M1003.9 169.593L1045.61 187.866L1072.59 151.188L1003.9 169.593Z" stroke="white" stroke-width="2" stroke-miterlimit="10" stroke-linecap="round" stroke-linejoin="round"/>
<path d="M1050.67 180.989L1084.55 195.835L1015.87 214.24L1037.79 184.44" stroke="white" stroke-width="2" stroke-miterlimit="10" stroke-linecap="round" stroke-linejoin="round"/>
<path d="M935.213 187.998L866.525 206.403L878.489 251.05L947.177 232.645L935.213 187.998Z" stroke="white" stroke-width="2" stroke-miterlimit="10" stroke-linecap="round" stroke-linejoin="round"/>
<path d="M866.525 206.403L908.231 224.676L935.213 187.998L866.525 206.403Z" stroke="white" stroke-width="2" stroke-miterlimit="10" stroke-linecap="round" stroke-linejoin="round"/>
<path d="M913.291 217.799L947.177 232.646L878.489 251.05L900.412 221.25" stroke="white" stroke-width="2" stroke-miterlimit="10" stroke-linecap="round" stroke-linejoin="round"/>
<path d="M797.838 224.807L729.15 243.212L741.113 287.859L809.801 269.454L797.838 224.807Z" stroke="white" stroke-width="2" stroke-miterlimit="10" stroke-linecap="round" stroke-linejoin="round"/>
<path d="M729.15 243.212L770.856 261.485L797.838 224.807L729.15 243.212Z" stroke="white" stroke-width="2" stroke-miterlimit="10" stroke-linecap="round" stroke-linejoin="round"/>
<path d="M1044.98 48.1553L976.294 66.5603L988.257 111.208L1056.95 92.8025L1044.98 48.1553Z" stroke="white" stroke-width="2" stroke-miterlimit="10" stroke-linecap="round" stroke-linejoin="round"/>
<path d="M976.294 66.5603L1018 84.8331L1044.98 48.1554L976.294 66.5603Z" stroke="white" stroke-width="2" stroke-miterlimit="10" stroke-linecap="round" stroke-linejoin="round"/>
<path d="M1023.06 77.9561L1056.95 92.8028L988.257 111.208L1010.18 81.4071" stroke="white" stroke-width="2" stroke-miterlimit="10" stroke-linecap="round" stroke-linejoin="round"/>
<path d="M907.606 84.9657L838.918 103.371L850.881 148.018L919.569 129.613L907.606 84.9657Z" stroke="white" stroke-width="2" stroke-miterlimit="10" stroke-linecap="round" stroke-linejoin="round"/>
<path d="M838.918 103.371L880.624 121.643L907.606 84.9657L838.918 103.371Z" stroke="white" stroke-width="2" stroke-miterlimit="10" stroke-linecap="round" stroke-linejoin="round"/>
<path d="M885.683 114.766L919.569 129.613L850.881 148.018L872.804 118.217" stroke="white" stroke-width="2" stroke-miterlimit="10" stroke-linecap="round" stroke-linejoin="round"/>
<path d="M770.23 121.776L701.542 140.18L713.505 184.828L782.193 166.423L770.23 121.776Z" stroke="white" stroke-width="2" stroke-miterlimit="10" stroke-linecap="round" stroke-linejoin="round"/>
<path d="M701.542 140.18L743.248 158.453L770.23 121.776L701.542 140.18Z" stroke="white" stroke-width="2" stroke-miterlimit="10" stroke-linecap="round" stroke-linejoin="round"/>
<path d="M748.307 151.576L782.194 166.423L713.506 184.828L735.428 155.027" stroke="white" stroke-width="2" stroke-miterlimit="10" stroke-linecap="round" stroke-linejoin="round"/>
<path d="M632.854 158.585L564.166 176.99L576.129 221.637L644.818 203.232L632.854 158.585Z" stroke="white" stroke-width="2" stroke-miterlimit="10" stroke-linecap="round" stroke-linejoin="round"/>
<path d="M564.166 176.99L605.872 195.263L632.854 158.585L564.166 176.99Z" stroke="white" stroke-width="2" stroke-miterlimit="10" stroke-linecap="round" stroke-linejoin="round"/>
<path d="M610.932 188.386L644.818 203.232L576.13 221.637L598.053 191.837" stroke="white" stroke-width="2" stroke-miterlimit="10" stroke-linecap="round" stroke-linejoin="round"/>
<path d="M495.478 195.395L426.79 213.8L438.753 258.447L507.441 240.042L495.478 195.395Z" stroke="white" stroke-width="2" stroke-miterlimit="10" stroke-linecap="round" stroke-linejoin="round"/>
<path d="M426.79 213.8L468.496 232.073L495.478 195.395L426.79 213.8Z" stroke="white" stroke-width="2" stroke-miterlimit="10" stroke-linecap="round" stroke-linejoin="round"/>
<path d="M473.555 225.196L507.441 240.042L438.753 258.447L460.676 228.647" stroke="white" stroke-width="2" stroke-miterlimit="10" stroke-linecap="round" stroke-linejoin="round"/>
<path d="M358.102 232.205L289.414 250.61L301.377 295.257L370.065 276.852L358.102 232.205Z" stroke="white" stroke-width="2" stroke-miterlimit="10" stroke-linecap="round" stroke-linejoin="round"/>
<path d="M289.414 250.61L331.12 268.882L358.102 232.205L289.414 250.61Z" stroke="white" stroke-width="2" stroke-miterlimit="10" stroke-linecap="round" stroke-linejoin="round"/>
<path d="M1017.38 -54.8763L948.687 -36.4714L960.65 8.1758L1029.34 -10.2291L1017.38 -54.8763Z" stroke="white" stroke-width="2" stroke-miterlimit="10" stroke-linecap="round" stroke-linejoin="round"/>
<path d="M995.452 -25.0754L1029.34 -10.2287L960.65 8.17616L982.573 -21.6245" stroke="white" stroke-width="2" stroke-miterlimit="10" stroke-linecap="round" stroke-linejoin="round"/>
<path d="M879.999 -18.0665L811.311 0.338379L823.274 44.9856L891.963 26.5807L879.999 -18.0665Z" stroke="white" stroke-width="2" stroke-miterlimit="10" stroke-linecap="round" stroke-linejoin="round"/>
<path d="M811.311 0.338379L853.017 18.6111L879.999 -18.0666L811.311 0.338379Z" stroke="white" stroke-width="2" stroke-miterlimit="10" stroke-linecap="round" stroke-linejoin="round"/>
<path d="M858.077 11.7344L891.963 26.581L823.275 44.986L845.198 15.1853" stroke="white" stroke-width="2" stroke-miterlimit="10" stroke-linecap="round" stroke-linejoin="round"/>
<path d="M742.623 18.7435L673.935 37.1484L685.898 81.7957L754.586 63.3908L742.623 18.7435Z" stroke="white" stroke-width="2" stroke-miterlimit="10" stroke-linecap="round" stroke-linejoin="round"/>
<path d="M673.935 37.1484L715.641 55.4212L742.623 18.7435L673.935 37.1484Z" stroke="white" stroke-width="2" stroke-miterlimit="10" stroke-linecap="round" stroke-linejoin="round"/>
<path d="M720.7 48.5442L754.586 63.3908L685.898 81.7958L707.821 51.9952" stroke="white" stroke-width="2" stroke-miterlimit="10" stroke-linecap="round" stroke-linejoin="round"/>
<path d="M605.246 55.5531L536.558 73.958L548.521 118.605L617.209 100.2L605.246 55.5531Z" stroke="white" stroke-width="2" stroke-miterlimit="10" stroke-linecap="round" stroke-linejoin="round"/>
<path d="M536.558 73.958L578.264 92.2308L605.246 55.5531L536.558 73.958Z" stroke="white" stroke-width="2" stroke-miterlimit="10" stroke-linecap="round" stroke-linejoin="round"/>
<path d="M583.323 85.3538L617.209 100.2L548.521 118.605L570.444 88.8048" stroke="white" stroke-width="2" stroke-miterlimit="10" stroke-linecap="round" stroke-linejoin="round"/>
<path d="M577.639 -47.4789L508.951 -29.074L520.915 15.5733L589.603 -2.83164L577.639 -47.4789Z" stroke="white" stroke-width="2" stroke-miterlimit="10" stroke-linecap="round" stroke-linejoin="round"/>
<path d="M555.717 -17.678L589.603 -2.83135L520.915 15.5736L542.838 -14.227" stroke="white" stroke-width="2" stroke-miterlimit="10" stroke-linecap="round" stroke-linejoin="round"/>
<path d="M467.871 92.3627L399.183 110.768L411.146 155.415L479.834 137.01L467.871 92.3627Z" stroke="white" stroke-width="2" stroke-miterlimit="10" stroke-linecap="round" stroke-linejoin="round"/>
<path d="M399.183 110.768L440.889 129.04L467.871 92.3627L399.183 110.768Z" stroke="white" stroke-width="2" stroke-miterlimit="10" stroke-linecap="round" stroke-linejoin="round"/>
<path d="M445.948 122.163L479.834 137.01L411.146 155.415L433.069 125.614" stroke="white" stroke-width="2" stroke-miterlimit="10" stroke-linecap="round" stroke-linejoin="round"/>
<path d="M330.494 129.172L261.806 147.577L273.769 192.225L342.457 173.82L330.494 129.172Z" stroke="white" stroke-width="2" stroke-miterlimit="10" stroke-linecap="round" stroke-linejoin="round"/>
<path d="M261.806 147.577L303.512 165.85L330.494 129.172L261.806 147.577Z" stroke="white" stroke-width="2" stroke-miterlimit="10" stroke-linecap="round" stroke-linejoin="round"/>
<path d="M308.572 158.973L342.458 173.82L273.77 192.225L295.693 162.424" stroke="white" stroke-width="2" stroke-miterlimit="10" stroke-linecap="round" stroke-linejoin="round"/>
<path d="M193.118 165.983L124.43 184.387L136.394 229.035L205.082 210.63L193.118 165.983Z" stroke="white" stroke-width="2" stroke-miterlimit="10" stroke-linecap="round" stroke-linejoin="round"/>
<path d="M124.43 184.387L166.136 202.66L193.118 165.983L124.43 184.387Z" stroke="white" stroke-width="2" stroke-miterlimit="10" stroke-linecap="round" stroke-linejoin="round"/>
<path d="M171.196 195.783L205.082 210.63L136.394 229.035L158.317 199.234" stroke="white" stroke-width="2" stroke-miterlimit="10" stroke-linecap="round" stroke-linejoin="round"/>
<path d="M55.7425 202.793L-12.9456 221.198L-0.982359 265.845L67.7057 247.44L55.7425 202.793Z" stroke="white" stroke-width="2" stroke-miterlimit="10" stroke-linecap="round" stroke-linejoin="round"/>
<path d="M-12.9456 221.198L28.7604 239.47L55.7425 202.793L-12.9456 221.198Z" stroke="white" stroke-width="2" stroke-miterlimit="10" stroke-linecap="round" stroke-linejoin="round"/>
<path d="M33.8197 232.593L67.7058 247.44L-0.982269 265.845L20.9407 236.044" stroke="white" stroke-width="2" stroke-miterlimit="10" stroke-linecap="round" stroke-linejoin="round"/>
<path d="M440.264 -10.6696L371.576 7.73535L383.539 52.3826L452.227 33.9777L440.264 -10.6696Z" stroke="white" stroke-width="2" stroke-miterlimit="10" stroke-linecap="round" stroke-linejoin="round"/>
<path d="M371.576 7.73535L413.282 26.0081L440.264 -10.6695L371.576 7.73535Z" stroke="white" stroke-width="2" stroke-miterlimit="10" stroke-linecap="round" stroke-linejoin="round"/>
<path d="M418.341 19.1312L452.227 33.9778L383.539 52.3827L405.462 22.5821" stroke="white" stroke-width="2" stroke-miterlimit="10" stroke-linecap="round" stroke-linejoin="round"/>
<path d="M302.888 26.1405L234.199 44.5454L246.163 89.1926L314.851 70.7877L302.888 26.1405Z" stroke="white" stroke-width="2" stroke-miterlimit="10" stroke-linecap="round" stroke-linejoin="round"/>
<path d="M234.199 44.5454L275.905 62.8182L302.888 26.1404L234.199 44.5454Z" stroke="white" stroke-width="2" stroke-miterlimit="10" stroke-linecap="round" stroke-linejoin="round"/>
<path d="M280.965 55.9415L314.851 70.7881L246.163 89.193L268.086 59.3924" stroke="white" stroke-width="2" stroke-miterlimit="10" stroke-linecap="round" stroke-linejoin="round"/>
<path d="M165.511 62.9503L96.8228 81.3552L108.786 126.002L177.474 107.598L165.511 62.9503Z" stroke="white" stroke-width="2" stroke-miterlimit="10" stroke-linecap="round" stroke-linejoin="round"/>
<path d="M96.8228 81.3552L138.529 99.628L165.511 62.9503L96.8228 81.3552Z" stroke="white" stroke-width="2" stroke-miterlimit="10" stroke-linecap="round" stroke-linejoin="round"/>
<path d="M143.588 92.751L177.474 107.598L108.786 126.003L130.709 96.202" stroke="white" stroke-width="2" stroke-miterlimit="10" stroke-linecap="round" stroke-linejoin="round"/>
<path d="M28.1348 99.7601L-40.5532 118.165L-28.59 162.812L40.098 144.407L28.1348 99.7601Z" stroke="white" stroke-width="2" stroke-miterlimit="10" stroke-linecap="round" stroke-linejoin="round"/>
<path d="M-40.5532 118.165L1.15277 136.438L28.1348 99.7601L-40.5532 118.165Z" stroke="white" stroke-width="2" stroke-miterlimit="10" stroke-linecap="round" stroke-linejoin="round"/>
<path d="M6.21224 129.561L40.0984 144.407L-28.5897 162.812L-6.66677 133.012" stroke="white" stroke-width="2" stroke-miterlimit="10" stroke-linecap="round" stroke-linejoin="round"/>
<path d="M137.904 -40.0817L69.2161 -21.6768L81.1793 22.9705L149.867 4.56556L137.904 -40.0817Z" stroke="white" stroke-width="2" stroke-miterlimit="10" stroke-linecap="round" stroke-linejoin="round"/>
<path d="M69.2161 -21.6768L110.922 -3.40399L137.904 -40.0817L69.2161 -21.6768Z" stroke="white" stroke-width="2" stroke-miterlimit="10" stroke-linecap="round" stroke-linejoin="round"/>
<path d="M115.981 -10.2809L149.867 4.56571L81.1791 22.9706L103.102 -6.83001" stroke="white" stroke-width="2" stroke-miterlimit="10" stroke-linecap="round" stroke-linejoin="round"/>
<path d="M0.527165 -3.27185L-68.1609 15.1331L-56.1977 59.7803L12.4904 41.3754L0.527165 -3.27185Z" stroke="white" stroke-width="2" stroke-miterlimit="10" stroke-linecap="round" stroke-linejoin="round"/>
<path d="M-68.1609 15.1331L-26.4549 33.4058L0.527174 -3.27186L-68.1609 15.1331Z" stroke="white" stroke-width="2" stroke-miterlimit="10" stroke-linecap="round" stroke-linejoin="round"/>
<path d="M-21.3957 26.5291L12.4905 41.3757L-56.1976 59.7807L-34.2747 29.98" stroke="white" stroke-width="2" stroke-miterlimit="10" stroke-linecap="round" stroke-linejoin="round"/>
</g>
</svg>
