<svg width="182" height="48" viewBox="0 0 182 48" fill="none" xmlns="http://www.w3.org/2000/svg">
<rect width="182" height="48" fill="#E5E5E5"/>
<g clip-path="url(#clip0)">
<rect width="1024" height="768" transform="translate(-16)" fill="white"/>
<g clip-path="url(#clip1)">
<rect x="-16" width="1024" height="48" fill="#006FE6"/>
<g opacity="0.2">
<path d="M141.591 -4.82455C142.331 -5.45136 143.23 -5.21122 143.592 -4.29061C143.79 -3.78628 143.615 -2.09135 143.298 -0.477671C142.188 -0.881321 141.103 -1.50793 140.905 -2.01226C140.543 -2.93287 140.852 -4.19773 141.591 -4.82455ZM141.246 -5.70513C140.108 -4.74037 139.638 -2.81618 140.194 -1.39924C140.75 0.0176942 143.81 0.827192 143.81 0.827192C143.81 0.827192 144.862 -3.47869 144.308 -4.88762C143.752 -6.30456 142.384 -6.66988 141.246 -5.70513Z" fill="white"/>
<path d="M119.471 13.1346C120.211 12.5077 121.11 12.7479 121.472 13.6685C121.67 14.1728 121.495 15.8678 121.178 17.4814C120.068 17.0778 118.982 16.4512 118.784 15.9468C118.423 15.0262 118.725 13.7668 119.471 13.1346ZM119.126 12.254C117.988 13.2187 117.518 15.1429 118.074 16.5599C118.63 17.9768 121.69 18.7863 121.69 18.7863C121.69 18.7863 122.741 14.4804 122.188 13.0715C121.626 11.66 120.257 11.2947 119.126 12.254Z" fill="white"/>
<path d="M97.5679 30.9179C98.3072 30.2911 99.2069 30.5312 99.5683 31.4518C99.7663 31.9561 99.5919 33.6511 99.2743 35.2648C98.1648 34.8611 97.0791 34.2345 96.8811 33.7302C96.5197 32.8096 96.8222 31.5502 97.5679 30.9179ZM97.2222 30.0373C96.0843 31.0021 95.6144 32.9263 96.1707 34.3432C96.7269 35.7601 99.7866 36.5696 99.7866 36.5696C99.7866 36.5696 100.838 32.2637 100.285 30.8548C99.7224 29.4433 98.3537 29.078 97.2222 30.0373Z" fill="white"/>
<path d="M75.2198 49.0623C75.9591 48.4355 76.8588 48.6756 77.2202 49.5962C77.4182 50.1006 77.2438 51.7955 76.9262 53.4092C75.8166 53.0055 74.7341 52.3869 74.533 51.8746C74.1716 50.954 74.4805 49.6891 75.2198 49.0623ZM74.8741 48.1817C73.7362 49.1465 73.2663 51.0707 73.8225 52.4876C74.3787 53.9045 77.4384 54.714 77.4384 54.714C77.4384 54.714 78.49 50.4081 77.9369 48.9992C77.3807 47.5823 76.012 47.217 74.8741 48.1817Z" fill="white"/>
<path d="M159.442 2.01361C160.552 2.41726 161.637 3.04387 161.835 3.5482C162.197 4.46881 161.888 5.73366 161.149 6.36048C160.409 6.9873 159.51 6.74716 159.148 5.82655C158.95 5.32221 159.125 3.62729 159.442 2.01361ZM158.933 0.716749C158.933 0.716749 157.882 5.02263 158.435 6.43156C158.991 7.8485 160.36 8.21382 161.497 7.24907C162.635 6.28431 163.105 4.36012 162.549 2.94319C161.986 1.5317 158.933 0.716749 158.933 0.716749Z" fill="white"/>
<path d="M137.094 20.1581C138.204 20.5618 139.289 21.1884 139.487 21.6927C139.849 22.6133 139.54 23.8782 138.801 24.505C138.061 25.1318 137.162 24.8917 136.8 23.9711C136.602 23.4667 136.776 21.7718 137.094 20.1581ZM136.585 18.8613C136.585 18.8613 135.533 23.1672 136.087 24.5761C136.643 25.993 138.011 26.3584 139.149 25.3936C140.287 24.4288 140.757 22.5046 140.201 21.0877C139.645 19.6708 136.585 18.8613 136.585 18.8613Z" fill="white"/>
<path d="M114.968 38.122C116.078 38.5257 117.163 39.1523 117.361 39.6566C117.723 40.5772 117.414 41.8421 116.675 42.4689C115.935 43.0957 115.036 42.8556 114.674 41.9349C114.476 41.4306 114.651 39.7357 114.968 38.122ZM114.459 36.8251C114.459 36.8251 113.407 41.131 113.961 42.54C114.517 43.9569 115.885 44.3222 117.023 43.3575C118.161 42.3927 118.631 40.4685 118.075 39.0516C117.519 37.6346 114.459 36.8251 114.459 36.8251Z" fill="white"/>
<path d="M176.755 8.24645C177.494 7.61963 178.394 7.85976 178.756 8.78037C178.954 9.2847 178.779 10.9796 178.462 12.5933C177.352 12.1897 176.266 11.5631 176.068 11.0587C175.707 10.1381 176.016 8.87327 176.755 8.24645ZM176.406 7.35786C175.268 8.32262 174.799 10.2468 175.355 11.6637C175.911 13.0807 178.971 13.8902 178.971 13.8902C178.971 13.8902 180.022 9.58428 179.469 8.17535C178.916 6.76642 177.544 6.3931 176.406 7.35786Z" fill="white"/>
<path d="M154.407 26.3909C155.146 25.764 156.046 26.0042 156.407 26.9248C156.605 27.4291 156.431 29.124 156.113 30.7377C155.004 30.3341 153.918 29.7075 153.72 29.2031C153.359 28.2825 153.668 27.0177 154.407 26.3909ZM154.058 25.5023C152.92 26.467 152.45 28.3912 153.007 29.8082C153.563 31.2251 156.622 32.0346 156.622 32.0346C156.622 32.0346 157.674 27.7287 157.121 26.3198C156.568 24.9108 155.196 24.5375 154.058 25.5023Z" fill="white"/>
<path d="M132.287 44.3498C133.026 43.723 133.926 43.9632 134.287 44.8838C134.485 45.3881 134.311 47.083 133.993 48.6967C132.884 48.2931 131.798 47.6665 131.6 47.1621C131.239 46.2415 131.541 44.9821 132.287 44.3498ZM131.938 43.4613C130.8 44.426 130.33 46.3502 130.886 47.7671C131.443 49.1841 134.502 49.9936 134.502 49.9936C134.502 49.9936 135.554 45.6877 135.001 44.2788C134.441 42.8753 133.07 42.5019 131.938 43.4613Z" fill="white"/>
<path d="M172.258 33.2294C173.368 33.6331 174.453 34.2597 174.651 34.764C175.013 35.6846 174.704 36.9495 173.965 37.5763C173.225 38.2031 172.326 37.963 171.964 37.0424C171.766 36.538 171.941 34.8431 172.258 33.2294ZM171.749 31.9326C171.749 31.9326 170.698 36.2385 171.251 37.6474C171.807 39.0643 173.176 39.4296 174.313 38.4649C175.451 37.5001 175.921 35.5759 175.365 34.159C174.802 32.7475 171.749 31.9326 171.749 31.9326Z" fill="white"/>
<path d="M67.287 -6.15974C68.3965 -5.75609 69.4822 -5.12949 69.6802 -4.62515C70.0416 -3.70454 69.7327 -2.43969 68.9934 -1.81287C68.2541 -1.18606 67.3544 -1.42619 66.993 -2.3468C66.795 -2.85114 66.9725 -4.53805 67.287 -6.15974ZM66.7779 -7.45659C66.7779 -7.45659 65.7263 -3.15072 66.2794 -1.74178C66.8356 -0.324848 68.2043 0.0404696 69.3422 -0.924286C70.4801 -1.88904 70.95 -3.81323 70.3938 -5.23017C69.8407 -6.6391 66.7779 -7.45659 66.7779 -7.45659Z" fill="white"/>
<path d="M84.8313 -0.10414C85.5706 -0.730959 86.4703 -0.490821 86.8317 0.429788C87.0297 0.934121 86.8553 2.62906 86.5377 4.24274C85.425 3.83108 84.3425 3.21247 84.1445 2.70814C83.78 1.77953 84.0856 0.52813 84.8313 -0.10414ZM84.4825 -0.992728C83.3446 -0.0279714 82.8747 1.89622 83.4309 3.31316C83.9871 4.73009 87.0468 5.53959 87.0468 5.53959C87.0468 5.53959 88.0984 1.2337 87.5453 -0.175229C86.9826 -1.58672 85.6139 -1.95203 84.4825 -0.992728Z" fill="white"/>
<path d="M62.4837 18.0404C63.223 17.4136 64.1227 17.6537 64.484 18.5743C64.682 19.0787 64.5077 20.7736 64.1901 22.3873C63.0774 21.9756 61.9948 21.357 61.7968 20.8527C61.4323 19.9241 61.7443 18.6672 62.4837 18.0404ZM62.1348 17.1518C60.9969 18.1166 60.527 20.0408 61.0832 21.4577C61.6395 22.8746 64.6991 23.6841 64.6991 23.6841C64.6991 23.6841 65.7507 19.3782 65.1976 17.9693C64.6414 16.5524 63.2727 16.187 62.1348 17.1518Z" fill="white"/>
<path d="M102.228 7.09209C103.338 7.49574 104.424 8.12236 104.622 8.62669C104.983 9.54729 104.674 10.8121 103.935 11.439C103.195 12.0658 102.296 11.8256 101.934 10.905C101.736 10.4007 101.914 8.71377 102.228 7.09209ZM101.719 5.79524C101.719 5.79524 100.668 10.1011 101.221 11.5101C101.777 12.927 103.146 13.2923 104.284 12.3275C105.421 11.3628 105.891 9.43861 105.335 8.02167C104.782 6.61274 101.719 5.79524 101.719 5.79524Z" fill="white"/>
<path d="M80.1029 25.056C81.2124 25.4596 82.2981 26.0862 82.4961 26.5906C82.8575 27.5112 82.5486 28.776 81.8093 29.4028C81.07 30.0296 80.1703 29.7895 79.8089 28.8689C79.6109 28.3646 79.7884 26.6776 80.1029 25.056ZM79.5938 23.7591C79.5938 23.7591 78.5422 28.065 79.0953 29.4739C79.6515 30.8909 81.0202 31.2562 82.1581 30.2914C83.296 29.3267 83.7659 27.4025 83.2097 25.9855C82.6566 24.5766 79.5938 23.7591 79.5938 23.7591Z" fill="white"/>
<path d="M10.2196 -1.44782C11.3292 -1.04417 12.4148 -0.417558 12.6128 0.0867752C12.9742 1.00738 12.6653 2.27224 11.926 2.89906C11.1867 3.52587 10.287 3.28573 9.92561 2.36512C9.72763 1.86079 9.90512 0.173871 10.2196 -1.44782ZM9.71051 -2.74468C9.71051 -2.74468 8.65893 1.5612 9.21202 2.97014C9.76825 4.38707 11.1369 4.7524 12.2748 3.78764C13.4127 2.82289 13.8826 0.898695 13.3264 -0.518241C12.7669 -1.92172 9.71051 -2.74468 9.71051 -2.74468Z" fill="white"/>
<path d="M27.5359 4.79332C28.2752 4.1665 29.1749 4.40664 29.5363 5.32725C29.7343 5.83158 29.5599 7.52651 29.2423 9.14019C28.1328 8.73654 27.0471 8.10994 26.8491 7.6056C26.4877 6.685 26.7966 5.42014 27.5359 4.79332ZM27.1871 3.90473C26.0492 4.86949 25.5793 6.79369 26.1355 8.21062C26.6917 9.62756 29.7514 10.4371 29.7514 10.4371C29.7514 10.4371 30.803 6.13116 30.2499 4.72223C29.6937 3.30529 28.325 2.93998 27.1871 3.90473Z" fill="white"/>
<path d="M5.18776 22.9379C5.92706 22.311 6.82676 22.5512 7.18815 23.4718C7.38613 23.9761 7.21179 25.671 6.89416 27.2847C5.78461 26.8811 4.69892 26.2545 4.50094 25.7501C4.13955 24.8295 4.44845 23.5647 5.18776 22.9379ZM4.83893 22.0493C3.70105 23.014 3.23112 24.9382 3.78735 26.3552C4.34359 27.7721 7.40325 28.5816 7.40325 28.5816C7.40325 28.5816 8.45483 24.2757 7.90174 22.8668C7.34551 21.4498 5.97682 21.0845 4.83893 22.0493Z" fill="white"/>
<path d="M45.1615 11.804C46.2711 12.2077 47.3567 12.8343 47.5547 13.3386C47.9161 14.2592 47.6072 15.5241 46.8679 16.1509C46.1286 16.7777 45.2289 16.5376 44.8675 15.6169C44.6695 15.1126 44.8406 13.4311 45.1615 11.804ZM44.6524 10.5072C44.6524 10.5072 43.6008 14.813 44.1539 16.222C44.7101 17.6389 46.0788 18.0042 47.2167 17.0395C48.3546 16.0747 48.8245 14.1505 48.2683 12.7336C47.7088 11.3301 44.6524 10.5072 44.6524 10.5072Z" fill="white"/>
<path d="M23.0355 29.7679C24.1451 30.1715 25.2307 30.7981 25.4287 31.3025C25.7901 32.2231 25.4812 33.4879 24.7419 34.1147C24.0026 34.7416 23.1029 34.5014 22.7415 33.5808C22.5435 33.0765 22.721 31.3896 23.0355 29.7679ZM22.5264 28.471C22.5264 28.471 21.4748 32.7769 22.0279 34.1858C22.5842 35.6028 23.9529 35.9681 25.0907 35.0033C26.2286 34.0386 26.6985 32.1144 26.1423 30.6975C25.5828 29.294 22.5264 28.471 22.5264 28.471Z" fill="white"/>
<path d="M0.68738 47.9124C1.79693 48.3161 2.88262 48.9427 3.0806 49.447C3.44199 50.3676 3.13309 51.6325 2.39378 52.2593C1.65447 52.8861 0.754777 52.6459 0.393385 51.7253C0.195404 51.221 0.372893 49.5341 0.68738 47.9124ZM0.178289 46.6156C0.178289 46.6156 -0.873294 50.9214 -0.320206 52.3304C0.236024 53.7473 1.60472 54.1126 2.7426 53.1479C3.88049 52.1831 4.35042 50.2589 3.79419 48.842C3.2411 47.433 0.178289 46.6156 0.178289 46.6156Z" fill="white"/>
<path d="M40.3518 36.0091C41.0911 35.3823 41.9908 35.6225 42.3522 36.5431C42.5502 37.0474 42.3759 38.7423 42.0582 40.356C40.9455 39.9444 39.863 39.3258 39.665 38.8214C39.3005 37.8928 39.6125 36.636 40.3518 36.0091ZM40.003 35.1206C38.8651 36.0853 38.3952 38.0095 38.9514 39.4264C39.5076 40.8434 42.5673 41.6529 42.5673 41.6529C42.5673 41.6529 43.6189 37.347 43.0658 35.938C42.5096 34.5211 41.1409 34.1558 40.003 35.1206Z" fill="white"/>
<path d="M57.9774 43.0198C59.087 43.4235 60.1727 44.0501 60.3706 44.5544C60.732 45.475 60.4231 46.7399 59.6838 47.3667C58.9445 47.9935 58.0448 47.7534 57.6834 46.8328C57.4854 46.3284 57.6565 44.647 57.9774 43.0198ZM57.4683 41.723C57.4683 41.723 56.4167 46.0289 56.9698 47.4378C57.5261 48.8547 58.8948 49.22 60.0326 48.2553C61.1705 47.2905 61.6405 45.3663 61.0842 43.9494C60.5247 42.5459 57.4683 41.723 57.4683 41.723Z" fill="white"/>
</g>
<rect opacity="0.1" x="-16" y="47" width="1024" height="1" fill="black"/>
</g>
</g>
<defs>
<clipPath id="clip0">
<rect width="1024" height="768" fill="white" transform="translate(-16)"/>
</clipPath>
<clipPath id="clip1">
<rect width="1024" height="48" fill="white" transform="translate(-16)"/>
</clipPath>
</defs>
</svg>
