<svg width="87" height="48" viewBox="0 0 87 48" fill="none" xmlns="http://www.w3.org/2000/svg">
<rect width="87" height="48" fill="#E5E5E5"/>
<g clip-path="url(#clip0)">
<rect width="1024" height="768" fill="white"/>
<g clip-path="url(#clip1)">
<rect width="1024" height="48" fill="#006FE6"/>
<g opacity="0.2">
<path d="M83.287 -6.15974C84.3965 -5.75609 85.4822 -5.12949 85.6802 -4.62515C86.0416 -3.70454 85.7327 -2.43969 84.9934 -1.81287C84.2541 -1.18606 83.3544 -1.42619 82.993 -2.3468C82.795 -2.85114 82.9725 -4.53805 83.287 -6.15974ZM82.7779 -7.45659C82.7779 -7.45659 81.7263 -3.15072 82.2794 -1.74178C82.8356 -0.324848 84.2043 0.0404696 85.3422 -0.924286C86.4801 -1.88904 86.95 -3.81323 86.3938 -5.23017C85.8407 -6.6391 82.7779 -7.45659 82.7779 -7.45659Z" fill="white"/>
<path d="M78.4837 18.0404C79.223 17.4136 80.1227 17.6537 80.484 18.5743C80.682 19.0787 80.5077 20.7736 80.1901 22.3873C79.0774 21.9756 77.9948 21.357 77.7968 20.8527C77.4323 19.9241 77.7443 18.6672 78.4837 18.0404ZM78.1348 17.1518C76.9969 18.1166 76.527 20.0408 77.0832 21.4577C77.6395 22.8746 80.6991 23.6841 80.6991 23.6841C80.6991 23.6841 81.7507 19.3782 81.1976 17.9693C80.6414 16.5524 79.2727 16.187 78.1348 17.1518Z" fill="white"/>
<path d="M26.2196 -1.44782C27.3292 -1.04417 28.4148 -0.417558 28.6128 0.0867752C28.9742 1.00738 28.6653 2.27224 27.926 2.89906C27.1867 3.52587 26.287 3.28573 25.9256 2.36512C25.7276 1.86079 25.9051 0.173871 26.2196 -1.44782ZM25.7105 -2.74468C25.7105 -2.74468 24.6589 1.5612 25.212 2.97014C25.7683 4.38707 27.1369 4.7524 28.2748 3.78764C29.4127 2.82289 29.8826 0.898695 29.3264 -0.518241C28.7669 -1.92172 25.7105 -2.74468 25.7105 -2.74468Z" fill="white"/>
<path d="M3.87146 16.6966C4.98101 17.1002 6.0667 17.7268 6.26468 18.2312C6.62607 19.1518 6.31717 20.4166 5.57787 21.0435C4.83856 21.6703 3.93886 21.4301 3.57747 20.5095C3.37949 20.0052 3.55698 18.3183 3.87146 16.6966ZM3.36237 15.3997C3.36237 15.3997 2.31079 19.7056 2.86388 21.1145C3.42011 22.5315 4.7888 22.8968 5.92669 21.9321C7.06458 20.9673 7.5345 19.0431 6.97827 17.6262C6.42518 16.2172 3.36237 15.3997 3.36237 15.3997Z" fill="white"/>
<path d="M43.5359 4.79332C44.2752 4.1665 45.1749 4.40664 45.5363 5.32725C45.7343 5.83158 45.5599 7.52651 45.2423 9.14019C44.1328 8.73654 43.0471 8.10994 42.8491 7.6056C42.4877 6.685 42.7966 5.42014 43.5359 4.79332ZM43.1871 3.90473C42.0492 4.86949 41.5793 6.79369 42.1355 8.21062C42.6917 9.62756 45.7514 10.4371 45.7514 10.4371C45.7514 10.4371 46.803 6.13116 46.2499 4.72223C45.6937 3.30529 44.325 2.93998 43.1871 3.90473Z" fill="white"/>
<path d="M21.1878 22.9379C21.9271 22.311 22.8268 22.5512 23.1882 23.4718C23.3861 23.9761 23.2118 25.671 22.8942 27.2847C21.7846 26.8811 20.6989 26.2545 20.5009 25.7501C20.1395 24.8295 20.4485 23.5647 21.1878 22.9379ZM20.8389 22.0493C19.701 23.014 19.2311 24.9382 19.7874 26.3552C20.3436 27.7721 23.4033 28.5816 23.4033 28.5816C23.4033 28.5816 24.4548 24.2757 23.9017 22.8668C23.3455 21.4498 21.9768 21.0845 20.8389 22.0493Z" fill="white"/>
<path d="M-0.932361 40.8968C-0.193056 40.27 0.706649 40.5102 1.06804 41.4308C1.26602 41.9351 1.09167 43.63 0.774042 45.2437C-0.335509 44.8401 -1.42119 44.2135 -1.61917 43.7091C-1.98056 42.7885 -1.67809 41.5291 -0.932361 40.8968ZM-1.28118 40.0083C-2.41907 40.973 -2.88899 42.8972 -2.33276 44.3141C-1.77653 45.7311 1.28314 46.5406 1.28314 46.5406C1.28314 46.5406 2.33472 42.2347 1.78163 40.8258C1.21897 39.4143 -0.149726 39.0489 -1.28118 40.0083Z" fill="white"/>
<path d="M61.1615 11.804C62.2711 12.2077 63.3567 12.8343 63.5547 13.3386C63.9161 14.2592 63.6072 15.5241 62.8679 16.1509C62.1286 16.7777 61.2289 16.5376 60.8675 15.6169C60.6695 15.1126 60.8406 13.4311 61.1615 11.804ZM60.6524 10.5072C60.6524 10.5072 59.6008 14.813 60.1539 16.222C60.7101 17.6389 62.0788 18.0042 63.2167 17.0395C64.3546 16.0747 64.8245 14.1505 64.2683 12.7336C63.7088 11.3301 60.6524 10.5072 60.6524 10.5072Z" fill="white"/>
<path d="M39.0355 29.7679C40.1451 30.1715 41.2307 30.7981 41.4287 31.3025C41.7901 32.2231 41.4812 33.4879 40.7419 34.1147C40.0026 34.7416 39.1029 34.5014 38.7415 33.5808C38.5435 33.0765 38.721 31.3896 39.0355 29.7679ZM38.5264 28.471C38.5264 28.471 37.4748 32.7769 38.0279 34.1858C38.5842 35.6028 39.9529 35.9681 41.0907 35.0033C42.2286 34.0386 42.6985 32.1144 42.1423 30.6975C41.5828 29.294 38.5264 28.471 38.5264 28.471Z" fill="white"/>
<path d="M16.6874 47.9124C17.7969 48.3161 18.8826 48.9427 19.0806 49.447C19.442 50.3676 19.1331 51.6325 18.3938 52.2593C17.6545 52.8861 16.7548 52.6459 16.3934 51.7253C16.1954 51.221 16.3729 49.5341 16.6874 47.9124ZM16.1783 46.6156C16.1783 46.6156 15.1267 50.9214 15.6798 52.3304C16.236 53.7473 17.6047 54.1126 18.7426 53.1479C19.8805 52.1831 20.3504 50.2589 19.7942 48.842C19.2411 47.433 16.1783 46.6156 16.1783 46.6156Z" fill="white"/>
<path d="M56.3518 36.0091C57.0911 35.3823 57.9908 35.6225 58.3522 36.5431C58.5502 37.0474 58.3759 38.7423 58.0582 40.356C56.9455 39.9444 55.863 39.3258 55.665 38.8214C55.3005 37.8928 55.6125 36.636 56.3518 36.0091ZM56.003 35.1206C54.8651 36.0853 54.3952 38.0095 54.9514 39.4264C55.5076 40.8434 58.5673 41.6529 58.5673 41.6529C58.5673 41.6529 59.6189 37.347 59.0658 35.938C58.5096 34.5211 57.1409 34.1558 56.003 35.1206Z" fill="white"/>
<path d="M73.9774 43.0198C75.087 43.4235 76.1727 44.0501 76.3706 44.5544C76.732 45.475 76.4231 46.7399 75.6838 47.3667C74.9445 47.9935 74.0448 47.7534 73.6834 46.8328C73.4854 46.3284 73.6565 44.647 73.9774 43.0198ZM73.4683 41.723C73.4683 41.723 72.4167 46.0289 72.9698 47.4378C73.5261 48.8547 74.8948 49.22 76.0326 48.2553C77.1705 47.2905 77.6405 45.3663 77.0842 43.9494C76.5247 42.5459 73.4683 41.723 73.4683 41.723Z" fill="white"/>
</g>
<rect opacity="0.1" y="47" width="1024" height="1" fill="black"/>
</g>
</g>
<defs>
<clipPath id="clip0">
<rect width="1024" height="768" fill="white"/>
</clipPath>
<clipPath id="clip1">
<rect width="1024" height="48" fill="white"/>
</clipPath>
</defs>
</svg>
