<svg width="223" height="48" viewBox="0 0 223 48" fill="none" xmlns="http://www.w3.org/2000/svg">
<path d="M82.0434 -6.23161C83.4262 -5.75008 84.7886 -5.04489 85.0527 -4.52222C85.5348 -3.56814 85.2051 -2.31081 84.3196 -1.72667C83.4341 -1.14254 82.3163 -1.44493 81.8343 -2.39901C81.5702 -2.92168 81.7211 -4.61415 82.0434 -6.23161ZM81.3643 -7.57562C81.3643 -7.57562 80.2418 -3.29536 80.9796 -1.83519C81.7216 -0.366731 83.4221 0.0932894 84.7849 -0.805773C86.1477 -1.70483 86.6493 -3.61758 85.9073 -5.08604C85.1696 -6.5462 81.3643 -7.57562 81.3643 -7.57562Z" fill="white"/>
<path d="M103.961 -0.190608C104.847 -0.774744 105.965 -0.472355 106.447 0.48173C106.711 1.0044 106.564 2.70518 106.238 4.31434C104.851 3.82452 103.492 3.12761 103.228 2.60494C102.742 1.64256 103.068 0.398608 103.961 -0.190608ZM103.496 -1.11151C102.133 -0.212445 101.632 1.7003 102.374 3.16876C103.116 4.63722 106.917 5.65835 106.917 5.65835C106.917 5.65835 108.039 1.37808 107.301 -0.0820888C106.552 -1.54547 104.851 -2.00549 103.496 -1.11151Z" fill="white"/>
<path d="M76.0259 17.9539C76.9113 17.3698 78.0291 17.6722 78.5112 18.6263C78.7753 19.1489 78.6286 20.8497 78.3021 22.4589C76.9151 21.969 75.5569 21.2721 75.2928 20.7495C74.8065 19.7871 75.1404 18.5381 76.0259 17.9539ZM75.5605 17.033C74.1977 17.9321 73.6961 19.8448 74.4381 21.3133C75.1801 22.7818 78.9812 23.8029 78.9812 23.8029C78.9812 23.8029 80.1036 19.5226 79.3658 18.0624C78.6239 16.594 76.9234 16.134 75.5605 17.033Z" fill="white"/>
<path d="M125.721 7.02047C127.104 7.50199 128.466 8.20719 128.73 8.72986C129.212 9.68395 128.883 10.9413 127.997 11.5254C127.112 12.1095 125.994 11.8072 125.512 10.8531C125.248 10.3304 125.399 8.63792 125.721 7.02047ZM125.042 5.67646C125.042 5.67646 123.92 9.95673 124.657 11.4169C125.399 12.8853 127.1 13.3454 128.463 12.4463C129.825 11.5472 130.327 9.6345 129.585 8.16604C128.847 6.70588 125.042 5.67646 125.042 5.67646Z" fill="white"/>
<path d="M98.0639 24.9843C99.4467 25.4659 100.809 26.1711 101.073 26.6937C101.555 27.6478 101.226 28.9051 100.34 29.4893C99.4546 30.0734 98.3368 29.771 97.8548 28.8169C97.5907 28.2943 97.7416 26.6018 98.0639 24.9843ZM97.3848 23.6403C97.3848 23.6403 96.2623 27.9206 97.0001 29.3808C97.7421 30.8492 99.4426 31.3092 100.805 30.4102C102.168 29.5111 102.67 27.5984 101.928 26.1299C101.19 24.6697 97.3848 23.6403 97.3848 23.6403Z" fill="white"/>
</svg>
