<svg width="187" height="19" viewBox="0 0 187 19" fill="none" xmlns="http://www.w3.org/2000/svg">
<path fill-rule="evenodd" clip-rule="evenodd" d="M186.49 0.8708L180.697 4.32911L172.829 11.9374V14.1853L179.141 18.2488H157.699L164.011 14.1853V11.9374L155.797 4.06974L150.004 0.8708H170.322L165.999 4.06974L170.581 8.30617L174.991 3.81036L170.668 0.957258H186.49V0.8708ZM130.638 8.13325H136.344C138.073 8.13325 139.111 8.04679 139.543 7.96034C139.975 7.87388 140.321 7.70096 140.581 7.35513C140.84 7.0093 140.926 6.66347 140.926 6.23118C140.926 5.79889 140.84 5.45306 140.581 5.10723C140.321 4.7614 140.062 4.58848 139.629 4.41557C139.024 4.24265 137.9 4.15619 136.258 4.15619H130.551V8.13325H130.638ZM115.335 0.8708H136.344H139.543C142.483 0.8708 144.817 1.21663 146.633 1.82184C147.584 2.16767 148.448 2.68641 149.226 3.37808C150.004 4.15619 150.437 4.93431 150.437 5.79889C150.437 6.92284 149.745 7.87388 148.362 8.56554C147.151 9.17074 145.336 9.68949 142.915 9.94886C143.952 10.2082 144.817 10.4676 145.336 10.8134C145.941 11.0728 146.546 11.5916 147.065 12.1103C147.497 12.5426 147.929 13.0613 148.275 13.4936C148.621 14.0124 148.967 14.704 149.399 15.6551L153.636 18.1624H141.359C140.926 17.1249 140.408 16.0874 139.889 14.9634C139.284 13.8395 138.851 13.0613 138.506 12.5426C138.16 12.1103 137.814 11.7645 137.295 11.678C136.863 11.5051 135.998 11.4186 134.874 11.4186H130.638V14.0124L136.949 18.0759H115.335L121.646 14.0124V4.93431L115.335 0.8708ZM91.9912 8.13325H97.6974C99.4266 8.13325 100.464 8.04679 100.896 7.96034C101.329 7.87388 101.674 7.70096 101.934 7.35513C102.193 7.0093 102.28 6.66347 102.28 6.23118C102.28 5.79889 102.193 5.45306 101.934 5.10723C101.674 4.7614 101.415 4.58848 100.983 4.41557C100.378 4.24265 99.2536 4.15619 97.6109 4.15619H91.9047V8.13325H91.9912ZM76.6881 0.8708H97.6974H100.896C103.836 0.8708 106.17 1.21663 107.986 1.82184C108.937 2.16767 109.802 2.68641 110.58 3.37808C111.358 4.15619 111.79 4.93431 111.79 5.79889C111.79 6.92284 111.098 7.87388 109.715 8.56554C108.505 9.17074 106.689 9.68949 104.268 9.94886C105.306 10.2082 106.17 10.4676 106.689 10.8134C107.294 11.0728 107.899 11.5916 108.418 12.1103C108.85 12.5426 109.283 13.0613 109.629 13.4936C109.974 14.0124 110.32 14.704 110.753 15.6551L114.989 18.1624H102.712C102.28 17.1249 101.761 16.0874 101.242 14.9634C100.637 13.8395 100.205 13.0613 99.8588 12.5426C99.513 12.1103 99.1672 11.7645 98.6484 11.678C98.2161 11.5051 97.3516 11.4186 96.2276 11.4186H91.9912V14.0124L98.3026 18.0759H76.6881L82.9996 14.0124V4.93431L76.6881 0.8708ZM73.9215 0.8708V8.39262L67.4371 3.81036H55.2466V7.52805H61.9903L66.7455 5.53952V13.3207L61.9903 10.9864H55.2466V14.704H67.4371L74.4402 9.77595V18.1624H39.9435L46.255 14.0988V4.93431L39.9435 0.8708C39.9435 0.8708 73.9215 0.8708 73.9215 0.8708ZM39.7706 0.8708L28.0988 7.09576L34.1509 14.0988L40.03 18.1624H20.3176L25.5051 14.4447L21.9603 10.3812L15.2166 13.4936V14.1853L19.9718 18.2488H0L6.31143 14.1853V4.93431L0 0.8708H19.8853L15.303 4.58848V9.34366L25.2457 4.32911L20.8363 0.8708C20.8363 0.8708 39.7706 0.8708 39.7706 0.8708Z" fill="black"/>
</svg>
