<svg width="196" height="98" viewBox="0 0 196 98" fill="none" xmlns="http://www.w3.org/2000/svg">
<g clip-path="url(#clip0)">
<path d="M129.851 48.581C130.732 46.3875 133.229 46.4298 133.229 46.4298H137.122C137.122 46.4298 130.45 62.9689 130.443 62.9759C129.561 65.1412 127.34 65.1694 127.34 65.1694H123.059L129.851 48.581Z" fill="black"/>
<path d="M92.0824 48.581C92.9641 46.3875 95.4608 46.4298 95.4608 46.4298H99.354C99.354 46.4298 92.6819 62.9689 92.6749 62.9759C91.7933 65.1412 89.5716 65.1694 89.5716 65.1694H85.2905L92.0824 48.581Z" fill="black"/>
<path d="M105.088 56.0852C105.088 56.0852 102.316 62.9477 102.316 62.9547C101.428 65.1905 99.2059 65.1693 99.2059 65.1693H94.9248C94.9248 65.1693 101.724 48.5668 101.724 48.5597C102.556 46.4439 105.088 46.4298 105.088 46.4298H108.981L105.596 54.8298L117.417 46.4298H125.788L111.838 55.8383L122.22 65.1693L113.728 65.1834L105.088 56.0852Z" fill="black"/>
<path d="M0.00610137 67.5038C0.00610137 67.5038 -1.55259 36.584 40.0736 31.0333C40.0736 31.0333 28.1965 36.6968 27.6111 44.6877C27.2938 49.0323 30.4182 53.6096 35.1436 55.3023C41.3713 57.531 46.795 57.3336 50.1381 54.6676C53.0862 52.319 53.721 47.8827 52.2187 45.0474C52.2187 45.0474 67.721 55.7326 51.732 66.5235C51.732 66.5235 48.7698 59.6187 29.4096 60.5991C10.0565 61.5724 0.00610137 67.5038 0.00610137 67.5038Z" fill="black"/>
<path d="M163.55 46.4298H159.656C159.656 46.4298 157.145 46.3381 156.278 48.588C156.278 48.5951 153.027 56.5437 153.027 56.5437L140.444 46.0983L132.672 65.1694H136.946C136.946 65.1694 139.168 65.2047 140.056 62.9689C140.056 62.9618 142.976 55.8384 142.976 55.8384L155.848 65.8465L163.55 46.4298Z" fill="black"/>
<path d="M63.9907 46.4369L70.1973 66.6152L90.7353 46.4369H85.8899C85.8899 46.4369 83.3791 46.3875 81.2139 48.581L73.8789 55.8948L71.0083 46.4369H63.9907Z" fill="black"/>
<path d="M188.044 46.1759H180.935C180.935 46.1759 176.59 46.1547 173.028 47.1633C169.466 48.1719 166.088 50.0479 163.965 52.46C161.842 54.8721 160.855 57.9613 161.553 60.2464C162.251 62.5316 164.847 64.4499 168.352 65.0635C171.85 65.6842 176.096 65.4162 177.415 65.2258C178.734 65.0424 178.734 65.0424 178.734 65.0424C178.734 65.0424 180.716 64.7885 182.134 64.3442C183.565 63.8998 184.503 63.4132 184.503 63.4132L188.192 54.456H178.015L176.449 58.187H181.061L180.095 60.5991C180.095 60.5991 177.972 61.3819 174.883 61.3819C171.794 61.3819 170.122 60.5991 169.403 59.9784C168.684 59.3578 167.978 58.3915 168.726 56.3532C169.466 54.3149 171.448 52.6646 172.824 51.9875C174.206 51.3104 175.645 50.591 178.198 50.3583C180.765 50.1255 182.437 50.1608 183.297 50.1678C186.309 50.1749 186.887 48.6091 186.887 48.6091L188.044 46.1759Z" fill="black"/>
<path d="M60.436 32.0174H59.4768V31.1781H61.769L64.6748 36.3972H64.6959V32.0174H63.7579V31.1781H66.5156V32.0174H65.5282V37.9559H64.4703L61.2823 32.229H61.2612V37.0532H62.2274V37.8925H59.4697V37.0532H60.4289V32.0174H60.436Z" fill="black"/>
<path d="M69.1814 33.0928C70.5849 33.0928 71.6288 34.1507 71.6288 35.5613C71.6288 36.9719 70.5708 38.0298 69.1673 38.0298C67.7638 38.0298 66.7129 36.9719 66.7129 35.5613C66.7199 34.1507 67.7638 33.0928 69.1814 33.0928ZM69.1673 37.1411C70.0066 37.1411 70.6414 36.4711 70.6414 35.5613C70.6414 34.6585 70.0066 33.9814 69.1673 33.9814C68.3421 33.9814 67.7074 34.6585 67.7074 35.5613C67.7074 36.4711 68.3421 37.1411 69.1673 37.1411Z" fill="black"/>
<path d="M72.9688 34.0378H72.0308V33.2268H73.7023V34.2776H73.7235C74.0197 33.4948 74.6121 33.1492 75.1975 33.1492H75.797V34.0802H75.3033C74.2242 34.0802 73.8998 34.6797 73.8998 35.7517V37.0847H74.9084V37.8958H72.0519V37.0847H72.9688V34.0378Z" fill="black"/>
<path d="M76.2978 34.0379H75.7266V33.2268H77.6943V34.0379H77.0878L77.9694 36.852H77.9905L78.8722 34.0379H78.3573V33.2268H80.6213V34.0379H80.1205L81.0021 36.852H81.0233L81.912 34.0379H81.2631V33.2268H83.3649V34.0379H82.7019L81.4465 37.9734H80.586L79.5281 34.595H79.5069L78.4208 37.9734H77.5533L76.2978 34.0379Z" fill="black"/>
<path d="M84.2888 35.7869C84.4298 36.6968 85.0223 37.2187 85.8898 37.2187C86.4893 37.2187 87.0535 36.9507 87.3991 36.457L88.2102 36.8096C87.7094 37.5925 86.8631 38.0227 85.8686 38.0227C84.3593 38.0227 83.2661 36.993 83.2661 35.5542C83.2661 34.0449 84.5004 33.0857 85.7205 33.0857C87.0183 33.0857 88.2102 34.0731 88.2102 35.7869H84.2888ZM87.2722 35.1169C87.1241 34.3764 86.4752 33.8333 85.7417 33.8333C85.0082 33.8333 84.4581 34.334 84.317 35.1169H87.2722Z" fill="black"/>
<path d="M94.4452 34.0379H93.6059V37.931C93.6059 39.6026 92.153 40.0963 91.1021 40.0963C90.3898 40.0963 89.889 39.927 89.2613 39.4756L89.8538 38.8056C90.2558 39.13 90.7072 39.2923 91.1797 39.2923C91.751 39.2923 92.682 38.996 92.682 37.9663V37.261H92.6608C92.2941 37.7265 91.6311 38.0298 90.9893 38.0298C89.6774 38.0298 88.7183 37.0142 88.7183 35.6248C88.7183 34.2212 89.7268 33.1421 91.0316 33.1421C91.6523 33.1421 92.1953 33.389 92.682 33.8827V33.2268H94.4381L94.4452 34.0379ZM91.1797 37.2187C92.0472 37.2187 92.7031 36.5275 92.7031 35.6106C92.7031 34.7008 92.0613 34.0096 91.2009 34.0096C90.3475 34.0096 89.7198 34.6938 89.7198 35.6106C89.7127 36.5628 90.3193 37.2187 91.1797 37.2187Z" fill="black"/>
<path d="M95.3406 34.0378H94.6001V33.2268H96.2716V37.0777H97.0122V37.8887H94.6001V37.0847H95.3406V34.0378ZM96.3351 31.6399C96.3351 31.9431 96.0883 32.19 95.785 32.19C95.4817 32.19 95.2349 31.9431 95.2349 31.6399C95.2349 31.3366 95.4817 31.0897 95.785 31.0897C96.0883 31.0827 96.3351 31.3295 96.3351 31.6399Z" fill="black"/>
<path d="M102.189 37.8958H100.567V37.3174C99.9816 37.79 99.5796 37.9733 99.0647 37.9733C98.1761 37.9733 97.4849 37.3174 97.4849 36.4922C97.4849 35.6388 98.2254 34.9829 99.1846 34.9829C99.6008 34.9829 100.08 35.131 100.461 35.3779V34.7643C100.461 34.1013 99.9746 33.8615 99.4244 33.8615C98.9801 33.8615 98.6345 34.0519 98.4229 34.4116L97.5413 34.1718C97.9363 33.4524 98.6063 33.0857 99.5584 33.0857C100.927 33.0857 101.385 33.7698 101.385 34.5174V37.0776H102.189V37.8958ZM100.461 36.1537C100.066 35.8504 99.6501 35.6882 99.2551 35.6882C98.7403 35.6882 98.3665 36.0267 98.3665 36.4922C98.3665 36.9436 98.7121 37.261 99.2058 37.261C99.6219 37.261 100.087 37.0565 100.461 36.7038V36.1537Z" fill="black"/>
<path d="M104.121 33.791C104.742 33.3396 105.222 33.1492 105.715 33.1492C106.378 33.1492 106.943 33.5512 106.943 34.4751V37.0847H107.747V37.8958H106.019V34.8419C106.019 34.2494 105.849 33.9955 105.476 33.9955C105.102 33.9955 104.608 34.2142 104.129 34.588V37.0847H104.933V37.8958H102.401V37.0847H103.198V34.0378H102.379V33.2268H104.129L104.121 33.791Z" fill="black"/>
<path d="M110.85 34.0378H110.166V33.2268H110.85V32.3875C110.85 31.4565 111.436 31.0404 112.099 31.0404C112.762 31.0404 113.192 31.4283 113.305 32.1194L112.493 32.2464C112.465 31.9431 112.345 31.795 112.141 31.795C111.915 31.795 111.788 31.9854 111.788 32.2958V33.2268H112.578V34.0378H111.788V37.0847H112.691V37.8958H110.201V37.0847H110.864V34.0378H110.85Z" fill="black"/>
<path d="M115.561 33.0928C116.965 33.0928 118.016 34.1507 118.016 35.5613C118.016 36.9719 116.958 38.0298 115.554 38.0298C114.151 38.0298 113.107 36.9719 113.107 35.5613C113.107 34.1507 114.151 33.0928 115.561 33.0928ZM115.554 37.1411C116.394 37.1411 117.028 36.4711 117.028 35.5613C117.028 34.6585 116.394 33.9814 115.554 33.9814C114.722 33.9814 114.094 34.6656 114.094 35.5613C114.094 36.4711 114.722 37.1411 115.554 37.1411Z" fill="black"/>
<path d="M121.034 33.0928C122.438 33.0928 123.482 34.1507 123.482 35.5613C123.482 36.9719 122.424 38.0298 121.02 38.0298C119.617 38.0298 118.566 36.9719 118.566 35.5613C118.573 34.1507 119.617 33.0928 121.034 33.0928ZM121.02 37.1411C121.86 37.1411 122.494 36.4711 122.494 35.5613C122.494 34.6585 121.86 33.9814 121.02 33.9814C120.188 33.9814 119.56 34.6656 119.56 35.5613C119.56 36.4711 120.188 37.1411 121.02 37.1411Z" fill="black"/>
<path d="M123.961 33.2268H124.561V32.5074L125.492 31.6681V33.2268H126.352V34.0378H125.492V36.7391C125.492 37.1905 125.894 37.1764 126.352 37.0142V37.8464C126.134 37.9169 125.887 37.9734 125.668 37.9734C125.012 37.9734 124.561 37.6771 124.561 36.866V34.0378H123.961V33.2268Z" fill="black"/>
<path d="M127.015 34.0379H126.444V33.2268H128.412V34.0379H127.812L128.694 36.852H128.715L129.596 34.0379H129.068V33.2268H131.332V34.0379H130.824L131.705 36.852H131.726L132.615 34.0379H131.966V33.2268H134.068V34.0379H133.405L132.15 37.9734H131.289L130.231 34.595H130.21L129.124 37.9734H128.256L127.015 34.0379Z" fill="black"/>
<path d="M134.999 35.7869C135.14 36.6968 135.733 37.2187 136.6 37.2187C137.2 37.2187 137.764 36.9507 138.11 36.457L138.921 36.8096C138.42 37.5925 137.574 38.0227 136.579 38.0227C135.07 38.0227 133.977 36.993 133.977 35.5542C133.977 34.0449 135.211 33.0857 136.431 33.0857C137.729 33.0857 138.921 34.0731 138.921 35.7869H134.999ZM137.983 35.1169C137.835 34.3764 137.186 33.8333 136.452 33.8333C135.719 33.8333 135.169 34.334 135.027 35.1169H137.983Z" fill="black"/>
<path d="M144.232 37.8958H142.61V37.3174C142.024 37.79 141.622 37.9733 141.107 37.9733C140.219 37.9733 139.527 37.3174 139.527 36.4922C139.527 35.6388 140.268 34.9829 141.227 34.9829C141.643 34.9829 142.123 35.131 142.504 35.3779V34.7643C142.504 34.1013 142.017 33.8615 141.467 33.8615C141.023 33.8615 140.677 34.0519 140.472 34.4116L139.591 34.1718C139.986 33.4524 140.656 33.0857 141.608 33.0857C142.969 33.0857 143.435 33.7698 143.435 34.5174V37.0776H144.239L144.232 37.8958ZM142.504 36.1537C142.109 35.8504 141.693 35.6882 141.298 35.6882C140.783 35.6882 140.409 36.0267 140.409 36.4922C140.409 36.9436 140.755 37.261 141.248 37.261C141.664 37.261 142.13 37.0565 142.504 36.7038V36.1537Z" fill="black"/>
<path d="M145.304 34.0378H144.366V33.2268H146.037V34.2776H146.058C146.355 33.4948 146.947 33.1492 147.532 33.1492H148.139V34.0802H147.645C146.566 34.0802 146.242 34.6797 146.242 35.7517V37.0847H147.25V37.8958H144.394V37.0847H145.311L145.304 34.0378Z" fill="black"/>
<path d="M150.748 36.2948H151.566V36.4499C151.644 36.9154 152.067 37.2046 152.681 37.2046C153.266 37.2046 153.64 36.9789 153.64 36.6192C153.64 35.7517 151.997 36.3018 151.108 35.4132C150.889 35.1945 150.741 34.8701 150.741 34.5245C150.741 33.7275 151.432 33.1492 152.385 33.1492C152.808 33.1492 153.217 33.2479 153.52 33.4172V33.2268H154.331V34.7714H153.52V34.4822C153.252 34.0872 152.906 33.9109 152.434 33.9109C151.94 33.9109 151.616 34.1366 151.616 34.4822C151.616 35.2651 153.414 34.8066 154.183 35.5824C154.458 35.8575 154.578 36.2242 154.578 36.5487C154.578 37.4021 153.859 37.9734 152.787 37.9734C152.286 37.9734 151.898 37.8676 151.559 37.6348V37.8887H150.741L150.748 36.2948Z" fill="black"/>
<path d="M155.65 34.0378H154.91V33.2268H156.581V37.0777H157.322V37.8887H154.91V37.0847H155.65V34.0378ZM156.652 31.6399C156.652 31.9431 156.405 32.19 156.102 32.19C155.798 32.19 155.551 31.9431 155.551 31.6399C155.551 31.3366 155.798 31.0897 156.102 31.0897C156.405 31.0827 156.652 31.3295 156.652 31.6399Z" fill="black"/>
<path d="M159.381 33.791C160.002 33.3396 160.482 33.1492 160.975 33.1492C161.638 33.1492 162.202 33.5512 162.202 34.4751V37.0847H163.006V37.8958H161.279V34.8419C161.279 34.2494 161.109 33.9955 160.735 33.9955C160.362 33.9955 159.868 34.2142 159.388 34.588V37.0847H160.192V37.8958H157.66V37.0847H158.457V34.0378H157.639V33.2268H159.388L159.381 33.791Z" fill="black"/>
<path d="M167.612 34.99H166.78C166.73 34.6655 166.589 34.3975 166.378 34.2071C166.173 34.0308 165.884 33.932 165.546 33.932C164.713 33.932 164.163 34.5738 164.163 35.5119C164.163 36.5134 164.749 37.1905 165.588 37.1905C166.209 37.1905 166.716 36.866 166.991 36.2736L167.753 36.6262C167.351 37.5431 166.575 38.0298 165.56 38.0298C163.937 38.0298 163.176 36.7038 163.176 35.5189C163.176 34.1718 164.191 33.0857 165.468 33.0857C165.976 33.0857 166.434 33.2408 166.78 33.5371V33.2267H167.612V34.99Z" fill="black"/>
<path d="M169.156 35.7869C169.297 36.6968 169.89 37.2187 170.757 37.2187C171.357 37.2187 171.921 36.9507 172.267 36.457L173.078 36.8096C172.577 37.5925 171.738 38.0227 170.736 38.0227C169.227 38.0227 168.141 36.993 168.141 35.5542C168.141 34.0449 169.375 33.0857 170.588 33.0857C171.886 33.0857 173.078 34.0731 173.078 35.7869H169.156ZM172.14 35.1169C171.992 34.3764 171.336 33.8333 170.609 33.8333C169.876 33.8333 169.326 34.334 169.184 35.1169H172.14Z" fill="black"/>
<path d="M177.867 31.9925H176.95V31.1814H178.798V37.0847H179.658V37.8958H176.95V37.0847H177.867V31.9925Z" fill="black"/>
<path d="M182.007 35.9069C182.113 36.7038 182.578 37.2187 183.213 37.2187C183.918 37.2187 184.574 36.5346 184.574 34.7008C184.151 35.1734 183.566 35.4484 183.001 35.4484C181.922 35.4484 181.132 34.5668 181.132 33.3608C181.132 32.0137 181.972 31.0686 183.156 31.0686C184.609 31.0686 185.463 32.3311 185.463 34.4892C185.463 36.6897 184.581 37.9945 183.1 37.9945C181.965 37.9945 181.224 37.1834 181.182 35.8998H182.007V35.9069ZM183.206 31.8867C182.494 31.8867 182 32.4721 182 33.2973C182 34.059 182.444 34.5598 183.114 34.5598C183.608 34.5598 184.045 34.2918 184.539 33.6923C184.391 32.458 183.961 31.8867 183.206 31.8867Z" fill="black"/>
<path d="M190.526 37.8958H186.238C186.238 36.986 186.556 36.0691 187.346 35.2792C188.382 34.2424 189.539 33.9321 189.539 32.9164C189.539 32.2746 189.102 31.8585 188.453 31.8585C187.522 31.8585 187.296 32.4016 187.296 33.6852H186.408C186.259 31.8656 187.219 31.0756 188.446 31.0756C190.005 31.0756 190.533 32.1054 190.533 32.8953C190.533 33.3819 190.378 33.8333 189.92 34.2918C189.017 35.1875 187.458 35.7517 187.212 37.0424H189.729L189.779 35.4978H190.59L190.526 37.8958Z" fill="black"/>
<path d="M193.679 31.0756C195.139 31.0756 196 32.3593 196 34.5386C196 36.725 195.139 38.0086 193.679 38.0086C192.205 38.0086 191.345 36.725 191.345 34.5386C191.345 32.3593 192.205 31.0756 193.679 31.0756ZM192.304 34.5315C192.304 36.2736 192.706 37.2187 193.665 37.2187C194.504 37.2187 195.04 36.5205 195.04 34.5315C195.04 32.5708 194.526 31.8515 193.665 31.8515C192.713 31.8585 192.304 32.8318 192.304 34.5315Z" fill="black"/>
<path d="M191.218 46.0983C191.564 46.0983 191.895 46.183 192.212 46.3593C192.537 46.5356 192.791 46.7825 192.974 47.1069C193.158 47.4314 193.256 47.7769 193.256 48.1366C193.256 48.7009 193.059 49.1805 192.664 49.5754C192.269 49.9775 191.782 50.1749 191.225 50.1749C190.661 50.1749 190.181 49.9775 189.779 49.5754C189.384 49.1734 189.18 48.6938 189.18 48.1366C189.18 47.7699 189.271 47.4314 189.455 47.1069C189.638 46.7825 189.892 46.5356 190.209 46.3593C190.527 46.183 190.865 46.0983 191.218 46.0983ZM191.218 46.4369C190.936 46.4369 190.654 46.5074 190.386 46.6555C190.118 46.8036 189.906 47.0082 189.751 47.2762C189.596 47.5442 189.518 47.8334 189.518 48.1366C189.518 48.6092 189.688 49.0042 190.019 49.3427C190.35 49.6742 190.752 49.8435 191.225 49.8435C191.698 49.8435 192.093 49.6742 192.431 49.3427C192.763 49.0112 192.932 48.6092 192.932 48.1366C192.932 47.6641 192.763 47.2621 192.431 46.9306C192.1 46.5991 191.683 46.4369 191.218 46.4369ZM190.322 49.2651V47.0716H191.077C191.296 47.0716 191.465 47.0858 191.585 47.114C191.705 47.1422 191.803 47.2057 191.888 47.3114C191.973 47.4172 192.015 47.5301 192.015 47.6641C192.015 47.8193 191.959 47.9603 191.846 48.0802C191.733 48.2001 191.578 48.2706 191.387 48.2848C191.521 48.32 191.691 48.5034 191.895 48.8349L192.163 49.2581H191.733L191.535 48.9125C191.387 48.6515 191.274 48.4893 191.197 48.4258C191.119 48.3623 191.013 48.3271 190.879 48.3271H190.675V49.2581L190.322 49.2651ZM190.675 48.0309H191.105C191.458 48.0309 191.634 47.918 191.634 47.6994C191.634 47.5795 191.592 47.4948 191.507 47.4455C191.423 47.3961 191.281 47.3679 191.077 47.3679H190.675V48.0309Z" fill="black"/>
</g>
<defs>
<clipPath id="clip0">
<rect width="196" height="98" fill="white"/>
</clipPath>
</defs>
</svg>
