<svg width="112" height="41" viewBox="0 0 112 41" fill="none" xmlns="http://www.w3.org/2000/svg">
<path d="M34.7244 7.60975C34.5079 6.75408 34.0311 6.1656 33.5609 5.31331C32.5903 3.58168 31.1326 2.03944 29.8508 1.88387C22.7349 1.01805 25.2478 9.29741 25.8464 13.6062C26.2489 16.4167 27.6795 19.1258 27.25 21.9228C26.6919 25.5348 23.0393 27.1346 21.0371 23.4244C19.8364 21.2227 17.9796 18.517 14.4251 18.517C12.8862 18.517 10.884 19.8834 9.80174 21.1686C9.80174 21.1686 8.81079 22.9577 8.37788 22.0919C7.89086 21.1246 10.7386 18.057 13.6269 17.9184C17.7327 17.7222 21.2129 17.11 18.9368 13.5115C18.3111 12.5205 16.7722 10.8769 15.9335 11.1305C15.0338 11.4045 18.1352 13.5352 17.4351 14.7392C16.735 15.8418 13.8298 15.4393 12.7306 15.3412C9.72734 15.1349 6.72404 15.9432 3.91352 17.7459C-0.473053 20.5327 -1.9747 28.8831 5.42193 30.537C6.86609 31.3825 6.86947 31.7613 6.94388 32.5628C6.41965 33.5402 6.19305 34.3689 6.56846 35.1941C6.94388 36.0193 8.74653 36.6213 10.6236 36.3203C12.0373 36.0937 12.7239 34.7375 12.7306 34.7477C12.9065 35.0284 13.106 35.3294 13.8366 35.6101C14.3371 35.8029 15.1691 35.8265 16.2514 35.5289C16.2514 35.5289 17.0766 36.5199 17.797 36.6112C20.1036 36.9054 20.7327 36.716 21.5207 36.415C22.1701 36.1648 22.3459 35.742 22.3459 35.742C23.7224 36.2933 25.6435 36.2493 26.0561 34.7409C26.3199 33.777 25.1531 33.4388 24.6559 33.2967C24.9637 32.8402 24.4428 31.6057 23.949 31.3385C31.0108 31.9405 31.2341 26.3161 30.9567 22.8224C30.632 18.6421 26.5499 11.7055 27.1519 10.4C28.2781 11.2252 28.7854 10.9749 28.4912 10.2038C28.2409 9.55445 28.0786 8.98626 28.3525 8.39778C28.2544 9.0167 29.4957 10.4406 30.9263 11.0629C31.9781 11.5194 33.2058 11.9219 34.2374 11.0798C35.0457 10.4169 35.1438 9.25345 34.7278 7.60637L34.7244 7.60975Z" fill="#0AA245"/>
<path d="M35.0082 7.53532C34.0612 4.64025 31.8662 1.55578 28.5822 1.68768C26.8438 1.75194 25.491 2.70231 24.9363 4.346C24.2295 6.4429 24.7605 8.96256 25.1224 11.073L25.7413 14.6715C26.2012 16.9612 27.1313 19.0885 27.0231 21.4695C26.9352 23.4548 25.3963 26.0929 23.0762 25.1662C21.561 24.5641 20.9184 22.4977 19.9985 21.2598C18.5171 19.2678 15.7168 17.6748 13.1971 18.615C11.9322 19.0852 10.7146 19.8563 9.80486 20.8709C9.52415 21.1821 9.3246 21.5304 9.06757 21.8619C8.53658 22.5484 8.67186 21.4492 8.70568 21.3512C8.8714 20.8405 9.33813 20.3602 9.69664 19.9882C11.2625 18.3682 13.17 18.1382 15.2906 17.9488C16.5116 17.8439 17.7528 17.6342 18.8486 17.0661C21.1213 15.8891 19.251 13.2443 18.0606 12.0098C17.5296 11.4653 16.7212 10.7821 15.896 11.002C15.3481 11.1508 15.4834 11.5363 15.7235 11.9151C16.383 12.9264 18.6287 14.8609 15.967 15.2938C14.2997 15.5644 12.5207 15.0977 10.833 15.2059C7.87369 15.3885 4.53556 16.6433 2.40146 18.7605C-0.77094 21.9126 -1.07195 27.608 3.13876 29.9451C4.37999 30.6384 6.39571 30.6891 6.62908 32.3937C6.68319 32.7691 6.22999 33.5808 6.12853 33.9833C6.05074 34.2877 6.10485 34.5616 6.13867 34.866C6.2097 35.4917 6.74069 35.8468 7.24462 36.1174C9.03375 37.0745 11.7056 36.4995 12.9705 34.8998L12.4395 35.0047C12.9536 35.7893 13.8093 35.8874 14.7021 35.9178C15.1384 35.9314 15.852 35.7623 16.1733 36.0058C16.5961 36.3203 17.0053 36.6315 17.6073 36.7701C18.8925 37.0779 21.8181 37.2064 22.6027 35.7555L22.1123 35.8874C23.4956 36.3778 25.3219 36.4826 26.1877 35.0791C26.6308 34.3621 26.2182 33.8006 25.606 33.4421C25.1359 33.1682 25.0175 33.2663 25.0175 32.6913C25.0141 32.1468 24.6184 31.5651 24.2092 31.2404L23.8338 31.5042C25.8157 31.6395 28.1054 31.423 29.5597 29.8909C30.9497 28.4265 31.2811 26.4277 31.3116 24.4728C31.3488 21.8822 30.5743 19.4944 29.6476 17.1033L28.0107 13.0109C27.7908 12.436 27.3816 11.5871 27.3681 10.8701C27.3681 10.8362 27.3782 10.8396 27.3985 10.8464C27.8619 10.9952 28.173 11.1981 28.5349 10.9952C28.5924 10.9648 28.5653 10.7348 28.6837 10.5724C28.7784 10.4473 28.8325 10.3458 28.8021 10.241C28.7818 10.17 28.7446 10.011 28.7209 9.94675C28.7209 9.95689 28.7446 9.95689 28.7446 9.95689C29.7761 11.0628 31.7411 11.719 32.9012 11.7359C35.2788 11.7731 35.3972 9.24327 35.0116 7.55561C34.971 7.36959 34.3994 7.51502 34.4434 7.70442C34.6024 8.40451 34.7072 9.05049 34.6599 9.77088C34.5347 11.4991 32.3769 11.4552 31.156 10.9478C30.2428 10.5724 28.66 9.59839 28.6093 8.34702C28.6025 8.161 28.2034 8.2185 28.1324 8.34702C28.014 8.56347 28.031 8.81713 28.102 9.32783C28.1764 9.86896 28.9441 11.3165 27.4256 10.312C27.2767 10.2173 26.9352 10.2782 26.8743 10.4608C26.4278 11.7765 27.7435 13.941 28.217 15.1044C29.164 17.4313 30.1887 19.792 30.6081 22.2914C30.9024 24.0535 30.8279 26.0015 30.3206 27.7095C29.465 30.5707 26.8168 31.3892 24.0671 31.2032C23.9995 31.1998 23.5328 31.3385 23.6917 31.467C24.2227 31.8931 24.6184 32.6744 24.3783 33.3576C24.3648 33.3982 24.3952 33.4388 24.4358 33.4523C25.1122 33.6586 25.8799 33.8886 25.7751 34.8085C25.6161 36.3034 23.5192 35.9753 22.579 35.6405C22.4471 35.5931 22.1664 35.6304 22.0886 35.7724C21.1991 37.4161 17.6412 36.5841 16.5826 35.8028C16.4574 35.7149 16.3763 35.397 16.2173 35.4308C15.0403 35.7081 13.7315 35.7825 13.0009 34.6698C12.9029 34.521 12.5477 34.68 12.47 34.7747C11.2456 36.3271 7.46446 36.9358 6.71701 34.7307C6.39233 33.7634 7.28859 33.1276 7.20742 32.2618C7.14992 31.6801 6.8895 31.3351 6.45321 30.9597C5.35065 30.0127 3.77459 29.9451 2.5841 29.0319C1.53565 28.2236 0.916725 27.0229 0.646157 25.7513C0.108404 23.2181 1.27184 20.4346 3.06097 18.6624C4.55586 17.1743 6.78465 16.3254 8.78009 15.8214C10.7958 15.3141 12.7405 15.6151 14.7664 15.6692C16.4169 15.7098 18.6287 15.1687 17.3774 13.1665C17.0933 12.7167 16.7246 12.3108 16.3932 11.9016C15.5747 10.8633 17.188 11.932 17.5363 12.2533C18.5679 13.2206 20.2048 15.3615 18.8756 16.6805C17.6987 17.8575 15.1824 17.6579 13.674 17.8C12.3482 17.9251 11.1949 18.4493 10.1093 19.2035C9.26373 19.792 8.40129 20.6578 8.07661 21.6555C7.8906 22.2305 8.33703 22.5992 8.86464 22.4571C9.31446 22.3387 9.62899 21.8619 9.87927 21.5067C10.8432 20.1167 12.5883 18.8112 14.32 18.6996C17.3638 18.5034 19.4506 21.1685 20.7595 23.5292C21.5035 24.8787 22.9308 26.1368 24.588 25.6194C26.4887 25.0241 27.3748 23.3094 27.5913 21.4188C27.916 18.6455 26.4786 15.7944 26.0592 13.0853C25.7717 11.2015 25.3659 9.34474 25.234 7.44062C25.1156 5.70222 25.2306 3.48695 26.854 2.44189C30.3071 0.233381 33.5404 4.97507 34.4333 7.71457C34.4908 7.90396 35.0589 7.74501 35.0014 7.56576L35.0082 7.53532Z" fill="#202329"/>
<path d="M30.3572 5.7732C29.6098 5.7732 29.001 4.91077 29.001 3.83865C29.001 2.7699 29.6064 1.90747 30.3572 1.90747C31.1046 1.90747 31.7134 2.7699 31.7134 3.83865C31.7134 4.91077 31.108 5.7732 30.3572 5.7732Z" fill="white"/>
<path d="M31.5721 3.81157C31.5417 4.49476 31.3455 5.16779 30.7469 5.55335C29.6917 6.24668 29.1776 4.55225 29.1471 3.85892C29.1167 3.19603 29.4109 2.48241 29.9724 2.11715C31.0344 1.4272 31.545 3.11825 31.5721 3.81157C31.5822 3.92995 31.8596 3.99421 31.8562 3.86231C31.8224 3.06751 31.4436 1.90746 30.4898 1.8229C29.3771 1.72144 28.9104 2.87473 28.8698 3.81496C28.836 4.60298 29.323 5.77319 30.2362 5.85436C31.3489 5.95582 31.8156 4.80253 31.8562 3.86231C31.8562 3.74393 31.5789 3.67629 31.5721 3.81157Z" fill="#202329"/>
<path d="M30.0971 3.41929C30.1377 3.51737 30.1647 3.63574 30.1647 3.77103C30.1647 4.06527 30.0464 4.3054 29.9009 4.3054C29.7555 4.3054 29.6371 4.06865 29.6371 3.77103C29.6371 3.62898 29.6676 3.50046 29.7115 3.40576C29.3733 3.50722 29.123 3.88602 29.123 4.3426C29.123 4.87359 29.4714 5.30988 29.8976 5.30988C30.3237 5.30988 30.6687 4.87697 30.6687 4.3426C30.6687 3.89955 30.4319 3.5309 30.1106 3.41591L30.0971 3.41929Z" fill="#202329"/>
<path d="M33.1111 5.73939C32.3637 5.73939 31.7549 4.87696 31.7549 3.80821C31.7549 2.73947 32.3569 1.87366 33.1111 1.87366C33.8653 1.87366 34.4673 2.73947 34.4673 3.80821C34.4673 4.87696 33.8619 5.73939 33.1111 5.73939Z" fill="white"/>
<path d="M34.3245 3.77099C34.3009 4.36962 34.1588 4.89046 33.753 5.34367C32.6809 6.55107 31.9334 4.59622 31.8962 3.84202C31.8658 3.26706 32.089 2.6921 32.4678 2.26934C33.5399 1.06194 34.2907 3.02017 34.3245 3.77099C34.3313 3.87245 34.6086 3.9198 34.6086 3.83863C34.5748 3.05399 34.2129 1.9007 33.2592 1.81614C32.1465 1.71468 31.6595 2.8071 31.6189 3.77099C31.585 4.55226 32.0619 5.7157 32.9683 5.79348C34.081 5.89495 34.5681 4.80253 34.6086 3.83863C34.612 3.74055 34.3313 3.6932 34.3245 3.77099Z" fill="#202329"/>
<path d="M32.8537 3.38546C32.9011 3.49707 32.9214 3.61882 32.9214 3.73719C32.9214 4.03144 32.803 4.27156 32.6576 4.27156C32.5121 4.27156 32.3938 4.03482 32.3938 3.73719C32.3938 3.59515 32.4242 3.46663 32.4682 3.37193C32.13 3.47339 31.8797 3.85218 31.8797 4.30877C31.8797 4.83976 32.2247 5.27605 32.6508 5.27605C33.077 5.27605 33.4253 4.84314 33.4253 4.30877C33.4253 3.86571 33.1886 3.50045 32.8673 3.38207L32.8537 3.38546ZM31.1593 1.26827C30.0906 0.422744 28.7749 1.32576 28.2981 2.38774C28.2101 2.59405 28.7005 2.39789 28.7682 2.24569C29.1402 1.4137 29.9857 1.00108 30.7535 1.60648C30.8854 1.71132 31.325 1.3934 31.1593 1.26827ZM32.2788 0.365249C33.2325 -0.561444 34.4095 0.432891 34.8323 1.59633C34.9134 1.82293 34.4738 1.60648 34.4129 1.44075C34.0814 0.527589 33.3238 0.077771 32.6407 0.744043C32.5223 0.859034 32.13 0.507297 32.2788 0.365249ZM19.9172 31.0002C20.8304 31.7071 20.9657 32.8164 20.6072 33.8615C20.5937 33.9088 20.6275 33.9393 20.6647 33.9562C21.314 34.3079 22.5654 35.0824 21.9397 35.9753C21.7977 36.1816 22.3659 36.1241 22.4707 35.9753C23.1032 35.0757 22.1562 34.3248 21.4358 33.8547C21.1517 33.6721 21.3783 32.4985 21.3174 32.1265C21.2295 31.5684 20.8811 31.1118 20.4516 30.777C20.2994 30.662 19.7752 30.8852 19.9172 31.0002ZM10.8363 30.5673C11.9456 31.308 11.8137 32.0047 11.2828 32.9517C11.2625 32.9821 11.2422 33.0295 11.2794 33.0599C11.8983 33.574 12.9197 34.0746 12.3177 35.1704C12.2297 35.3327 12.8351 35.2718 12.8994 35.0892C13.0482 34.6901 12.9637 34.3959 12.8047 34.0001C12.6626 33.6416 11.8273 33.0092 11.9727 32.6676C12.4022 31.6969 12.0437 31.0848 11.2083 30.3475C11.0663 30.2224 10.8262 30.5639 10.8262 30.5639L10.8363 30.5673ZM16.4912 35.7791C16.2071 35.3361 16.3288 34.8423 16.4912 34.3654C16.6569 33.875 15.6964 33.6484 15.8249 33.2831C16.0887 32.5188 15.2466 31.5278 14.5938 31.2505C14.4687 31.1964 14.1169 31.3926 14.1508 31.4061C14.9151 31.7308 15.5949 32.7116 15.3007 33.5571C15.2939 33.5706 15.2939 33.5875 15.3108 33.5909C15.8486 33.9088 16.0718 34.2504 15.9095 34.8626C15.8114 35.2278 15.8215 35.5863 16.0278 35.9076C16.0955 36.0159 16.5284 35.8265 16.4979 35.7825L16.4912 35.7791Z" fill="#202329"/>
<path d="M27.6862 8.73594C27.6693 8.56345 27.693 8.3842 27.7437 8.22525C27.9636 7.59956 28.7076 7.97497 29.0932 8.1576C29.1811 8.19481 29.4179 8.06967 29.4009 8.05614C28.8666 7.80587 28.136 7.54883 27.622 7.9885C27.4089 8.16437 27.3345 8.51949 27.3649 8.81373C27.3717 8.87799 27.693 8.82049 27.6862 8.73594Z" fill="#202329" stroke="#202329" stroke-width="0.4066" stroke-miterlimit="3.4828"/>
<path fill-rule="evenodd" clip-rule="evenodd" d="M46.027 36.4116C45.9187 36.7058 45.7902 36.5401 45.6752 36.628L45.2558 36.7227C45.1983 36.8208 45.1781 36.8411 45.2525 36.7227L44.9582 36.7904C44.8568 36.7802 44.7925 36.7802 44.7519 36.7599L44.6031 36.7904C44.4949 36.8242 44.363 36.8648 44.3089 36.9087C44.3021 36.8986 44.2277 36.8783 44.1837 36.8851L44.0653 36.9087C43.9842 36.9527 43.9571 37.0373 43.8083 37.0339C43.8557 37.0034 43.8759 36.9764 43.8759 36.9527L43.7711 36.9764C43.6358 37.0508 43.4633 37.0846 43.3111 37.1421C43.3416 37.1184 43.3822 37.1015 43.3686 37.0677C43.1759 37.203 42.9865 37.1353 42.8106 37.2368L42.8478 37.1861L42.6888 37.2233C42.6787 37.2605 42.6855 37.3112 42.54 37.318C42.5941 37.2875 42.5738 37.2706 42.5738 37.247L42.5569 37.2537C42.3405 37.4025 41.9583 37.46 41.7317 37.548L41.7385 37.5175C41.4814 37.5885 41.2041 37.619 40.9301 37.7306C40.8557 37.7272 40.8794 37.663 40.8253 37.6427L40.6562 37.6799C40.6359 37.7813 40.2131 37.8185 40.3958 37.9098C40.159 37.9403 39.7769 37.9842 39.6314 38.0587C39.7126 38.0012 39.5604 37.9572 39.6179 37.9098L38.9652 38.0587C38.8603 38.1466 38.7419 38.2345 38.5593 38.2819C38.654 38.2244 38.5458 38.1939 38.5255 38.1567L38.5018 38.1635L38.1839 38.4476C38.0858 38.478 38.1399 38.3597 38.008 38.4172C38.0215 38.4476 37.9641 38.4814 37.9269 38.5152C37.8863 38.5119 37.5278 38.6336 37.4567 38.5321C37.4026 38.4983 37.6089 38.4747 37.4906 38.4544C37.3147 38.4949 37.3147 38.5355 37.1321 38.5795L37.1253 38.566C37.0002 38.5761 36.7871 38.6945 36.9325 38.7317C37.0137 38.7182 36.8852 38.6742 37.0137 38.6742C36.9427 38.7621 36.7397 38.823 36.5605 38.867C36.618 38.8365 36.6011 38.8095 36.618 38.7689C36.459 38.7926 36.1648 38.6979 35.9111 38.7926C35.9314 38.7621 35.9619 38.7148 35.9889 38.7046C35.6406 38.7148 35.3294 38.9549 35.0284 38.9279C35.0453 38.9448 35.0419 38.9921 35.0385 38.9853C34.8661 39.0158 34.8627 38.9346 34.7544 38.9887C34.7342 38.9448 34.6225 39.0361 34.5143 39.0767C34.4771 39.1105 34.4771 39.0868 34.5177 39.0631C34.3114 39.1511 33.7804 39.3269 33.4456 39.3371C33.4591 39.3675 33.2494 39.4994 33.1649 39.513L33.1818 39.4318C33.1513 39.425 33.1141 39.4284 33.0769 39.4385C33.0634 39.4453 33.0465 39.4487 33.0431 39.4453C33.0025 39.4555 32.9619 39.4622 32.9214 39.4622L33.0397 39.425C33.0431 39.4216 33.0397 39.4216 33.0397 39.4183C32.9991 39.4284 32.9586 39.4487 32.9146 39.4622C32.9011 39.4588 32.8842 39.4555 32.8774 39.4453C32.8436 39.4757 32.8605 39.4757 32.9011 39.469C32.7895 39.5163 32.6812 39.5671 32.5561 39.5468C32.6068 39.5468 32.6745 39.4183 32.5358 39.4521C32.299 39.5163 32.4783 39.5028 32.2923 39.5704L32.1739 39.6279C32.1841 39.6956 31.9811 39.6685 32.0555 39.7159C31.9845 39.6956 31.7309 39.8275 31.7309 39.7159L31.741 39.6144C31.6395 39.6449 31.5922 39.7497 31.5246 39.8072C31.5144 39.8004 31.484 39.7937 31.4806 39.7768C31.4907 39.9154 31.2337 39.8173 31.1356 39.9526L30.953 39.9729L30.8583 39.9864L30.8109 39.9966L30.7873 40.0034H30.7737L30.3307 39.7226V39.7193V39.7125C30.3104 39.5941 30.2969 39.4758 30.3273 39.4183C30.2461 39.2627 30.1616 39.124 30.1514 38.9279C30.1751 38.9583 30.1886 39.009 30.2224 39.0158C30.236 38.8873 30.192 38.867 30.1447 38.7621C30.1751 38.7824 30.1751 38.5085 30.192 38.363C30.1108 38.2108 30.05 38.2819 29.9992 38.2751C30.1041 38.0925 29.8064 37.8321 29.891 37.6156C29.9214 37.6697 30.0094 37.8388 30.0161 37.6968C30.121 37.5209 29.8437 37.4161 29.8572 37.1624L29.7557 37.2503C29.8031 37.1252 29.6069 36.9121 29.732 36.9087C29.6745 36.8377 29.7016 36.6145 29.6001 36.6686C29.6035 36.2492 29.3228 35.7182 29.4682 35.4274C29.4378 35.3733 29.4243 35.2312 29.3735 35.2718C29.333 35.38 29.4479 35.3969 29.4107 35.4409C29.3972 35.3902 29.3634 35.3834 29.3465 35.3834C29.3465 35.2549 29.333 35.1534 29.4479 35.2515C29.4581 34.9573 29.1943 35.0114 29.1605 34.6495C29.2112 34.6563 29.218 34.6258 29.1909 34.5244L29.0725 34.3485C29.0387 34.1185 29.1469 34.1963 29.2247 34.1726C29.1841 34.0543 29.1537 33.9088 29.0827 33.8649L29.1402 33.6958C29.0962 33.8141 29.0725 33.6078 29.0387 33.5537L29.0692 33.6044C29.0996 33.574 29.0455 33.4387 29.0184 33.3677C28.9745 33.3981 28.988 33.5436 28.988 33.6247C28.9406 33.5706 28.9305 33.4725 28.8696 33.4015C28.9508 33.4117 28.8798 33.1952 28.8662 33.0937C28.8561 32.9821 28.7681 32.9889 28.7648 32.9551C28.8054 32.9416 28.7343 32.7724 28.8053 32.8469C28.829 32.8807 28.7884 32.9416 28.8358 32.9957C28.8459 32.9145 28.917 32.9077 28.8324 32.7724C28.7749 32.6676 28.6836 32.8299 28.6836 32.6101C28.714 32.6608 28.7479 32.6642 28.7851 32.698L28.7783 32.485L28.7039 32.4951C28.714 32.4647 28.7276 32.4816 28.7343 32.4647C28.6464 32.4241 28.6464 32.1637 28.5483 32.1332C28.5179 32.0352 28.5483 31.91 28.5348 31.8086L28.5449 31.8255C28.5585 31.7003 28.4942 31.5447 28.4266 31.4568L28.4401 31.4602C28.4299 31.3926 28.386 31.2437 28.3217 31.1727C28.3386 30.9968 28.5754 31.0543 28.4468 30.8954C28.4096 30.7297 28.2608 30.6654 28.2304 30.7432C28.2135 30.4354 28.0241 30.1175 28.0647 29.8199C28.0275 29.7861 28.0139 29.8131 27.9767 29.7319C27.9057 29.2889 27.6825 28.8289 27.74 28.4468C27.7975 28.5651 27.8144 28.4366 27.8516 28.4265C27.7637 28.3385 27.8888 28.2878 27.7704 28.2743C27.7129 28.2979 27.6757 28.2946 27.6825 28.4231C27.5946 28.1694 27.4999 27.7737 27.5269 27.6148C27.5134 27.6959 27.4796 27.6452 27.4491 27.5843C27.5506 27.5809 27.5269 27.3882 27.4559 27.2495L27.3916 27.2427L27.4322 27.1311C27.4018 27.0804 27.2902 27.1007 27.3138 26.9417C27.3341 26.9282 27.3578 26.9113 27.3713 26.8842C27.2834 26.7456 27.1515 26.5528 27.165 26.3735L27.2225 26.2213C27.1921 26.1537 27.1177 26.0455 27.1177 26.1774C27.1075 25.8831 27.0771 25.7073 27.1312 25.5956C26.9824 25.3792 26.8674 25.0951 26.7795 24.7941L26.6543 24.3375L26.6002 24.1143L26.5766 24.0061L26.5664 23.9655V23.9621H26.5698L26.6036 23.9046H26.6002H26.6036V23.9012L26.9689 23.3195H26.9993H27.0196L27.05 23.3094L27.0805 23.2789C27.0906 23.2485 27.0906 23.2282 27.1481 23.2316C27.1109 23.2891 27.2834 23.3026 27.1786 23.3804C27.4052 23.3804 27.4424 23.2383 27.5743 23.1876C27.5844 23.1233 27.4728 23.2519 27.4796 23.1707C27.4999 23.1403 27.7873 23.1504 27.8043 23.0523C27.8685 23.0828 27.8381 23.1538 27.8178 23.2011L27.9429 23.1267C28.1256 23.1977 27.6182 23.4007 27.8178 23.4954L27.9362 23.4548C28.0748 23.5224 27.6419 23.6307 27.9531 23.6036C28.0714 23.5258 28.1594 23.3668 28.0309 23.3567C28.2947 23.2688 28.112 23.1098 28.4063 23.0489C28.501 23.0828 28.1695 23.1132 28.2473 23.1775C28.4029 23.218 28.5179 23.0726 28.6464 23.0692C28.4976 23.0658 28.5957 22.9509 28.6802 22.9103C28.8392 22.9204 28.599 23.0185 28.8155 22.9813C28.8392 22.9238 29.0286 22.8325 28.8459 22.8392C28.8967 22.7006 29.0759 22.8223 29.1706 22.7006C29.2586 22.7716 28.9947 22.9441 29.2383 22.9373C29.1808 22.8629 29.5021 22.7615 29.3499 22.6735C29.4479 22.6769 29.475 22.731 29.4175 22.7987C29.5596 22.8223 29.7016 22.5822 29.7794 22.731L29.8098 22.6431C29.8572 22.66 29.9181 22.6668 29.9992 22.6972C30.1176 22.6735 30.3442 22.501 30.3611 22.6296C30.3949 22.6059 30.6621 22.5518 30.537 22.4909C30.3611 22.474 30.3611 22.5924 30.2427 22.501C30.378 22.5687 30.4795 22.4334 30.5607 22.3827L30.5911 22.43C30.6384 22.3996 30.7399 22.3827 30.7839 22.3421C30.7737 22.3658 30.8008 22.3827 30.8414 22.386L30.882 22.2981C31.1018 22.2102 30.9631 22.4165 31.183 22.3421L31.0274 22.4402C31.0612 22.4199 31.1525 22.4706 31.254 22.4232C31.2844 22.3455 31.3419 22.2474 31.3656 22.1865C31.4704 22.1358 31.4468 22.2271 31.5178 22.1764L31.3994 22.2711C31.3825 22.3015 31.5347 22.359 31.7038 22.3184C31.8053 22.2677 31.9473 22.1358 31.7714 22.1358C31.8594 22.1155 31.9845 22.129 31.927 22.1933C32.113 22.1256 31.8864 22.1256 32.0386 22.0445C32.1198 22.0749 32.343 22.0918 32.4817 22.1256L32.3329 22.2778L32.4512 22.2541C32.3261 22.3725 32.5392 22.3049 32.4817 22.4199C32.5629 22.4165 32.6508 22.3624 32.7184 22.3184C32.4546 22.2169 32.9247 22.0546 32.8267 21.9295C33.131 21.8212 33.0972 22.2237 33.3746 21.9328C33.3272 21.9126 33.3948 21.8246 33.334 21.828C33.4287 21.7773 33.3982 21.686 33.5978 21.6893C33.4422 21.7874 33.8142 21.7908 33.5876 21.9261C33.5944 21.8753 33.4388 21.9227 33.4118 21.943C33.4997 21.9768 33.4253 22.0918 33.6248 22.0411C33.7432 22.0005 33.9089 21.9599 33.8683 21.8923C33.8447 21.8111 33.6857 21.943 33.7432 21.8449C33.9799 21.7637 34.0476 21.8753 34.1152 21.7096C33.9664 21.757 33.9089 21.6792 33.8988 21.6285L34.0679 21.554L34.0476 21.6115C34.3418 21.5811 34.1051 21.4932 34.3892 21.4458L34.5414 21.5236C34.494 21.6285 34.1288 21.5743 34.2099 21.7096C34.3926 21.6758 34.4331 21.5913 34.6124 21.5845L34.494 21.642C34.5583 21.6318 34.6699 21.8145 34.8965 21.6386C35.0149 21.5642 34.9202 21.5811 34.91 21.5202C35.1941 21.4391 35.2618 21.3647 35.4478 21.3139C35.4376 21.4323 35.7792 21.2497 35.5966 21.4019C35.4917 21.3613 35.0757 21.4594 34.9946 21.5845C35.1265 21.6893 34.7646 21.6183 34.7308 21.7604C34.9608 21.7096 34.9777 21.8415 35.0352 21.9126C35.0994 21.9024 35.1535 21.8551 35.1874 21.8314C35.1975 21.7502 35.113 21.7739 35.0927 21.6893C35.3565 21.6521 35.5932 21.5507 35.7183 21.4458C35.813 21.4661 35.8063 21.5473 35.7048 21.5777C36.0058 21.4898 36.3339 21.4221 36.6315 21.3782C36.4455 21.3072 36.8074 21.2835 36.8243 21.2294C36.8547 21.2632 36.8885 21.3038 36.8784 21.3477C37.0678 21.2463 36.8852 21.4221 37.0847 21.3782C37.2741 21.2767 37.5109 21.182 37.7341 21.1076C38.0385 21.1381 38.4477 20.9487 38.698 20.8878C38.84 20.9081 38.7791 21.04 38.9212 21.0264C39.0903 20.9892 38.7724 20.9385 39.0294 20.9317L39.0125 20.9622C39.0768 20.9216 39.4353 20.9317 39.5131 20.7863L39.4759 20.8945C39.5232 20.8945 39.5638 20.8573 39.5942 20.837C39.6044 20.8742 39.6652 20.8945 39.5976 20.9419C39.6213 20.9487 39.6416 20.952 39.6652 20.952L39.8411 20.9115C39.9189 20.881 39.9967 20.8337 40.0779 20.8134L39.9527 20.766C40.2233 20.6476 40.4296 20.6781 40.7002 20.5902L40.7069 20.6646L40.8625 20.5834C40.8422 20.6409 40.9504 20.6646 41.0248 20.624L40.9809 20.6544L42.354 20.3433L43.1792 23.9655L43.2672 24.2022C43.2773 24.2327 43.2638 24.2462 43.2435 24.2563L43.3686 24.8144C43.5039 25.2101 43.6054 25.6701 43.673 26.1469L44.5862 30.1818L45.0225 31.7849C45.0022 31.7713 44.9684 31.7612 44.9413 31.768L44.9582 31.8356C45.0259 31.9066 45.0834 32.0724 45.1341 32.2279C45.0631 32.3362 45.293 32.5458 45.2964 32.786L45.2728 32.7724C45.4047 32.9213 45.2728 33.0363 45.4216 33.1479L45.3742 33.273C45.523 33.317 45.3641 33.5334 45.4622 33.6552L45.4926 33.645C45.5501 33.7702 45.5027 33.8513 45.5501 33.9697L45.5399 33.9832C45.638 34.2673 45.6042 34.45 45.7023 34.4195C45.6448 34.5379 45.6042 34.1794 45.5264 34.3214L45.5569 34.45C45.6989 34.8727 45.8207 35.5999 45.9289 36.0395L46.01 36.398L46.027 36.4116ZM39.5435 20.7694L39.5333 20.7998L39.5435 20.7694ZM31.5719 22.1459C31.5618 22.1561 31.5516 22.1628 31.5415 22.1696L31.5719 22.1459ZM30.8278 22.3116C30.8245 22.3218 30.8177 22.3252 30.8143 22.3353C30.8109 22.3252 30.8177 22.3184 30.8278 22.3116ZM27.0095 23.3398C27.0196 23.3296 27.0196 23.3296 27.0095 23.3398V23.3398ZM32.086 39.7328C32.0826 39.7294 32.0758 39.726 32.0758 39.7226C32.0792 39.726 32.0826 39.726 32.086 39.7328ZM35.0183 38.938C35.0284 38.9414 35.0352 38.9414 35.0487 38.9414C35.0419 38.9346 35.0352 38.9346 35.0183 38.938ZM44.3122 36.9155C44.3122 36.9121 44.3156 36.9121 44.319 36.9087C44.3156 36.9121 44.3122 36.9155 44.3122 36.9155ZM33.2866 21.8517C33.3238 21.8348 33.3441 21.828 33.3644 21.8212C33.3475 21.8348 33.3204 21.8415 33.2866 21.8517ZM36.5875 21.0975C36.6856 21.0839 36.5977 21.1516 36.645 21.1685C36.7161 21.1042 36.7938 21.1583 36.8615 21.1583C36.8784 21.1414 36.9088 21.1245 36.963 21.1008C36.9325 21.1448 36.8953 21.1583 36.8615 21.1583C36.8311 21.1888 36.8311 21.2091 36.8446 21.2328C36.8412 21.2328 36.8378 21.2294 36.8344 21.226C36.6687 21.2294 36.5165 21.1719 36.5875 21.0975ZM35.8976 38.8264C35.9077 38.823 35.9179 38.8196 35.928 38.8162C35.9111 38.8332 35.8976 38.8433 35.8976 38.8264ZM40.3789 20.8134L40.4736 20.7931L40.548 20.7457C40.5547 20.7559 40.5581 20.766 40.5581 20.7762L40.7509 20.7322C40.7475 20.7254 40.7408 20.7187 40.734 20.7153C40.6528 20.6679 40.4161 20.7423 40.3789 20.8134ZM39.2256 21.0806C39.2053 21.0839 39.185 21.0839 39.1512 21.0839L39.141 21.1008L39.2256 21.0806ZM26.6408 23.935L26.607 23.9925L26.6408 23.935ZM32.9349 39.4724C32.9281 39.4758 32.9247 39.4791 32.918 39.4791C32.9247 39.4758 32.9281 39.4758 32.9349 39.4724Z" fill="#F10B34"/>
<path fill-rule="evenodd" clip-rule="evenodd" d="M42.1241 35.2955C41.3226 35.495 40.5176 35.0587 40.1625 34.2876L39.4861 34.4297C39.016 34.5311 35.8977 35.2853 35.6102 35.4003C35.5088 36.1241 35.6068 36.8276 34.6531 37.2266C33.165 37.8523 32.5224 36.8512 32.174 35.884C31.9305 35.2109 31.9812 34.5886 32.1639 34.1895C32.3634 33.7465 32.8268 33.5774 32.8403 33.5131C32.8403 33.5131 34.0951 27.7703 37.1592 24.0263C37.2844 23.8775 37.3892 23.8031 37.5583 23.7896C37.6834 23.7795 37.8526 23.8708 37.9405 23.9316C38.7928 24.5303 39.6281 25.1526 40.45 25.7952C40.6056 25.9203 40.7239 25.944 40.7239 26.2179C40.7239 26.4344 40.494 26.5122 40.494 26.5122L41.4612 30.3982C41.4612 30.3982 42.1377 30.175 42.5706 30.5166C43.2774 31.0746 43.3079 32.3632 43.4026 33.0396C43.5514 34.061 43.0542 35.0486 42.1241 35.2786V35.2955ZM38.5898 31.9032L37.6462 28.6125C36.4828 30.1276 35.8571 31.5177 35.7692 32.7792L38.5831 31.9032H38.5898Z" fill="#202329"/>
<path fill-rule="evenodd" clip-rule="evenodd" d="M41.4169 35.2617C40.6153 35.4612 39.8104 35.0182 39.4553 34.2403L38.7788 34.3891C38.3087 34.4906 35.1904 35.2549 34.9064 35.3733C34.8049 36.1106 34.8996 36.8175 33.9492 37.2233C32.4577 37.8558 31.8185 36.8411 31.4668 35.8671C31.2233 35.1907 31.2774 34.5582 31.4566 34.1591C31.6562 33.7093 32.1195 33.5402 32.133 33.4726C32.133 33.4726 33.3844 27.6723 36.4486 23.8877C36.5737 23.7389 36.6786 23.651 36.8477 23.651C36.9897 23.6476 37.1419 23.7321 37.2298 23.793C37.8319 24.2124 39.1441 25.2 39.7394 25.6768C39.8949 25.802 40.0167 25.8257 40.0167 26.103C40.0167 26.3262 39.7799 26.404 39.7799 26.404L40.7472 30.3374C40.7472 30.3374 41.4236 30.1074 41.8599 30.4557C42.5668 31.0239 42.5972 32.3193 42.6919 33.0058C42.8407 34.0374 42.3469 35.0385 41.4135 35.2718L41.4169 35.2617ZM37.8826 31.8255L36.9356 28.1965C35.7755 29.7286 35.1566 31.4366 35.0721 32.7116L37.8826 31.8255Z" fill="white" stroke="#202329" stroke-width="0.4467" stroke-miterlimit="3.4828" stroke-linejoin="round"/>
<path d="M29.7967 25.3657C29.401 25.3657 29.0898 25.0477 29.0898 24.652C29.0898 24.2597 29.4044 23.9452 29.7967 23.9452C30.1856 23.9452 30.5036 24.2631 30.5036 24.652C30.5036 25.0477 30.189 25.3657 29.7967 25.3657ZM40.4063 23.3229C40.014 23.3229 39.6995 23.005 39.6995 22.6093C39.6995 22.2135 40.0174 21.8956 40.4063 21.8956C40.7953 21.8956 41.1132 22.2135 41.1132 22.6093C41.1132 23.005 40.7953 23.3229 40.4063 23.3229Z" fill="white" stroke="#202329" stroke-width="0.3404" stroke-miterlimit="3.4828"/>
<path d="M40.8283 22.7548C38.4676 19.42 36.4417 16.18 33.4384 13.038C33.1746 12.7641 32.7316 12.2128 32.1938 11.6547C32.0687 11.6311 31.9368 11.604 31.8116 11.5736C31.7913 11.5702 31.7711 11.5668 31.7541 11.56C31.4903 11.4958 31.2198 11.4112 30.9458 11.3098C30.9289 11.303 30.912 11.2996 30.8883 11.2895C30.611 11.188 30.337 11.0629 30.0732 10.9242C30.0597 10.9141 30.0428 10.9107 30.0327 10.9039C29.7689 10.7551 29.5118 10.5995 29.2784 10.4237C29.2683 10.4169 29.2582 10.4101 29.248 10.4C29.1296 10.312 29.0214 10.2173 28.9166 10.1193C28.876 10.1497 28.8354 10.1768 28.7982 10.2173C28.832 10.3425 28.8861 10.542 28.8489 10.6469C28.7914 10.8396 28.6561 10.9276 28.531 10.9851C28.4938 11.002 28.4532 11.0155 28.4194 11.0257C28.0474 12.6524 28.6122 15.7065 28.6392 16.4336C28.7407 19.1122 29.3157 21.9498 29.4949 24.6251C29.505 24.8009 29.6133 25.0208 29.7891 25.0309C30.1882 25.0546 30.151 24.6183 30.151 24.6183C30.0631 23.5935 29.6133 20.4583 29.4509 18.5136C29.2751 16.4066 28.3315 12.0775 29.0688 11.0527C29.8331 9.99413 32.4441 12.8858 33.3742 13.9004C35.9073 16.6568 37.8791 19.7548 40.0301 22.7852C40.0673 22.8427 40.4326 23.0016 40.5611 22.9915C40.7607 22.978 40.9061 22.8664 40.8249 22.7548H40.8283Z" fill="white"/>
<path d="M40.9163 22.6296C38.5556 19.3016 36.5635 16.092 33.5535 12.9365C33.3133 12.693 32.9041 12.1925 32.4205 11.6716C32.2581 11.6514 32.0856 11.6141 31.9132 11.5702C32.5152 12.1722 33.0495 12.8283 33.337 13.1395C36.2862 16.2307 38.2918 19.42 40.6187 22.7108C40.639 22.7412 40.7066 22.8461 40.6187 22.907C40.4935 22.9949 40.338 22.9272 40.1486 22.6837C38.0077 19.6635 36.0258 16.5588 33.4926 13.7956C33.0969 13.3627 32.3968 12.5882 31.6595 11.9219C31.3957 11.6852 31.1285 11.445 30.8647 11.2523C30.4521 11.0933 30.0632 10.9107 29.6877 10.6739C29.6438 10.6672 29.5829 10.6672 29.5389 10.6638C29.3157 10.6604 29.0959 10.7585 28.9572 10.958C28.7205 11.2962 28.6528 11.8407 28.6494 12.5172C28.6528 14.2995 29.1804 17.0018 29.3089 18.5204C29.4713 20.4651 29.9211 23.6003 30.009 24.6149C30.009 24.6149 30.0496 24.855 29.8264 24.8719C29.6505 24.8821 29.6505 24.6656 29.6438 24.6081C29.4679 21.916 28.8896 19.0852 28.7881 16.4201C28.7644 15.8485 28.4397 13.9884 28.4397 12.4157C28.433 11.8509 28.4871 11.303 28.5919 10.9141C28.5717 10.9242 28.5514 10.9445 28.5344 10.9546C28.4398 10.9986 28.3518 11.0223 28.2639 11.029C28.1827 11.4315 28.1523 11.9321 28.1455 12.4225C28.1489 14.0222 28.477 15.9162 28.4972 16.437C28.6021 19.1359 29.1737 21.9735 29.3529 24.6318C29.3732 24.8483 29.4814 25.1324 29.7892 25.1763C30.0902 25.173 30.1714 25.0749 30.2526 24.97C30.3168 24.8821 30.31 24.7062 30.31 24.6453C30.31 24.3646 29.7689 20.4346 29.6032 18.5001C29.4713 16.9612 28.9437 14.2589 28.9437 12.5205C28.9403 11.8712 29.0316 11.3537 29.194 11.1373C29.2819 11.0121 29.3834 10.9716 29.5355 10.9682C29.9685 10.9546 30.743 11.4856 31.46 12.1451C32.1837 12.8013 32.8804 13.569 33.2728 14.0019C35.789 16.7482 37.7676 19.8394 39.9152 22.8731C40.0031 22.9712 40.2027 23.2113 40.5037 23.1978C40.6795 23.1877 40.9603 23.049 40.9738 22.8528C40.9738 22.7987 40.9433 22.6702 40.9197 22.633L40.9163 22.6296Z" fill="#202329"/>
<path d="M28.21 11.2793C28.3486 10.4338 28.7984 10.1192 29.228 10.1294C29.715 10.1362 30.1242 10.4541 30.1344 10.4608L29.9585 10.6976C29.9585 10.6976 29.8706 10.6299 29.7285 10.5623C29.5865 10.4913 29.4038 10.427 29.228 10.427C28.9405 10.4372 28.6496 10.5589 28.5008 11.3334L28.21 11.2793ZM51.5295 33.9664C51.4855 33.8209 51.4517 33.6721 51.4348 33.5233L51.3536 32.5594C51.2893 32.0758 51.1777 31.8221 51.0222 31.8018C50.8598 31.7714 50.569 31.9912 50.1462 32.4512L48.9557 33.733C48.5127 34.2031 48.1609 34.4331 47.9073 34.4331C47.5555 34.4331 47.2444 33.6687 47.0009 32.1434C46.781 30.7872 46.7066 29.661 46.7946 28.7647C46.852 28.183 46.9704 27.882 47.1632 27.8685C47.4371 27.838 47.6401 28.0612 47.7754 28.5347L48.1 29.8504C48.2184 30.3306 48.3638 30.5674 48.5431 30.5674C48.719 30.5674 49.0741 30.3306 49.5915 29.8707L51.0289 28.5516C51.5633 28.0815 51.9725 27.8448 52.2363 27.8448C52.2803 27.8448 52.3209 27.8549 52.3615 27.8718C52.5745 27.9598 52.6862 28.4434 52.6929 29.316C52.7031 29.8064 52.676 30.3509 52.6185 30.9665C52.5576 31.5786 52.4731 32.1908 52.3581 32.7962C52.1653 33.7973 51.9827 34.291 51.8034 34.291C51.6918 34.291 51.6005 34.1828 51.5295 33.9664ZM53.7549 34.3587C53.5148 34.3113 53.4032 33.8649 53.4133 33.0228C53.4167 32.5527 53.4573 32.0284 53.5317 31.4501C53.623 30.8075 53.7448 30.1683 53.9037 29.5358C54.1472 28.4908 54.3907 27.9361 54.6207 27.8718C54.6444 27.8651 54.6714 27.8617 54.7019 27.8617C54.8778 27.8617 55.0266 28.0477 55.1314 28.4164L55.4256 29.4479C55.544 29.8233 55.73 30.0127 55.9803 30.0195C56.3557 30.0296 56.6331 30.0229 56.8123 29.9958C56.9408 29.9721 57.0964 29.918 57.2824 29.8402C57.4481 29.7624 57.5665 29.5561 57.6342 29.2112L57.7897 28.3217C57.8844 28.0207 58.04 27.8685 58.2531 27.8617C58.4932 27.8515 58.7536 28.3927 59.0174 29.475C59.2711 30.4761 59.4334 31.5008 59.4977 32.5324C59.5281 33.0397 59.518 33.4455 59.4774 33.7499C59.43 34.1017 59.3387 34.3046 59.1967 34.3519C59.1459 34.3655 59.102 34.3756 59.058 34.3756C58.8382 34.3756 58.6454 34.193 58.4898 33.8311L58.0332 32.6913C57.8405 32.2212 57.6375 31.8965 57.4278 31.7274C57.0863 31.4501 56.7852 31.3148 56.5282 31.3148C56.2644 31.3148 55.9566 31.4974 55.5981 31.8627C55.4629 31.998 55.2836 32.3193 55.0638 32.8165C54.8203 33.3677 54.6309 33.7398 54.499 33.9359C54.2994 34.2302 54.0863 34.379 53.8631 34.379C53.8259 34.3756 53.7887 34.3688 53.7549 34.3587Z" fill="#202329"/>
<path fill-rule="evenodd" clip-rule="evenodd" d="M66.4618 29.3362C66.2994 30.5436 65.9917 31.6157 65.5385 32.5593C64.9804 33.7295 64.3412 34.3315 63.6242 34.3755C63.171 34.406 62.6535 34.0339 62.082 33.2696C61.6457 32.698 61.3075 32.1197 61.0673 31.5278C60.7224 30.689 60.5905 29.9585 60.6716 29.3396C60.746 28.8018 61.1722 28.396 61.9602 28.1423C62.5149 27.9563 63.1169 27.865 63.7696 27.865C64.419 27.865 64.9973 27.9529 65.5013 28.1423C66.2149 28.4027 66.5328 28.8052 66.4618 29.3362ZM64.1281 30.3779C64.1586 30.158 64.118 29.972 64.0098 29.8232C63.9049 29.6744 63.746 29.6068 63.5295 29.6068C63.313 29.6068 63.1338 29.6812 62.9782 29.83C62.826 29.9754 62.7279 30.1682 62.7009 30.3779C62.6434 30.8243 62.7178 31.1963 62.9376 31.4974C63.1101 31.7341 63.2894 31.8491 63.4889 31.8491C63.5194 31.8491 63.543 31.8457 63.5532 31.8389C63.746 31.7747 63.8981 31.5549 63.9962 31.1896C64.03 31.0543 64.0774 30.7871 64.1281 30.3813V30.3779Z" fill="#202329"/>
<path d="M67.2498 34.3789C66.9657 34.433 66.8202 33.946 66.8135 32.9178C66.8135 32.2516 66.8473 31.6293 66.9318 31.0475C67.013 30.4286 67.128 29.8841 67.2734 29.3971C67.5034 28.6327 67.7875 28.1558 68.1122 27.9698C68.2407 27.8988 68.3625 27.865 68.4808 27.865C68.8123 27.865 69.1167 28.1153 69.394 28.6158L70.1076 29.9889C70.3714 30.4793 70.6082 30.7127 70.8043 30.689C71.0276 30.6586 71.3117 30.4083 71.6532 29.9247L72.5867 28.582C72.9351 28.1051 73.2124 27.865 73.4288 27.865C73.51 27.865 73.5912 27.9022 73.6656 27.9766C73.997 28.3419 74.2744 29.255 74.5077 30.7161C74.7276 32.0757 74.7952 33.0869 74.7073 33.7431C74.6498 34.1658 74.5145 34.3789 74.3048 34.3789C74.0647 34.3789 73.8043 34.1827 73.5235 33.7904L72.7829 32.6912C72.5123 32.2922 72.2925 32.096 72.12 32.096C71.9373 32.096 71.7446 32.2719 71.5315 32.6337C71.3928 32.8773 71.1798 33.2358 70.899 33.7126C70.6555 34.1117 70.3917 34.3316 70.1144 34.3755C69.8438 34.4161 69.6511 34.2369 69.5394 33.8378L69.2756 32.6135C69.1573 32.1433 68.9915 31.8626 68.7683 31.7882C68.7142 31.7781 68.6804 31.7713 68.6669 31.7713C68.4707 31.7713 68.305 31.9878 68.1731 32.4207L67.8247 33.6382C67.6759 34.088 67.4865 34.3349 67.2498 34.3789Z" fill="#202329"/>
<path fill-rule="evenodd" clip-rule="evenodd" d="M75.4817 34.2606C75.4039 34.2301 75.3938 34.0543 75.431 33.7465C75.5054 33.1817 75.7049 32.4579 76.0195 31.5718C76.3712 30.6113 76.7568 29.7861 77.1694 29.1029C77.6463 28.3081 78.0825 27.8955 78.4647 27.8583C78.8909 27.8143 79.3948 28.2472 79.9765 29.1536C80.4703 29.918 80.91 30.848 81.2921 31.9202C81.6676 32.9551 81.8231 33.6721 81.7758 34.0712C81.7453 34.2707 81.6371 34.3722 81.4443 34.3722C81.2482 34.3722 80.9438 34.1659 80.5244 33.7702C80.0814 33.3406 79.7837 33.0971 79.6214 33.0329C79.5165 32.9923 79.3576 32.9246 79.158 32.8266C78.9957 32.7555 78.8334 32.7217 78.6676 32.7217C78.3836 32.7217 77.9912 32.8266 77.4704 33.0295C77.1254 33.1681 76.8007 33.3542 76.5065 33.5841C76.4253 33.6518 76.2461 33.8141 75.9755 34.0745C75.8267 34.2166 75.7117 34.2876 75.6102 34.2876C75.5629 34.2876 75.5155 34.2775 75.4716 34.2538L75.4817 34.2606ZM77.9676 30.0431C77.9101 30.4625 77.9236 30.8176 78.0014 31.1085C78.0386 31.2505 78.1197 31.3215 78.228 31.3215C78.3362 31.3215 78.4884 31.2539 78.671 31.1152C78.83 31.007 78.9585 30.8954 79.06 30.7736C79.0803 30.7533 79.0904 30.7161 79.0972 30.6755C79.1208 30.4997 79.0397 30.2291 78.8435 29.8672C78.6507 29.5087 78.4749 29.3329 78.3125 29.3329C78.14 29.3329 78.025 29.5696 77.9608 30.0397L77.9676 30.0431Z" fill="#202329"/>
<path d="M83.2334 34.3789C82.9493 34.433 82.8038 33.946 82.7971 32.9178C82.7937 32.2516 82.8343 31.6293 82.9154 31.0475C82.9966 30.4286 83.1116 29.8841 83.257 29.3971C83.4938 28.6327 83.7677 28.1558 84.0958 27.9698C84.2209 27.8988 84.3461 27.865 84.4644 27.865C84.7959 27.865 85.1003 28.1153 85.3776 28.6158L86.0912 29.9889C86.355 30.4793 86.5918 30.7127 86.7879 30.689C87.0111 30.6586 87.2952 30.4083 87.6368 29.9247L88.5703 28.582C88.9153 28.1051 89.196 27.865 89.409 27.865C89.497 27.865 89.5748 27.9022 89.6458 27.9766C89.9772 28.3419 90.258 29.255 90.4879 30.7161C90.7112 32.0757 90.7822 33.0869 90.6942 33.7431C90.6368 34.1658 90.5015 34.3789 90.2918 34.3789C90.0516 34.3789 89.7912 34.1827 89.5105 33.7904L88.7732 32.6912C88.4993 32.2922 88.2727 32.096 88.1036 32.096C87.9277 32.096 87.7282 32.2719 87.5218 32.6337L86.8894 33.7126C86.6425 34.1117 86.3821 34.3316 86.1048 34.3755C85.8342 34.4161 85.6414 34.2369 85.5298 33.8378L85.266 32.6135C85.1476 32.1433 84.9819 31.8626 84.7587 31.7882C84.7046 31.7781 84.6707 31.7713 84.6572 31.7713C84.4611 31.7713 84.2953 31.9878 84.1634 32.4207L83.8151 33.6382C83.673 34.0914 83.4836 34.3383 83.2503 34.3823L83.2334 34.3789Z" fill="#202329"/>
<path fill-rule="evenodd" clip-rule="evenodd" d="M91.4623 34.2606C91.3879 34.2301 91.3744 34.0543 91.4116 33.7465C91.4894 33.1817 91.6855 32.4579 92.0068 31.5718C92.3586 30.6113 92.7374 29.7861 93.1567 29.1029C93.637 28.3081 94.0699 27.8955 94.4521 27.8583C94.8782 27.8143 95.3822 28.2472 95.9605 29.1536C96.4543 29.918 96.8973 30.848 97.2795 31.9202C97.6549 32.9551 97.8105 33.6721 97.7598 34.0712C97.7293 34.2707 97.6245 34.3722 97.4351 34.3722C97.2389 34.3722 96.9278 34.1659 96.5118 33.7702C96.0687 33.3406 95.7745 33.0971 95.6121 33.0329C95.5039 32.9923 95.3483 32.9246 95.1488 32.8266C94.9864 32.7555 94.8241 32.7217 94.6584 32.7217C94.3743 32.7217 93.982 32.8266 93.4645 33.0295C93.1195 33.1648 92.7949 33.3508 92.5006 33.5841C92.4127 33.6518 92.2402 33.8141 91.9696 34.0745C91.8208 34.2166 91.7058 34.2876 91.6077 34.2876C91.5604 34.2876 91.5097 34.2775 91.4657 34.2538L91.4623 34.2606ZM93.9515 30.0431C93.894 30.4625 93.9076 30.8176 93.982 31.1085C94.0226 31.2505 94.1003 31.3215 94.212 31.3215C94.3236 31.3215 94.4724 31.2539 94.655 31.1152C94.814 31.007 94.9425 30.8954 95.0473 30.7736C95.0642 30.7533 95.0778 30.7161 95.0845 30.6755C95.1082 30.4997 95.027 30.2291 94.8309 29.8672C94.6381 29.5087 94.4622 29.3329 94.2999 29.3329C94.1274 29.3329 94.0158 29.5696 93.9482 30.0397L93.9515 30.0431Z" fill="#202329"/>
<path d="M99.4806 34.4229C99.4502 34.4331 99.4231 34.4398 99.4062 34.4398C99.2303 34.4398 99.0646 34.22 98.9293 33.7702C98.811 33.3745 98.767 33.0633 98.7974 32.8367C98.8279 32.6439 98.9598 32.5526 99.2033 32.5526C99.6159 32.5526 99.9304 32.7014 100.15 32.999C100.225 33.0971 100.252 33.2189 100.231 33.3745C100.208 33.5605 100.12 33.7566 99.9676 33.9697C99.8188 34.176 99.6565 34.3316 99.4806 34.4229Z" fill="#202329"/>
<path d="M51.1235 34.1186C51.0796 33.9731 51.0457 33.8243 51.0288 33.6755L50.9477 32.7116C50.8834 32.228 50.7718 31.9743 50.6162 31.954C50.4539 31.9236 50.163 32.1434 49.7403 32.6034L48.5498 33.8852C48.1067 34.3553 47.755 34.5853 47.5013 34.5853C47.1496 34.5853 46.8418 33.8209 46.5949 32.2956C46.3751 30.9394 46.3007 29.8132 46.3886 28.9169C46.4427 28.3352 46.5645 28.0342 46.7573 28.0207C47.0312 27.9902 47.2341 28.2134 47.3694 28.6869L47.6941 30.0059C47.8125 30.4828 47.9579 30.7229 48.1371 30.7229C48.3164 30.7229 48.6681 30.4862 49.1856 30.0262L50.623 28.7072C51.1573 28.2371 51.5666 28.0004 51.8304 28.0004C51.8744 28.0004 51.9149 28.0105 51.9555 28.0274C52.172 28.1154 52.2802 28.6024 52.287 29.4716C52.2937 29.962 52.2701 30.5065 52.2092 31.122C52.1551 31.7004 52.0705 32.3091 51.9521 32.9484C51.7594 33.9495 51.5767 34.45 51.3975 34.45C51.2859 34.4432 51.1946 34.3384 51.1235 34.1186ZM53.3422 34.5075C53.1054 34.4602 52.9904 34.0137 53.0006 33.1716C53.0074 32.7015 53.0479 32.1772 53.1257 31.5989C53.217 30.9563 53.3388 30.3171 53.4978 29.6846C53.7446 28.6396 53.9848 28.0849 54.2148 28.0207C54.2384 28.0139 54.2655 28.0105 54.2959 28.0105C54.4718 28.0105 54.6206 28.1965 54.7255 28.5652L55.0197 29.5967C55.1381 29.9721 55.3275 30.1615 55.5777 30.1683C55.9532 30.1784 56.2305 30.1717 56.4097 30.1446C56.5383 30.1209 56.6938 30.0668 56.8798 29.989C57.0456 29.9112 57.1606 29.7049 57.2316 29.36L57.3905 28.4705C57.4785 28.1695 57.6374 28.0173 57.8539 28.0105C58.0906 28.0004 58.3477 28.5415 58.6182 29.6238C58.8719 30.6249 59.0342 31.6496 59.0985 32.6812C59.1289 33.1885 59.1188 33.5943 59.0816 33.8987C59.0309 34.2505 58.9395 34.4534 58.7975 34.5007C58.7468 34.5143 58.6994 34.5244 58.6588 34.5244C58.4424 34.5244 58.2462 34.3418 58.0906 33.9799L57.6341 32.8401C57.4413 32.37 57.2383 32.0453 57.0287 31.8796C56.6871 31.5989 56.3861 31.4602 56.129 31.4602C55.8652 31.4602 55.5575 31.6429 55.199 32.0081C55.0637 32.1434 54.8878 32.4647 54.6646 32.9653C54.4211 33.5132 54.2317 33.8886 54.0998 34.0847C53.9002 34.379 53.6872 34.5278 53.4639 34.5278C53.4267 34.5278 53.3895 34.521 53.3523 34.5109L53.3422 34.5075Z" fill="white" stroke="#202329" stroke-width="0.5503" stroke-miterlimit="3.4828"/>
<path fill-rule="evenodd" clip-rule="evenodd" d="M66.0521 29.4885C65.8932 30.696 65.582 31.7681 65.1322 32.7117C64.5742 33.8819 63.9349 34.4839 63.2179 34.5279C62.7647 34.5583 62.2507 34.1863 61.6757 33.4219C61.2394 32.8503 60.9012 32.272 60.6611 31.6801C60.3161 30.8414 60.1842 30.1108 60.2654 29.4919C60.3398 28.9542 60.7659 28.5483 61.554 28.2947C62.1086 28.1087 62.7106 28.0173 63.3634 28.0173C64.0127 28.0173 64.5911 28.1053 65.095 28.2947C65.8086 28.5551 66.1265 28.9576 66.0521 29.4885ZM63.7185 30.5302C63.7489 30.3104 63.7084 30.1244 63.6001 29.9756C63.4953 29.8268 63.3363 29.7591 63.1199 29.7591C62.9034 29.7591 62.7242 29.8335 62.5686 29.9823C62.413 30.1311 62.3217 30.3138 62.2912 30.5302C62.2338 30.9767 62.3082 31.3487 62.528 31.6497C62.7005 31.8864 62.8797 32.0014 63.0793 32.0014C63.1097 32.0014 63.1334 31.9981 63.1435 31.9913C63.3363 31.927 63.4851 31.7072 63.5866 31.3419C63.6204 31.2066 63.6678 30.9395 63.7185 30.5336V30.5302Z" fill="#0AA245" stroke="#202329" stroke-width="0.5503" stroke-miterlimit="3.4828"/>
<path d="M66.8434 34.5244C66.5593 34.5785 66.4139 34.0915 66.4004 33.0633C66.4004 32.3971 66.4376 31.7748 66.5188 31.193C66.5999 30.5741 66.7149 30.0296 66.8604 29.5426C67.0971 28.7782 67.3744 28.3014 67.6991 28.1153C67.8276 28.0443 67.9494 28.0105 68.0678 28.0105C68.3992 28.0105 68.7036 28.2608 68.9809 28.7613L69.6945 30.1345C69.9584 30.6249 70.1951 30.8582 70.3913 30.8345C70.6145 30.8041 70.8986 30.5505 71.2402 30.0702L72.1736 28.7275C72.522 28.2506 72.7993 28.0105 73.0158 28.0105C73.0969 28.0105 73.1781 28.0477 73.2525 28.1221C73.584 28.4874 73.8613 29.4005 74.0913 30.8616C74.3145 32.2212 74.3855 33.2324 74.2976 33.8886C74.2401 34.3113 74.1048 34.5244 73.8951 34.5244C73.655 34.5244 73.3946 34.3282 73.1138 33.9359L72.3765 32.8367C72.1026 32.441 71.8828 32.2483 71.7103 32.2483C71.5276 32.2483 71.3349 32.4241 71.1218 32.786C70.9831 33.0295 70.7701 33.388 70.4893 33.8649C70.2458 34.264 69.982 34.4838 69.7047 34.5278C69.4307 34.5684 69.238 34.3891 69.1264 33.99L68.8626 32.7657C68.7442 32.2956 68.5785 32.0149 68.3552 31.9405C68.3011 31.9303 68.2673 31.927 68.2538 31.927C68.0576 31.927 67.8919 32.1434 67.76 32.5763L67.4116 33.7939C67.2696 34.2471 67.0802 34.494 66.8536 34.5379L66.8434 34.5244Z" fill="#F10B34" stroke="#202329" stroke-width="0.492" stroke-miterlimit="3.4828"/>
<path fill-rule="evenodd" clip-rule="evenodd" d="M75.0755 34.4094C74.9977 34.3789 74.9808 34.2031 75.0248 33.8953C75.0992 33.3305 75.2987 32.6067 75.6133 31.7206C75.965 30.7601 76.3506 29.9349 76.7632 29.2517C77.2434 28.4569 77.6764 28.0443 78.0585 28.0071C78.4847 27.9631 78.9886 28.396 79.5703 29.3024C80.0641 30.0735 80.5038 30.9968 80.886 32.069C81.2614 33.1039 81.417 33.8209 81.3696 34.22C81.3392 34.4195 81.2309 34.521 81.0382 34.521C80.842 34.521 80.5376 34.3214 80.1182 33.919C79.6752 33.4928 79.3775 33.2459 79.2152 33.1817C79.1104 33.1411 78.9548 33.0734 78.7519 32.9821C78.5929 32.9077 78.4272 32.8739 78.2615 32.8739C77.9774 32.8739 77.5783 32.9787 77.0676 33.1817C76.7158 33.3237 76.3912 33.5064 76.1003 33.7363C76.0191 33.804 75.8399 33.9663 75.5693 34.2267C75.4205 34.3688 75.3055 34.4432 75.2074 34.4432C75.1702 34.4364 75.1263 34.4263 75.0755 34.4094ZM77.5614 30.1919C77.5039 30.6113 77.5174 30.9664 77.5952 31.2573C77.6324 31.3993 77.7136 31.4703 77.8218 31.4703C77.93 31.4703 78.0822 31.4027 78.2648 31.264C78.4238 31.1558 78.5523 31.0442 78.6538 30.9224C78.6741 30.9021 78.6842 30.8683 78.691 30.8244C78.7147 30.6485 78.6335 30.3779 78.4373 30.016C78.2412 29.6541 78.0687 29.4817 77.9063 29.4817C77.7339 29.4817 77.6189 29.7184 77.5546 30.1885L77.5614 30.1919Z" fill="#F10B34" stroke="#202329" stroke-width="0.492" stroke-miterlimit="3.4828"/>
<path d="M82.8271 34.5244C82.543 34.5785 82.3976 34.0915 82.3908 33.0633C82.3874 32.3971 82.428 31.7748 82.5092 31.193C82.5904 30.5741 82.7054 30.0296 82.8508 29.5426C83.0808 28.7782 83.3615 28.3014 83.6895 28.1153C83.8147 28.0443 83.9398 28.0105 84.0582 28.0105C84.3896 28.0105 84.694 28.2608 84.9714 28.7613L85.685 30.1345C85.9488 30.6249 86.1855 30.8582 86.3817 30.8345C86.6049 30.8041 86.889 30.5505 87.2306 30.0702L88.1641 28.7275C88.509 28.2506 88.7897 28.0105 89.0028 28.0105C89.0908 28.0105 89.1685 28.0477 89.2396 28.1221C89.571 28.4874 89.8517 29.4005 90.0817 30.8616C90.3049 32.2212 90.3759 33.2324 90.288 33.8886C90.2305 34.3113 90.0952 34.5244 89.8855 34.5244C89.6454 34.5244 89.385 34.3282 89.1043 33.9359L88.367 32.8367C88.093 32.441 87.8664 32.2483 87.6973 32.2483C87.5215 32.2483 87.3219 32.4241 87.1156 32.786L86.4832 33.8649C86.2363 34.264 85.9758 34.4838 85.6985 34.5278C85.4279 34.5684 85.2352 34.3891 85.1202 33.99L84.8564 32.7657C84.7448 32.2956 84.5757 32.0149 84.3558 31.9405C84.3017 31.9303 84.2679 31.927 84.2544 31.927C84.0582 31.927 83.8925 32.1434 83.7606 32.5763L83.4122 33.7939C83.2702 34.2471 83.0808 34.494 82.8474 34.5379L82.8271 34.5244Z" fill="#F10B34" stroke="#202329" stroke-width="0.492" stroke-miterlimit="3.4828"/>
<path fill-rule="evenodd" clip-rule="evenodd" d="M91.0561 34.4094C90.9817 34.3789 90.9681 34.2031 91.0053 33.8953C91.0831 33.3305 91.2793 32.6067 91.604 31.7206C91.9523 30.7601 92.3311 29.9349 92.7539 29.2517C93.2341 28.4569 93.667 28.0443 94.0492 28.0071C94.4754 27.9631 94.9793 28.396 95.5576 29.3024C96.0514 30.0735 96.4945 30.9968 96.8766 32.069C97.252 33.1039 97.4076 33.8209 97.3569 34.22C97.3264 34.4195 97.2216 34.521 97.0322 34.521C96.836 34.521 96.5249 34.3214 96.1089 33.919C95.6659 33.4928 95.3716 33.2459 95.2093 33.1817C95.0537 33.1174 94.8981 33.0531 94.7459 32.9821C94.5904 32.9111 94.4246 32.8739 94.2555 32.8739C93.9714 32.8739 93.5791 32.9787 93.0616 33.1817C92.7099 33.3237 92.3852 33.5064 92.0978 33.7363C92.0098 33.804 91.8373 33.9663 91.5668 34.2267C91.418 34.3688 91.2962 34.4432 91.2015 34.4432C91.1575 34.4398 91.1136 34.4297 91.0595 34.4094H91.0561ZM93.5453 30.1919C93.4878 30.6113 93.5013 30.9664 93.5757 31.2573C93.6163 31.3993 93.6941 31.4703 93.8057 31.4703C93.9173 31.4703 94.0661 31.4027 94.2488 31.264C94.4077 31.1558 94.5362 31.0442 94.6411 30.9224C94.658 30.9021 94.6715 30.8683 94.6783 30.8244C94.702 30.6485 94.6208 30.3779 94.4246 30.016C94.2285 29.6541 94.056 29.4817 93.8936 29.4817C93.7245 29.4817 93.6095 29.7184 93.5419 30.1885L93.5453 30.1919Z" fill="#F10B34" stroke="#202329" stroke-width="0.492" stroke-miterlimit="3.4828"/>
<path d="M99.0753 34.5718C99.0449 34.5819 99.0178 34.5887 99.0009 34.5887C98.8251 34.5887 98.6593 34.3655 98.524 33.9191C98.4057 33.5234 98.3617 33.2122 98.3922 32.9856C98.4226 32.7928 98.5545 32.6981 98.798 32.6981C99.2106 32.6981 99.5252 32.8469 99.745 33.1479C99.8194 33.246 99.8464 33.3678 99.8262 33.5234C99.8025 33.706 99.7145 33.9055 99.5624 34.1118C99.4135 34.3283 99.2512 34.4771 99.0753 34.5718Z" fill="#0AA245" stroke="#202329" stroke-width="0.5024" stroke-miterlimit="3.4828"/>
<path fill-rule="evenodd" clip-rule="evenodd" d="M104.415 31.8762C103.445 32.0487 102.491 32.8638 102.278 33.6383C102.071 34.4128 101.953 34.8558 101.483 34.8558C101.013 34.8558 100.874 34.8558 100.925 33.8919L101.114 29.458C101.114 29.458 100.986 28.139 102.687 28.2607C104.659 28.4028 105.971 29.0758 106.326 30.1615C106.678 31.2438 105.362 31.7105 104.425 31.8762H104.415ZM104.368 30.3035C104.392 29.8571 103.945 29.6271 103.455 29.5967C102.586 29.5493 102.704 30.1852 102.704 30.1852C102.633 30.6079 103.012 30.9123 103.36 30.9123C103.715 30.9123 104.348 30.7466 104.368 30.3035Z" fill="#202329"/>
<path fill-rule="evenodd" clip-rule="evenodd" d="M104.074 31.582C103.103 31.7545 102.149 32.5696 101.94 33.3441C101.73 34.1186 101.608 34.5616 101.145 34.5616C100.675 34.5616 100.533 34.5616 100.58 33.5977L100.769 29.1638C100.769 29.1638 100.641 27.8448 102.342 27.9666C104.314 28.1086 105.626 28.7816 105.981 29.8673C106.333 30.9462 105.014 31.4163 104.074 31.582ZM104.026 30.0093C104.05 29.5663 103.604 29.3329 103.113 29.3025C102.244 29.2551 102.362 29.891 102.362 29.891C102.291 30.3137 102.67 30.6181 103.022 30.6181C103.374 30.6181 104.006 30.4524 104.026 30.0093Z" fill="#0AA245" stroke="#202329" stroke-width="0.5555" stroke-miterlimit="3.4828"/>
<path d="M106.438 28.9C106.374 28.7343 106.198 28.3251 106.519 28.1932C106.942 28.0207 108.149 29.6644 108.579 30.1176C109.022 30.5708 109.55 30.5877 110.067 29.8538C110.585 29.1165 110.899 28.4908 111.176 28.4096C111.46 28.3318 111.589 28.7715 111.538 29.7422C111.491 30.7128 110.05 33.2765 108.251 34.5008C106.455 35.7183 106.797 34.1423 107.338 33.4828C107.886 32.8266 108.214 32.3092 107.997 31.9033C107.777 31.4975 106.638 29.431 106.431 28.9H106.438Z" fill="#202329"/>
<path d="M105.954 28.67C105.897 28.5043 105.717 28.0951 106.035 27.9632C106.458 27.7873 107.665 29.4344 108.102 29.8876C108.538 30.3408 109.072 30.3577 109.586 29.6238C110.104 28.8865 110.418 28.2642 110.699 28.1796C110.98 28.0984 111.105 28.5381 111.058 29.5122C111.01 30.4828 109.569 33.0464 107.77 34.2708C105.974 35.4883 106.316 33.9089 106.864 33.2528C107.412 32.5966 107.74 32.0792 107.52 31.6699C107.3 31.2641 106.16 29.1976 105.954 28.6666V28.67Z" fill="#0AA245" stroke="#202329" stroke-width="0.5555" stroke-miterlimit="3.4828"/>
<path d="M49.4499 12.7424C49.4499 12.9642 49.4056 13.1589 49.3169 13.3265C49.2281 13.4941 49.1049 13.6346 48.9472 13.748C48.7944 13.8613 48.6144 13.9476 48.4074 14.0068C48.2053 14.0659 47.9884 14.0955 47.7568 14.0955H45.2207V8.84591H48.0303C48.2127 8.84591 48.3778 8.88534 48.5257 8.96421C48.6736 9.04307 48.7993 9.14659 48.9028 9.27475C49.0063 9.39797 49.0852 9.54092 49.1394 9.70358C49.1986 9.86132 49.2281 10.0215 49.2281 10.1842C49.2281 10.4405 49.164 10.682 49.0359 10.9088C48.9077 11.1306 48.7204 11.2957 48.474 11.4042C48.7746 11.4929 49.0112 11.6531 49.1838 11.8847C49.3612 12.1115 49.4499 12.3974 49.4499 12.7424ZM48.4222 12.5502C48.4222 12.4565 48.405 12.3678 48.3705 12.284C48.3409 12.1953 48.299 12.1189 48.2448 12.0548C48.1905 11.9907 48.1265 11.9414 48.0525 11.9069C47.9786 11.8675 47.8972 11.8478 47.8085 11.8478H46.241V13.2304H47.7568C47.8504 13.2304 47.9367 13.2132 48.0156 13.1787C48.0993 13.1442 48.1708 13.0973 48.23 13.0382C48.2891 12.9741 48.3359 12.9002 48.3705 12.8164C48.405 12.7326 48.4222 12.6438 48.4222 12.5502ZM46.241 9.71837V11.0419H47.6015C47.774 11.0419 47.9194 10.9827 48.0377 10.8644C48.161 10.7461 48.2226 10.5834 48.2226 10.3764C48.2226 10.1743 48.1659 10.0141 48.0525 9.89582C47.9441 9.77752 47.8085 9.71837 47.6459 9.71837H46.241Z" fill="#0AA245"/>
<path d="M50.2384 10.2211H51.2218V11.4485H51.8724C52.0844 11.4485 52.2791 11.4781 52.4566 11.5372C52.6389 11.5915 52.7967 11.6753 52.9298 11.7886C53.0628 11.8971 53.1664 12.0351 53.2403 12.2027C53.3192 12.3653 53.3586 12.5527 53.3586 12.7646C53.3586 12.9815 53.3216 13.1737 53.2477 13.3413C53.1737 13.504 53.0702 13.642 52.9371 13.7554C52.809 13.8687 52.6562 13.955 52.4787 14.0142C52.3062 14.0684 52.1164 14.0955 51.9094 14.0955H50.2384V10.2211ZM53.78 10.2211H54.756V14.0955H53.78V10.2211ZM51.8059 13.3191C51.9735 13.3191 52.1066 13.2748 52.2052 13.1861C52.3037 13.0924 52.353 12.9568 52.353 12.7794C52.353 12.6019 52.3013 12.4664 52.1978 12.3727C52.0943 12.2742 51.9636 12.2249 51.8059 12.2249H51.2218V13.3191H51.8059Z" fill="#0AA245"/>
<path d="M57.5901 9.78492C57.2795 9.85392 57.0331 9.98701 56.8507 10.1842C56.6733 10.3813 56.5525 10.6648 56.4884 11.0345C56.6412 10.8472 56.8261 10.7042 57.0429 10.6056C57.2598 10.5021 57.5038 10.4504 57.7749 10.4504C58.0115 10.4504 58.2333 10.4972 58.4404 10.5908C58.6474 10.6845 58.8273 10.8126 58.9801 10.9753C59.1378 11.138 59.2611 11.3302 59.3498 11.552C59.4435 11.7738 59.4903 12.0129 59.4903 12.2692C59.4903 12.5354 59.4435 12.7843 59.3498 13.016C59.2611 13.2477 59.1305 13.4498 58.9579 13.6223C58.7903 13.7899 58.5833 13.923 58.3369 14.0215C58.0904 14.1201 57.8119 14.1694 57.5014 14.1694C56.8606 14.1694 56.375 13.9698 56.0448 13.5705C55.7145 13.1663 55.5494 12.5773 55.5494 11.8034C55.5494 11.3647 55.5913 10.9827 55.6751 10.6574C55.7589 10.3271 55.8846 10.0486 56.0522 9.82188C56.2247 9.59021 56.4367 9.4029 56.688 9.25996C56.9444 9.11701 57.2401 9.00857 57.5753 8.93463L59.0097 8.6167L59.0762 9.4522L57.5901 9.78492ZM56.5623 12.247C56.5623 12.4097 56.587 12.5576 56.6363 12.6907C56.6856 12.8238 56.7521 12.9396 56.8359 13.0382C56.9197 13.1318 57.0208 13.2058 57.1391 13.26C57.2574 13.3142 57.388 13.3413 57.5309 13.3413C57.8119 13.3413 58.0386 13.2452 58.2112 13.053C58.3837 12.8558 58.4699 12.597 58.4699 12.2766C58.4699 11.9809 58.3812 11.7418 58.2038 11.5594C58.0263 11.3721 57.7922 11.2785 57.5014 11.2785C57.2253 11.2785 56.9986 11.3672 56.8211 11.5446C56.6486 11.7221 56.5623 11.9562 56.5623 12.247Z" fill="#0AA245"/>
<path d="M61.1716 12.6833L63.0053 10.2211H63.7373V14.0955H62.7539V11.6999L60.9424 14.0955H60.1882V10.2211H61.1716V12.6833Z" fill="#0AA245"/>
<path d="M66.9938 14.1694C66.6882 14.1694 66.422 14.1029 66.1953 13.9698C65.9685 13.8318 65.7911 13.6469 65.6629 13.4153V15.6704H64.6722V10.2211H65.5372V10.8866C65.6802 10.6598 65.865 10.4824 66.0918 10.3542C66.3185 10.2211 66.5798 10.1546 66.8755 10.1546C67.1368 10.1546 67.3783 10.2088 67.6001 10.3173C67.8219 10.4208 68.0117 10.5637 68.1694 10.7461C68.3321 10.9236 68.4578 11.1355 68.5465 11.382C68.6402 11.6235 68.687 11.8798 68.687 12.1509C68.687 12.4319 68.6451 12.6956 68.5613 12.9421C68.4775 13.1885 68.3592 13.4029 68.2064 13.5853C68.0585 13.7677 67.8811 13.9106 67.674 14.0142C67.467 14.1177 67.2403 14.1694 66.9938 14.1694ZM66.6611 13.3265C66.809 13.3265 66.9445 13.2945 67.0677 13.2304C67.1959 13.1663 67.3043 13.0801 67.3931 12.9716C67.4818 12.8632 67.5508 12.7375 67.6001 12.5945C67.6494 12.4516 67.674 12.3037 67.674 12.1509C67.674 11.9883 67.6469 11.8379 67.5927 11.6999C67.5385 11.557 67.4621 11.4337 67.3635 11.3302C67.2698 11.2267 67.1565 11.1454 67.0234 11.0862C66.8952 11.0271 66.7547 10.9975 66.6019 10.9975C66.5083 10.9975 66.4122 11.0147 66.3136 11.0493C66.215 11.0788 66.1238 11.1232 66.04 11.1823C65.9562 11.2415 65.8798 11.3105 65.8108 11.3894C65.7467 11.4682 65.6974 11.5545 65.6629 11.6481V12.5576C65.7517 12.7794 65.8872 12.9642 66.0696 13.1121C66.252 13.2551 66.4491 13.3265 66.6611 13.3265Z" fill="#0AA245"/>
<path d="M70.408 14.1694C70.2207 14.1694 70.0457 14.1398 69.883 14.0807C69.7204 14.0166 69.5799 13.9304 69.4616 13.8219C69.3433 13.7085 69.2496 13.5779 69.1806 13.43C69.1166 13.2822 69.0845 13.1195 69.0845 12.9421C69.0845 12.7597 69.1239 12.5921 69.2028 12.4393C69.2866 12.2815 69.4 12.1485 69.5429 12.04C69.6908 11.9316 69.8658 11.8478 70.0679 11.7886C70.27 11.7245 70.4918 11.6925 70.7333 11.6925C70.9058 11.6925 71.0734 11.7073 71.2361 11.7369C71.4037 11.7664 71.5516 11.8083 71.6797 11.8626V11.6408C71.6797 11.3844 71.6058 11.1873 71.4579 11.0493C71.315 10.9112 71.1005 10.8422 70.8147 10.8422C70.6076 10.8422 70.4055 10.8792 70.2084 10.9531C70.0112 11.0271 69.8091 11.1355 69.6021 11.2785L69.2989 10.65C69.7968 10.3197 70.3341 10.1546 70.9108 10.1546C71.4678 10.1546 71.8991 10.2926 72.2047 10.5687C72.5152 10.8398 72.6705 11.2341 72.6705 11.7517V12.9568C72.6705 13.0604 72.6877 13.1343 72.7222 13.1787C72.7617 13.223 72.8233 13.2477 72.9071 13.2526V14.0955C72.7395 14.13 72.5941 14.1472 72.4709 14.1472C72.2836 14.1472 72.1381 14.1053 72.0346 14.0215C71.936 13.9378 71.8744 13.8268 71.8498 13.6888L71.8276 13.4744C71.6551 13.7012 71.4456 13.8737 71.1991 13.992C70.9527 14.1103 70.689 14.1694 70.408 14.1694ZM70.689 13.4448C70.8566 13.4448 71.0143 13.4153 71.1622 13.3561C71.315 13.297 71.4333 13.2181 71.5171 13.1195C71.6255 13.0357 71.6797 12.9421 71.6797 12.8385V12.3949C71.5614 12.3506 71.4333 12.3161 71.2953 12.2914C71.1572 12.2618 71.0241 12.247 70.896 12.247C70.6397 12.247 70.4302 12.3062 70.2675 12.4245C70.1049 12.5379 70.0235 12.6833 70.0235 12.8607C70.0235 13.0283 70.0876 13.1688 70.2158 13.2822C70.3439 13.3906 70.5017 13.4448 70.689 13.4448Z" fill="#0AA245"/>
<path d="M75.4075 14.1694C75.0969 14.1694 74.816 14.1177 74.5646 14.0142C74.3132 13.9057 74.0988 13.7603 73.9213 13.5779C73.7439 13.3955 73.6058 13.1836 73.5073 12.9421C73.4136 12.7005 73.3668 12.4467 73.3668 12.1805C73.3668 11.9045 73.4136 11.6457 73.5073 11.4042C73.6009 11.1577 73.7365 10.9433 73.9139 10.7609C74.0914 10.5736 74.3058 10.4257 74.5572 10.3173C74.8135 10.2088 75.0994 10.1546 75.4149 10.1546C75.7303 10.1546 76.0113 10.2088 76.2577 10.3173C76.5091 10.4257 76.7211 10.5711 76.8936 10.7535C77.0711 10.9359 77.2041 11.1478 77.2929 11.3894C77.3865 11.6309 77.4334 11.8823 77.4334 12.1435C77.4334 12.2076 77.4309 12.2692 77.426 12.3284C77.426 12.3875 77.421 12.4368 77.4112 12.4762H74.4167C74.4315 12.6291 74.4685 12.7646 74.5276 12.8829C74.5868 13.0012 74.6632 13.1023 74.7568 13.1861C74.8505 13.2698 74.9564 13.3339 75.0747 13.3783C75.193 13.4227 75.3163 13.4448 75.4444 13.4448C75.6416 13.4448 75.8264 13.398 75.999 13.3044C76.1764 13.2058 76.2972 13.0776 76.3613 12.9199L77.2115 13.1565C77.0686 13.4522 76.8394 13.6962 76.5239 13.8885C76.2134 14.0758 75.8412 14.1694 75.4075 14.1694ZM76.413 11.833C76.3884 11.5422 76.2799 11.3105 76.0877 11.138C75.9004 10.9605 75.6712 10.8718 75.4001 10.8718C75.267 10.8718 75.1413 10.8964 75.023 10.9457C74.9096 10.9901 74.8086 11.0542 74.7198 11.138C74.6311 11.2218 74.5572 11.3228 74.498 11.4411C74.4438 11.5594 74.4118 11.69 74.4019 11.833H76.413Z" fill="#0AA245"/>
<path d="M80.2181 12.284L81.3641 10.2211H82.3771V14.0955H81.4307V11.7664L80.4473 13.5114H79.9815L78.9981 11.7664V14.0955H78.0517V10.2211H79.0721L80.2181 12.284Z" fill="#0AA245"/>
<path d="M84.6778 13.2526C84.8208 13.2427 84.9366 13.2132 85.0253 13.1639C85.119 13.1146 85.1954 13.0234 85.2545 12.8903C85.3186 12.7572 85.3704 12.5748 85.4098 12.3432C85.4542 12.1066 85.4985 11.7985 85.5429 11.4189L85.676 10.2211H88.3895V14.0955H87.4061V11.0493H86.541L86.4671 11.6334C86.408 12.1213 86.3365 12.5255 86.2527 12.8459C86.1689 13.1614 86.0604 13.4128 85.9274 13.6001C85.7992 13.7874 85.639 13.9205 85.4468 13.9994C85.2545 14.0733 85.0179 14.1152 84.737 14.1251L84.6778 13.2526Z" fill="#0AA245"/>
<path d="M89.419 14.7905C89.5028 14.8398 89.5817 14.8743 89.6556 14.894C89.7345 14.9137 89.8084 14.9236 89.8774 14.9236C90.0007 14.9236 90.1066 14.862 90.1954 14.7387C90.2841 14.6204 90.363 14.406 90.432 14.0955L88.9014 10.2211H89.9218L90.9717 13.2378L91.9033 10.2211H92.8349L91.3118 14.5983C91.1639 15.0222 90.9816 15.3253 90.7647 15.5077C90.5527 15.6901 90.2915 15.7813 89.9809 15.7813C89.8676 15.7813 89.7665 15.7714 89.6778 15.7517C89.5891 15.732 89.5028 15.695 89.419 15.6408V14.7905Z" fill="#0AA245"/>
<path d="M96.2494 14.0955H95.2808V12.7128C95.1675 12.7523 95.0492 12.7819 94.9259 12.8016C94.8076 12.8213 94.6573 12.8312 94.4749 12.8312C94.2531 12.8312 94.0609 12.7966 93.8982 12.7276C93.7355 12.6537 93.6 12.5576 93.4915 12.4393C93.3831 12.3161 93.3018 12.1731 93.2475 12.0104C93.1933 11.8478 93.1662 11.6728 93.1662 11.4855V10.2211H94.12V11.3376C94.12 11.5939 94.1718 11.7763 94.2753 11.8847C94.3788 11.9932 94.5242 12.0474 94.7115 12.0474C94.8495 12.0474 94.9629 12.0351 95.0516 12.0104C95.1453 11.9809 95.2217 11.9439 95.2808 11.8995V10.2211H96.2494V14.0955Z" fill="#0AA245"/>
<path d="M97.1788 14.0955V10.2211H98.1621V13.2378H99.2416V10.2211H100.225V13.2378H101.305V10.2211H102.288V14.0955H97.1788Z" fill="#0AA245"/>
<path d="M105.004 14.1694C104.694 14.1694 104.413 14.1177 104.161 14.0142C103.91 13.9057 103.696 13.7603 103.518 13.5779C103.341 13.3955 103.203 13.1836 103.104 12.9421C103.01 12.7005 102.964 12.4467 102.964 12.1805C102.964 11.9045 103.01 11.6457 103.104 11.4042C103.198 11.1577 103.333 10.9433 103.511 10.7609C103.688 10.5736 103.903 10.4257 104.154 10.3173C104.41 10.2088 104.696 10.1546 105.012 10.1546C105.327 10.1546 105.608 10.2088 105.854 10.3173C106.106 10.4257 106.318 10.5711 106.49 10.7535C106.668 10.9359 106.801 11.1478 106.89 11.3894C106.983 11.6309 107.03 11.8823 107.03 12.1435C107.03 12.2076 107.028 12.2692 107.023 12.3284C107.023 12.3875 107.018 12.4368 107.008 12.4762H104.013C104.028 12.6291 104.065 12.7646 104.124 12.8829C104.184 13.0012 104.26 13.1023 104.354 13.1861C104.447 13.2698 104.553 13.3339 104.672 13.3783C104.79 13.4227 104.913 13.4448 105.041 13.4448C105.238 13.4448 105.423 13.398 105.596 13.3044C105.773 13.2058 105.894 13.0776 105.958 12.9199L106.808 13.1565C106.665 13.4522 106.436 13.6962 106.121 13.8885C105.81 14.0758 105.438 14.1694 105.004 14.1694ZM106.01 11.833C105.985 11.5422 105.877 11.3105 105.684 11.138C105.497 10.9605 105.268 10.8718 104.997 10.8718C104.864 10.8718 104.738 10.8964 104.62 10.9457C104.506 10.9901 104.405 11.0542 104.317 11.138C104.228 11.2218 104.154 11.3228 104.095 11.4411C104.041 11.5594 104.009 11.69 103.999 11.833H106.01Z" fill="#0AA245"/>
<path d="M109.43 14.1694C109.12 14.1694 108.839 14.1177 108.587 14.0142C108.336 13.9057 108.122 13.7603 107.944 13.5779C107.767 13.3955 107.629 13.1836 107.53 12.9421C107.437 12.7005 107.39 12.4467 107.39 12.1805C107.39 11.9045 107.437 11.6457 107.53 11.4042C107.624 11.1577 107.759 10.9433 107.937 10.7609C108.114 10.5736 108.329 10.4257 108.58 10.3173C108.836 10.2088 109.122 10.1546 109.438 10.1546C109.753 10.1546 110.034 10.2088 110.281 10.3173C110.532 10.4257 110.744 10.5711 110.917 10.7535C111.094 10.9359 111.227 11.1478 111.316 11.3894C111.409 11.6309 111.456 11.8823 111.456 12.1435C111.456 12.2076 111.454 12.2692 111.449 12.3284C111.449 12.3875 111.444 12.4368 111.434 12.4762H108.44C108.454 12.6291 108.491 12.7646 108.551 12.8829C108.61 13.0012 108.686 13.1023 108.78 13.1861C108.873 13.2698 108.979 13.3339 109.098 13.3783C109.216 13.4227 109.339 13.4448 109.467 13.4448C109.665 13.4448 109.849 13.398 110.022 13.3044C110.199 13.2058 110.32 13.0776 110.384 12.9199L111.234 13.1565C111.092 13.4522 110.862 13.6962 110.547 13.8885C110.236 14.0758 109.864 14.1694 109.43 14.1694ZM110.436 11.833C110.411 11.5422 110.303 11.3105 110.111 11.138C109.923 10.9605 109.694 10.8718 109.423 10.8718C109.29 10.8718 109.164 10.8964 109.046 10.9457C108.933 10.9901 108.831 11.0542 108.743 11.138C108.654 11.2218 108.58 11.3228 108.521 11.4411C108.467 11.5594 108.435 11.69 108.425 11.833H110.436Z" fill="#0AA245"/>
<path d="M51.2193 20.6784H51.4263C51.5446 20.6636 51.6408 20.6267 51.7147 20.5675C51.7936 20.5034 51.8601 20.4048 51.9143 20.2718C51.9735 20.1337 52.0203 19.9514 52.0548 19.7246C52.0942 19.4979 52.1337 19.2095 52.1731 18.8595L52.3062 17.6617H55.0197V20.6784H55.5373V22.6452H54.6574V21.5361H52.0696V22.6452H51.2193V20.6784ZM54.0363 20.6784V18.4899H53.1713L53.0973 19.074C53.048 19.4732 52.9864 19.7986 52.9125 20.0499C52.8435 20.3013 52.7547 20.5108 52.6463 20.6784H54.0363Z" fill="#0AA245"/>
<path d="M55.8175 20.6932C55.9605 20.6833 56.0763 20.6538 56.165 20.6045C56.2587 20.5552 56.3351 20.464 56.3943 20.3309C56.4583 20.1978 56.5101 20.0154 56.5495 19.7838C56.5939 19.5472 56.6382 19.2391 56.6826 18.8595L56.8157 17.6617H59.5292V21.5361H58.5458V18.4899H57.6808L57.6068 19.074C57.5477 19.5619 57.4762 19.9661 57.3924 20.2865C57.3086 20.602 57.2002 20.8534 57.0671 21.0407C56.9389 21.228 56.7787 21.3611 56.5865 21.44C56.3943 21.5139 56.1577 21.5558 55.8767 21.5657L55.8175 20.6932Z" fill="#0AA245"/>
<path d="M61.1207 20.0647C60.889 19.9809 60.7066 19.8478 60.5735 19.6655C60.4404 19.4831 60.3739 19.244 60.3739 18.9483C60.3739 18.7511 60.4084 18.5736 60.4774 18.4159C60.5464 18.2533 60.6425 18.1177 60.7658 18.0093C60.889 17.8959 61.0344 17.8096 61.202 17.7505C61.3745 17.6864 61.5594 17.6544 61.7565 17.6544H63.5163V21.5361H62.5403V20.2274H62.0153L61.2094 21.5361H60.1447L61.1207 20.0647ZM62.5403 19.4732V18.4381H61.8748C61.7467 18.4381 61.6308 18.4849 61.5273 18.5786C61.4238 18.6673 61.3721 18.7955 61.3721 18.9631C61.3721 19.1208 61.4189 19.2465 61.5125 19.3401C61.6111 19.4289 61.727 19.4732 61.86 19.4732H62.5403Z" fill="#0AA245"/>
<path d="M68.524 17.6617C68.667 17.6617 68.7976 17.6889 68.9159 17.7431C69.0342 17.7924 69.1352 17.8614 69.219 17.9501C69.3078 18.0388 69.3743 18.1423 69.4187 18.2606C69.468 18.3789 69.4926 18.5046 69.4926 18.6377C69.4926 18.8053 69.4483 18.9754 69.3595 19.1479C69.2708 19.3155 69.1254 19.4412 68.9233 19.525C69.15 19.5891 69.3275 19.7 69.4556 19.8577C69.5887 20.0105 69.6553 20.22 69.6553 20.4862C69.6553 20.8411 69.532 21.1048 69.2856 21.2773C69.0391 21.4498 68.699 21.5361 68.2652 21.5361H66.232V17.6617H68.524ZM68.0582 19.281C68.1962 19.281 68.3071 19.2416 68.3909 19.1627C68.4747 19.0838 68.5166 18.9704 68.5166 18.8226C68.5166 18.6993 68.4797 18.5958 68.4057 18.512C68.3367 18.4233 68.2307 18.3789 68.0878 18.3789H67.2153V19.281H68.0582ZM68.1913 20.8189C68.3343 20.8189 68.4476 20.7721 68.5314 20.6784C68.6201 20.5848 68.6645 20.4714 68.6645 20.3383C68.6645 20.2003 68.6226 20.0869 68.5388 19.9982C68.455 19.9045 68.3417 19.8577 68.1987 19.8577H67.2153V20.8189H68.1913Z" fill="#0AA245"/>
<path d="M71.3828 21.61C71.1955 21.61 71.0205 21.5805 70.8578 21.5213C70.6951 21.4572 70.5547 21.371 70.4364 21.2625C70.3181 21.1491 70.2244 21.0185 70.1554 20.8706C70.0913 20.7228 70.0593 20.5601 70.0593 20.3827C70.0593 20.2003 70.0987 20.0327 70.1776 19.8799C70.2614 19.7221 70.3747 19.5891 70.5177 19.4806C70.6656 19.3722 70.8406 19.2884 71.0427 19.2292C71.2447 19.1652 71.4666 19.1331 71.7081 19.1331C71.8806 19.1331 72.0482 19.1479 72.2109 19.1775C72.3785 19.207 72.5263 19.2489 72.6545 19.3032V19.0814C72.6545 18.825 72.5806 18.6279 72.4327 18.4899C72.2897 18.3518 72.0753 18.2828 71.7894 18.2828C71.5824 18.2828 71.3803 18.3198 71.1831 18.3937C70.986 18.4677 70.7839 18.5761 70.5768 18.7191L70.2737 18.0906C70.7715 17.7603 71.3088 17.5952 71.8855 17.5952C72.4425 17.5952 72.8738 17.7332 73.1795 18.0093C73.49 18.2804 73.6453 18.6747 73.6453 19.1923V20.3974C73.6453 20.501 73.6625 20.5749 73.697 20.6193C73.7364 20.6636 73.7981 20.6883 73.8819 20.6932V21.5361C73.7143 21.5706 73.5689 21.5878 73.4456 21.5878C73.2583 21.5878 73.1129 21.5459 73.0094 21.4621C72.9108 21.3784 72.8492 21.2674 72.8246 21.1294L72.8024 20.915C72.6298 21.1418 72.4204 21.3143 72.1739 21.4326C71.9274 21.5509 71.6637 21.61 71.3828 21.61ZM71.6637 20.8854C71.8313 20.8854 71.9891 20.8559 72.1369 20.7967C72.2897 20.7376 72.408 20.6587 72.4918 20.5601C72.6003 20.4763 72.6545 20.3827 72.6545 20.2791V19.8355C72.5362 19.7912 72.408 19.7567 72.27 19.732C72.132 19.7024 71.9989 19.6876 71.8708 19.6876C71.6144 19.6876 71.4049 19.7468 71.2423 19.8651C71.0796 19.9785 70.9983 20.1239 70.9983 20.3013C70.9983 20.4689 71.0624 20.6094 71.1905 20.7228C71.3187 20.8312 71.4764 20.8854 71.6637 20.8854Z" fill="#0AA245"/>
<path d="M74.6003 21.5361V17.6617H75.5837V20.6784H76.6632V17.6617H77.6466V20.6784H78.7261V17.6617H79.7094V21.5361H74.6003Z" fill="#0AA245"/>
<path d="M81.6272 20.1239L83.4609 17.6617H84.1929V21.5361H83.2095V19.1405L81.398 21.5361H80.6439V17.6617H81.6272V20.1239Z" fill="#0AA245"/>
<path d="M85.7267 17.6617L86.5622 18.8743L86.6213 19.0074L86.6953 18.8743L87.5234 17.6617H88.5437L87.1611 19.6063L88.5659 21.5361H87.5456L86.6879 20.3309L86.6213 20.2052L86.5622 20.3309L85.7119 21.5361H84.6916L86.089 19.6063L84.7137 17.6617H85.7267Z" fill="#0AA245"/>
<path d="M90.4771 20.6784H90.6841C90.8024 20.6636 90.8985 20.6267 90.9724 20.5675C91.0513 20.5034 91.1179 20.4048 91.1721 20.2718C91.2312 20.1337 91.2781 19.9514 91.3126 19.7246C91.352 19.4979 91.3914 19.2095 91.4309 18.8595L91.5639 17.6617H94.2775V20.6784H94.795V22.6452H93.9152V21.5361H91.3274V22.6452H90.4771V20.6784ZM93.2941 20.6784V18.4899H92.429L92.3551 19.074C92.3058 19.4732 92.2442 19.7986 92.1702 20.0499C92.1012 20.3013 92.0125 20.5108 91.9041 20.6784H93.2941Z" fill="#0AA245"/>
<path d="M97.2205 21.61C96.91 21.61 96.629 21.5583 96.3776 21.4548C96.1263 21.3463 95.9118 21.2009 95.7344 21.0185C95.5569 20.8361 95.4189 20.6242 95.3203 20.3827C95.2267 20.1411 95.1799 19.8873 95.1799 19.6211C95.1799 19.3451 95.2267 19.0863 95.3203 18.8448C95.414 18.5983 95.5495 18.3839 95.727 18.2015C95.9044 18.0142 96.1189 17.8663 96.3703 17.7579C96.6266 17.6494 96.9125 17.5952 97.2279 17.5952C97.5434 17.5952 97.8244 17.6494 98.0708 17.7579C98.3222 17.8663 98.5342 18.0117 98.7067 18.1941C98.8841 18.3765 99.0172 18.5884 99.106 18.83C99.1996 19.0715 99.2464 19.3229 99.2464 19.5841C99.2464 19.6482 99.244 19.7098 99.239 19.769C99.239 19.8281 99.2341 19.8774 99.2243 19.9169H96.2298C96.2446 20.0697 96.2815 20.2052 96.3407 20.3235C96.3998 20.4418 96.4762 20.5429 96.5699 20.6267C96.6635 20.7105 96.7695 20.7745 96.8878 20.8189C97.0061 20.8633 97.1293 20.8854 97.2575 20.8854C97.4547 20.8854 97.6395 20.8386 97.812 20.745C97.9895 20.6464 98.1103 20.5182 98.1743 20.3605L99.0246 20.5971C98.8817 20.8928 98.6525 21.1368 98.337 21.3291C98.0265 21.5164 97.6543 21.61 97.2205 21.61ZM98.2261 19.2736C98.2014 18.9828 98.093 18.7511 97.9008 18.5786C97.7135 18.4011 97.4842 18.3124 97.2131 18.3124C97.0801 18.3124 96.9544 18.337 96.8361 18.3863C96.7227 18.4307 96.6216 18.4948 96.5329 18.5786C96.4442 18.6624 96.3703 18.7634 96.3111 18.8817C96.2569 19 96.2248 19.1306 96.215 19.2736H98.2261Z" fill="#0AA245"/>
<path d="M101.555 21.5361H100.571V18.5194H99.3586V17.6617H102.76V18.5194H101.555V21.5361Z" fill="#0AA245"/>
<path d="M104.946 21.61C104.636 21.61 104.355 21.5583 104.104 21.4548C103.852 21.3463 103.638 21.2009 103.46 21.0185C103.283 20.8361 103.145 20.6242 103.046 20.3827C102.953 20.1411 102.906 19.8873 102.906 19.6211C102.906 19.3451 102.953 19.0863 103.046 18.8448C103.14 18.5983 103.275 18.3839 103.453 18.2015C103.63 18.0142 103.845 17.8663 104.096 17.7579C104.352 17.6494 104.638 17.5952 104.954 17.5952C105.269 17.5952 105.55 17.6494 105.797 17.7579C106.048 17.8663 106.26 18.0117 106.433 18.1941C106.61 18.3765 106.743 18.5884 106.832 18.83C106.926 19.0715 106.972 19.3229 106.972 19.5841C106.972 19.6482 106.97 19.7098 106.965 19.769C106.965 19.8281 106.96 19.8774 106.95 19.9169H103.956C103.97 20.0697 104.007 20.2052 104.067 20.3235C104.126 20.4418 104.202 20.5429 104.296 20.6267C104.389 20.7105 104.495 20.7745 104.614 20.8189C104.732 20.8633 104.855 20.8854 104.983 20.8854C105.181 20.8854 105.365 20.8386 105.538 20.745C105.715 20.6464 105.836 20.5182 105.9 20.3605L106.751 20.5971C106.608 20.8928 106.378 21.1368 106.063 21.3291C105.752 21.5164 105.38 21.61 104.946 21.61ZM105.952 19.2736C105.927 18.9828 105.819 18.7511 105.627 18.5786C105.439 18.4011 105.21 18.3124 104.939 18.3124C104.806 18.3124 104.68 18.337 104.562 18.3863C104.449 18.4307 104.348 18.4948 104.259 18.5786C104.17 18.6624 104.096 18.7634 104.037 18.8817C103.983 19 103.951 19.1306 103.941 19.2736H105.952Z" fill="#0AA245"/>
<path d="M110.659 16.1386C110.649 16.4492 110.533 16.6932 110.312 16.8706C110.09 17.0431 109.799 17.1294 109.439 17.1294C109.079 17.1294 108.789 17.0431 108.567 16.8706C108.345 16.6932 108.229 16.4492 108.219 16.1386H108.766C108.771 16.3259 108.83 16.464 108.944 16.5527C109.062 16.6414 109.227 16.6858 109.439 16.6858C109.863 16.6858 110.09 16.5034 110.119 16.1386H110.659ZM108.574 20.1239L110.408 17.6617H111.14V21.5361H110.156V19.1405L108.345 21.5361H107.591V17.6617H108.574V20.1239Z" fill="#0AA245"/>
</svg>
