<svg width="67" height="15" viewBox="0 0 67 15" fill="none" xmlns="http://www.w3.org/2000/svg">
<path d="M4.44994 4.74242C4.44994 4.96424 4.40558 5.15894 4.31685 5.32653C4.22813 5.49413 4.1049 5.63461 3.94717 5.74798C3.79436 5.86135 3.61445 5.94761 3.40742 6.00676C3.20532 6.06591 2.98844 6.09549 2.75677 6.09549H0.220703V0.845906H3.03034C3.21272 0.845906 3.37784 0.88534 3.52572 0.964207C3.6736 1.04307 3.79929 1.14659 3.9028 1.27475C4.00632 1.39797 4.08518 1.54092 4.1394 1.70358C4.19855 1.86132 4.22813 2.02152 4.22813 2.18418C4.22813 2.4405 4.16405 2.68203 4.03589 2.90877C3.90773 3.13058 3.72042 3.29571 3.47396 3.40415C3.77464 3.49288 4.01125 3.65308 4.18377 3.88475C4.36122 4.11149 4.44994 4.39738 4.44994 4.74242ZM3.42221 4.55019C3.42221 4.45653 3.40496 4.36781 3.37045 4.28401C3.34088 4.19529 3.29898 4.11888 3.24476 4.0548C3.19054 3.99072 3.12646 3.94143 3.05252 3.90693C2.97858 3.8675 2.89725 3.84778 2.80852 3.84778H1.24104V5.23041H2.75677C2.85042 5.23041 2.93668 5.21316 3.01555 5.17866C3.09935 5.14415 3.17082 5.09733 3.22997 5.03818C3.28912 4.9741 3.33595 4.90016 3.37045 4.81636C3.40496 4.73257 3.42221 4.64384 3.42221 4.55019ZM1.24104 1.71837V3.04186H2.6015C2.77402 3.04186 2.91943 2.98271 3.03773 2.86441C3.16096 2.74611 3.22258 2.58344 3.22258 2.37642C3.22258 2.17432 3.16589 2.01412 3.05252 1.89582C2.94408 1.77752 2.80852 1.71837 2.64586 1.71837H1.24104Z" fill="#0AA245"/>
<path d="M5.23842 2.22115H6.22179V3.44851H6.87244C7.0844 3.44851 7.2791 3.47809 7.45655 3.53724C7.63893 3.59146 7.79666 3.67526 7.92975 3.78863C8.06284 3.89707 8.16635 4.03509 8.24029 4.20268C8.31916 4.36534 8.35859 4.55265 8.35859 4.76461C8.35859 4.98149 8.32162 5.17373 8.24768 5.34132C8.17375 5.50398 8.07023 5.642 7.93715 5.75537C7.80899 5.86874 7.65618 5.955 7.47873 6.01415C7.30621 6.06838 7.11644 6.09549 6.90941 6.09549H5.23842V2.22115ZM8.78004 2.22115H9.75601V6.09549H8.78004V2.22115ZM6.8059 5.31914C6.97349 5.31914 7.10658 5.27478 7.20516 5.18605C7.30375 5.0924 7.35304 4.95684 7.35304 4.77939C7.35304 4.60194 7.30128 4.46639 7.19777 4.37274C7.09426 4.27415 6.96363 4.22486 6.8059 4.22486H6.22179V5.31914H6.8059Z" fill="#0AA245"/>
<path d="M12.5901 1.78492C12.2795 1.85392 12.0331 1.98701 11.8507 2.18418C11.6733 2.38135 11.5525 2.66477 11.4884 3.03446C11.6412 2.84715 11.8261 2.70421 12.0429 2.60562C12.2598 2.50211 12.5038 2.45036 12.7749 2.45036C13.0115 2.45036 13.2333 2.49718 13.4404 2.59084C13.6474 2.68449 13.8273 2.81265 13.9801 2.97531C14.1378 3.13798 14.2611 3.33021 14.3498 3.55203C14.4435 3.77384 14.4903 4.01291 14.4903 4.26922C14.4903 4.5354 14.4435 4.78432 14.3498 5.01599C14.2611 5.24767 14.1305 5.44976 13.9579 5.62228C13.7903 5.78988 13.5833 5.92296 13.3369 6.02155C13.0904 6.12013 12.8119 6.16942 12.5014 6.16942C11.8606 6.16942 11.375 5.96979 11.0448 5.57053C10.7145 5.16633 10.5494 4.5773 10.5494 3.80342C10.5494 3.36472 10.5913 2.98271 10.6751 2.65738C10.7589 2.32713 10.8846 2.04863 11.0522 1.82188C11.2247 1.59021 11.4367 1.4029 11.688 1.25996C11.9444 1.11701 12.2401 1.00857 12.5753 0.934632L14.0097 0.616699L14.0762 1.4522L12.5901 1.78492ZM11.5623 4.24704C11.5623 4.40971 11.587 4.55758 11.6363 4.69067C11.6856 4.82376 11.7521 4.93959 11.8359 5.03818C11.9197 5.13183 12.0208 5.20577 12.1391 5.25999C12.2574 5.31421 12.388 5.34132 12.5309 5.34132C12.8119 5.34132 13.0386 5.2452 13.2112 5.05296C13.3837 4.8558 13.4699 4.59701 13.4699 4.27662C13.4699 3.98087 13.3812 3.7418 13.2038 3.55942C13.0263 3.37211 12.7922 3.27846 12.5014 3.27846C12.2253 3.27846 11.9986 3.36718 11.8211 3.54463C11.6486 3.72208 11.5623 3.95622 11.5623 4.24704Z" fill="#0AA245"/>
<path d="M16.1716 4.68327L18.0053 2.22115H18.7373V6.09549H17.7539V3.6999L15.9424 6.09549H15.1882V2.22115H16.1716V4.68327Z" fill="#0AA245"/>
<path d="M21.9938 6.16942C21.6882 6.16942 21.422 6.10288 21.1953 5.96979C20.9685 5.83177 20.7911 5.64693 20.6629 5.41526V7.67036H19.6722V2.22115H20.5372V2.88659C20.6802 2.65985 20.865 2.48239 21.0918 2.35424C21.3185 2.22115 21.5798 2.1546 21.8755 2.1546C22.1368 2.1546 22.3783 2.20883 22.6001 2.31727C22.8219 2.42078 23.0117 2.56373 23.1694 2.74611C23.3321 2.92356 23.4578 3.13551 23.5465 3.38197C23.6402 3.6235 23.687 3.87982 23.687 4.15092C23.687 4.43189 23.6451 4.6956 23.5613 4.94206C23.4775 5.18852 23.3592 5.40294 23.2064 5.58531C23.0585 5.76769 22.8811 5.91064 22.674 6.01415C22.467 6.11767 22.2403 6.16942 21.9938 6.16942ZM21.6611 5.32653C21.809 5.32653 21.9445 5.29449 22.0677 5.23041C22.1959 5.16633 22.3043 5.08007 22.3931 4.97163C22.4818 4.86319 22.5508 4.7375 22.6001 4.59455C22.6494 4.4516 22.674 4.30373 22.674 4.15092C22.674 3.98826 22.6469 3.83792 22.5927 3.6999C22.5385 3.55696 22.4621 3.43373 22.3635 3.33021C22.2698 3.2267 22.1565 3.14537 22.0234 3.08622C21.8952 3.02707 21.7547 2.99749 21.6019 2.99749C21.5083 2.99749 21.4122 3.01475 21.3136 3.04925C21.215 3.07883 21.1238 3.12319 21.04 3.18234C20.9562 3.24149 20.8798 3.3105 20.8108 3.38936C20.7467 3.46823 20.6974 3.55449 20.6629 3.64815V4.55758C20.7517 4.77939 20.8872 4.96424 21.0696 5.11211C21.252 5.25506 21.4491 5.32653 21.6611 5.32653Z" fill="#0AA245"/>
<path d="M25.408 6.16942C25.2207 6.16942 25.0457 6.13985 24.883 6.0807C24.7204 6.01662 24.5799 5.93036 24.4616 5.82192C24.3433 5.70854 24.2496 5.57792 24.1806 5.43005C24.1166 5.28217 24.0845 5.11951 24.0845 4.94206C24.0845 4.75968 24.1239 4.59208 24.2028 4.43928C24.2866 4.28155 24.4 4.14846 24.5429 4.04002C24.6908 3.93157 24.8658 3.84778 25.0679 3.78863C25.27 3.72455 25.4918 3.69251 25.7333 3.69251C25.9058 3.69251 26.0734 3.7073 26.2361 3.73687C26.4037 3.76645 26.5516 3.80834 26.6797 3.86257V3.64075C26.6797 3.38444 26.6058 3.18727 26.4579 3.04925C26.315 2.91123 26.1005 2.84223 25.8147 2.84223C25.6076 2.84223 25.4055 2.87919 25.2084 2.95313C25.0112 3.02707 24.8091 3.13551 24.6021 3.27846L24.2989 2.64999C24.7968 2.31973 25.3341 2.1546 25.9108 2.1546C26.4678 2.1546 26.8991 2.29262 27.2047 2.56866C27.5152 2.83976 27.6705 3.2341 27.6705 3.75166V4.95684C27.6705 5.06036 27.6877 5.13429 27.7222 5.17866C27.7617 5.22302 27.8233 5.24767 27.9071 5.2526V6.09549C27.7395 6.12999 27.5941 6.14724 27.4709 6.14724C27.2836 6.14724 27.1381 6.10534 27.0346 6.02155C26.936 5.93775 26.8744 5.82684 26.8498 5.68883L26.8276 5.47441C26.6551 5.70115 26.4456 5.87367 26.1991 5.99197C25.9527 6.11027 25.689 6.16942 25.408 6.16942ZM25.689 5.44483C25.8566 5.44483 26.0143 5.41526 26.1622 5.35611C26.315 5.29696 26.4333 5.21809 26.5171 5.11951C26.6255 5.03571 26.6797 4.94206 26.6797 4.83854V4.39492C26.5614 4.35055 26.4333 4.31605 26.2953 4.2914C26.1572 4.26183 26.0241 4.24704 25.896 4.24704C25.6397 4.24704 25.4302 4.30619 25.2675 4.42449C25.1049 4.53786 25.0235 4.68327 25.0235 4.86073C25.0235 5.02832 25.0876 5.1688 25.2158 5.28217C25.3439 5.39061 25.5017 5.44483 25.689 5.44483Z" fill="#0AA245"/>
<path d="M30.4075 6.16942C30.0969 6.16942 29.816 6.11767 29.5646 6.01415C29.3132 5.90571 29.0988 5.7603 28.9213 5.57792C28.7439 5.39554 28.6058 5.18359 28.5073 4.94206C28.4136 4.70053 28.3668 4.44667 28.3668 4.1805C28.3668 3.90446 28.4136 3.64568 28.5073 3.40415C28.6009 3.15769 28.7365 2.94327 28.9139 2.76089C29.0914 2.57358 29.3058 2.42571 29.5572 2.31727C29.8135 2.20883 30.0994 2.1546 30.4149 2.1546C30.7303 2.1546 31.0113 2.20883 31.2577 2.31727C31.5091 2.42571 31.7211 2.57112 31.8936 2.7535C32.0711 2.93588 32.2041 3.14783 32.2929 3.38936C32.3865 3.63089 32.4334 3.88228 32.4334 4.14353C32.4334 4.20761 32.4309 4.26922 32.426 4.32837C32.426 4.38752 32.421 4.43682 32.4112 4.47625H29.4167C29.4315 4.62905 29.4685 4.76461 29.5276 4.88291C29.5868 5.00121 29.6632 5.10225 29.7568 5.18605C29.8505 5.26985 29.9564 5.33393 30.0747 5.37829C30.193 5.42265 30.3163 5.44483 30.4444 5.44483C30.6416 5.44483 30.8264 5.39801 30.999 5.30435C31.1764 5.20577 31.2972 5.07761 31.3613 4.91988L32.2115 5.15648C32.0686 5.45223 31.8394 5.69622 31.5239 5.88846C31.2134 6.07577 30.8412 6.16942 30.4075 6.16942ZM31.413 3.83299C31.3884 3.54217 31.2799 3.3105 31.0877 3.13798C30.9004 2.96053 30.6712 2.8718 30.4001 2.8718C30.267 2.8718 30.1413 2.89645 30.023 2.94574C29.9096 2.9901 29.8086 3.05418 29.7198 3.13798C29.6311 3.22177 29.5572 3.32282 29.498 3.44112C29.4438 3.55942 29.4118 3.69004 29.4019 3.83299H31.413Z" fill="#0AA245"/>
<path d="M35.2181 4.28401L36.3641 2.22115H37.3771V6.09549H36.4307V3.76645L35.4473 5.51138H34.9815L33.9981 3.76645V6.09549H33.0517V2.22115H34.0721L35.2181 4.28401Z" fill="#0AA245"/>
<path d="M39.6778 5.2526C39.8208 5.24274 39.9366 5.21316 40.0253 5.16387C40.119 5.11458 40.1954 5.02339 40.2545 4.8903C40.3186 4.75721 40.3704 4.57483 40.4098 4.34316C40.4542 4.10656 40.4985 3.79849 40.5429 3.41894L40.676 2.22115H43.3895V6.09549H42.4061V3.04925H41.541L41.4671 3.63336C41.408 4.12135 41.3365 4.52554 41.2527 4.84594C41.1689 5.16141 41.0604 5.41279 40.9274 5.6001C40.7992 5.78741 40.639 5.9205 40.4468 5.99937C40.2545 6.0733 40.0179 6.1152 39.737 6.12506L39.6778 5.2526Z" fill="#0AA245"/>
<path d="M44.419 6.7905C44.5028 6.83979 44.5817 6.8743 44.6556 6.89401C44.7345 6.91373 44.8084 6.92359 44.8774 6.92359C45.0007 6.92359 45.1066 6.86197 45.1954 6.73874C45.2841 6.62044 45.363 6.40602 45.432 6.09549L43.9014 2.22115H44.9218L45.9717 5.23781L46.9033 2.22115H47.8349L46.3118 6.59826C46.1639 7.02217 45.9816 7.32532 45.7647 7.5077C45.5527 7.69008 45.2915 7.78127 44.9809 7.78127C44.8676 7.78127 44.7665 7.77141 44.6778 7.75169C44.5891 7.73197 44.5028 7.69501 44.419 7.64078V6.7905Z" fill="#0AA245"/>
<path d="M51.2494 6.09549H50.2808V4.71285C50.1675 4.75228 50.0492 4.78186 49.9259 4.80158C49.8076 4.82129 49.6573 4.83115 49.4749 4.83115C49.2531 4.83115 49.0609 4.79665 48.8982 4.72764C48.7355 4.6537 48.6 4.55758 48.4915 4.43928C48.3831 4.31605 48.3018 4.1731 48.2475 4.01044C48.1933 3.84778 48.1662 3.67279 48.1662 3.48548V2.22115H49.12V3.33761C49.12 3.59393 49.1718 3.77631 49.2753 3.88475C49.3788 3.99319 49.5242 4.04741 49.7115 4.04741C49.8495 4.04741 49.9629 4.03509 50.0516 4.01044C50.1453 3.98087 50.2217 3.9439 50.2808 3.89953V2.22115H51.2494V6.09549Z" fill="#0AA245"/>
<path d="M52.1788 6.09549V2.22115H53.1621V5.23781H54.2416V2.22115H55.225V5.23781H56.3045V2.22115H57.2879V6.09549H52.1788Z" fill="#0AA245"/>
<path d="M60.0042 6.16942C59.6937 6.16942 59.4127 6.11767 59.1613 6.01415C58.9099 5.90571 58.6955 5.7603 58.5181 5.57792C58.3406 5.39554 58.2026 5.18359 58.104 4.94206C58.0104 4.70053 57.9635 4.44667 57.9635 4.1805C57.9635 3.90446 58.0104 3.64568 58.104 3.40415C58.1977 3.15769 58.3332 2.94327 58.5107 2.76089C58.6881 2.57358 58.9025 2.42571 59.1539 2.31727C59.4102 2.20883 59.6961 2.1546 60.0116 2.1546C60.3271 2.1546 60.608 2.20883 60.8545 2.31727C61.1059 2.42571 61.3178 2.57112 61.4904 2.7535C61.6678 2.93588 61.8009 3.14783 61.8896 3.38936C61.9833 3.63089 62.0301 3.88228 62.0301 4.14353C62.0301 4.20761 62.0276 4.26922 62.0227 4.32837C62.0227 4.38752 62.0178 4.43682 62.0079 4.47625H59.0135C59.0282 4.62905 59.0652 4.76461 59.1244 4.88291C59.1835 5.00121 59.2599 5.10225 59.3536 5.18605C59.4472 5.26985 59.5532 5.33393 59.6715 5.37829C59.7898 5.42265 59.913 5.44483 60.0412 5.44483C60.2383 5.44483 60.4232 5.39801 60.5957 5.30435C60.7732 5.20577 60.8939 5.07761 60.958 4.91988L61.8083 5.15648C61.6654 5.45223 61.4361 5.69622 61.1207 5.88846C60.8101 6.07577 60.438 6.16942 60.0042 6.16942ZM61.0098 3.83299C60.9851 3.54217 60.8767 3.3105 60.6844 3.13798C60.4971 2.96053 60.2679 2.8718 59.9968 2.8718C59.8637 2.8718 59.738 2.89645 59.6197 2.94574C59.5064 2.9901 59.4053 3.05418 59.3166 3.13798C59.2279 3.22177 59.1539 3.32282 59.0948 3.44112C59.0406 3.55942 59.0085 3.69004 58.9987 3.83299H61.0098Z" fill="#0AA245"/>
<path d="M64.4304 6.16942C64.1198 6.16942 63.8389 6.11767 63.5875 6.01415C63.3361 5.90571 63.1217 5.7603 62.9442 5.57792C62.7668 5.39554 62.6288 5.18359 62.5302 4.94206C62.4365 4.70053 62.3897 4.44667 62.3897 4.1805C62.3897 3.90446 62.4365 3.64568 62.5302 3.40415C62.6238 3.15769 62.7594 2.94327 62.9368 2.76089C63.1143 2.57358 63.3287 2.42571 63.5801 2.31727C63.8364 2.20883 64.1223 2.1546 64.4378 2.1546C64.7532 2.1546 65.0342 2.20883 65.2807 2.31727C65.532 2.42571 65.744 2.57112 65.9165 2.7535C66.094 2.93588 66.2271 3.14783 66.3158 3.38936C66.4094 3.63089 66.4563 3.88228 66.4563 4.14353C66.4563 4.20761 66.4538 4.26922 66.4489 4.32837C66.4489 4.38752 66.4439 4.43682 66.4341 4.47625H63.4396C63.4544 4.62905 63.4914 4.76461 63.5505 4.88291C63.6097 5.00121 63.6861 5.10225 63.7797 5.18605C63.8734 5.26985 63.9794 5.33393 64.0977 5.37829C64.216 5.42265 64.3392 5.44483 64.4673 5.44483C64.6645 5.44483 64.8493 5.39801 65.0219 5.30435C65.1993 5.20577 65.3201 5.07761 65.3842 4.91988L66.2345 5.15648C66.0915 5.45223 65.8623 5.69622 65.5468 5.88846C65.2363 6.07577 64.8641 6.16942 64.4304 6.16942ZM65.4359 3.83299C65.4113 3.54217 65.3028 3.3105 65.1106 3.13798C64.9233 2.96053 64.6941 2.8718 64.423 2.8718C64.2899 2.8718 64.1642 2.89645 64.0459 2.94574C63.9325 2.9901 63.8315 3.05418 63.7428 3.13798C63.654 3.22177 63.5801 3.32282 63.5209 3.44112C63.4667 3.55942 63.4347 3.69004 63.4248 3.83299H65.4359Z" fill="#0AA245"/>
<path d="M6.21931 12.6784H6.42633C6.54463 12.6636 6.64075 12.6267 6.71469 12.5675C6.79356 12.5034 6.8601 12.4048 6.91432 12.2718C6.97347 12.1337 7.0203 11.9514 7.0548 11.7246C7.09424 11.4979 7.13367 11.2095 7.1731 10.8595L7.30619 9.66175H10.0197V12.6784H10.5373V14.6452H9.65741V13.5361H7.06959V14.6452H6.21931V12.6784ZM9.03633 12.6784V10.4899H8.17126L8.09732 11.074C8.04803 11.4732 7.98642 11.7986 7.91248 12.0499C7.84347 12.3013 7.75475 12.5108 7.6463 12.6784H9.03633Z" fill="#0AA245"/>
<path d="M10.8175 12.6932C10.9605 12.6833 11.0763 12.6538 11.165 12.6045C11.2587 12.5552 11.3351 12.464 11.3943 12.3309C11.4583 12.1978 11.5101 12.0154 11.5495 11.7838C11.5939 11.5472 11.6382 11.2391 11.6826 10.8595L11.8157 9.66175H14.5292V13.5361H13.5458V10.4899H12.6808L12.6068 11.074C12.5477 11.5619 12.4762 11.9661 12.3924 12.2865C12.3086 12.602 12.2002 12.8534 12.0671 13.0407C11.9389 13.228 11.7787 13.3611 11.5865 13.44C11.3943 13.5139 11.1577 13.5558 10.8767 13.5657L10.8175 12.6932Z" fill="#0AA245"/>
<path d="M16.1207 12.0647C15.889 11.9809 15.7066 11.8478 15.5735 11.6655C15.4404 11.4831 15.3739 11.244 15.3739 10.9483C15.3739 10.7511 15.4084 10.5736 15.4774 10.4159C15.5464 10.2533 15.6425 10.1177 15.7658 10.0093C15.889 9.89589 16.0344 9.80963 16.202 9.75047C16.3745 9.6864 16.5594 9.65436 16.7565 9.65436H18.5163V13.5361H17.5403V12.2274H17.0153L16.2094 13.5361H15.1447L16.1207 12.0647ZM17.5403 11.4732V10.4381H16.8748C16.7467 10.4381 16.6308 10.4849 16.5273 10.5786C16.4238 10.6673 16.3721 10.7955 16.3721 10.9631C16.3721 11.1208 16.4189 11.2465 16.5125 11.3401C16.6111 11.4289 16.727 11.4732 16.86 11.4732H17.5403Z" fill="#0AA245"/>
<path d="M23.524 9.66175C23.667 9.66175 23.7976 9.68886 23.9159 9.74308C24.0342 9.79237 24.1352 9.86138 24.219 9.95011C24.3078 10.0388 24.3743 10.1423 24.4187 10.2606C24.468 10.3789 24.4926 10.5046 24.4926 10.6377C24.4926 10.8053 24.4483 10.9754 24.3595 11.1479C24.2708 11.3155 24.1254 11.4412 23.9233 11.525C24.15 11.5891 24.3275 11.7 24.4556 11.8577C24.5887 12.0105 24.6553 12.22 24.6553 12.4862C24.6553 12.8411 24.532 13.1048 24.2856 13.2773C24.0391 13.4498 23.699 13.5361 23.2652 13.5361H21.232V9.66175H23.524ZM23.0582 11.281C23.1962 11.281 23.3071 11.2416 23.3909 11.1627C23.4747 11.0838 23.5166 10.9704 23.5166 10.8226C23.5166 10.6993 23.4797 10.5958 23.4057 10.512C23.3367 10.4233 23.2307 10.3789 23.0878 10.3789H22.2153V11.281H23.0582ZM23.1913 12.8189C23.3343 12.8189 23.4476 12.7721 23.5314 12.6784C23.6201 12.5848 23.6645 12.4714 23.6645 12.3383C23.6645 12.2003 23.6226 12.0869 23.5388 11.9982C23.455 11.9045 23.3417 11.8577 23.1987 11.8577H22.2153V12.8189H23.1913Z" fill="#0AA245"/>
<path d="M26.3828 13.61C26.1955 13.61 26.0205 13.5805 25.8578 13.5213C25.6951 13.4572 25.5547 13.371 25.4364 13.2625C25.3181 13.1491 25.2244 13.0185 25.1554 12.8706C25.0913 12.7228 25.0593 12.5601 25.0593 12.3827C25.0593 12.2003 25.0987 12.0327 25.1776 11.8799C25.2614 11.7221 25.3747 11.5891 25.5177 11.4806C25.6656 11.3722 25.8406 11.2884 26.0427 11.2292C26.2447 11.1652 26.4666 11.1331 26.7081 11.1331C26.8806 11.1331 27.0482 11.1479 27.2109 11.1775C27.3785 11.207 27.5263 11.2489 27.6545 11.3032V11.0814C27.6545 10.825 27.5806 10.6279 27.4327 10.4899C27.2897 10.3518 27.0753 10.2828 26.7894 10.2828C26.5824 10.2828 26.3803 10.3198 26.1831 10.3937C25.986 10.4677 25.7839 10.5761 25.5768 10.7191L25.2737 10.0906C25.7715 9.76033 26.3088 9.59521 26.8855 9.59521C27.4425 9.59521 27.8738 9.73322 28.1795 10.0093C28.49 10.2804 28.6453 10.6747 28.6453 11.1923V12.3974C28.6453 12.501 28.6625 12.5749 28.697 12.6193C28.7364 12.6636 28.7981 12.6883 28.8819 12.6932V13.5361C28.7143 13.5706 28.5689 13.5878 28.4456 13.5878C28.2583 13.5878 28.1129 13.5459 28.0094 13.4621C27.9108 13.3784 27.8492 13.2674 27.8246 13.1294L27.8024 12.915C27.6298 13.1418 27.4204 13.3143 27.1739 13.4326C26.9274 13.5509 26.6637 13.61 26.3828 13.61ZM26.6637 12.8854C26.8313 12.8854 26.9891 12.8559 27.1369 12.7967C27.2897 12.7376 27.408 12.6587 27.4918 12.5601C27.6003 12.4763 27.6545 12.3827 27.6545 12.2791V11.8355C27.5362 11.7912 27.408 11.7567 27.27 11.732C27.132 11.7024 26.9989 11.6876 26.8708 11.6876C26.6144 11.6876 26.4049 11.7468 26.2423 11.8651C26.0796 11.9785 25.9983 12.1239 25.9983 12.3013C25.9983 12.4689 26.0624 12.6094 26.1905 12.7228C26.3187 12.8312 26.4764 12.8854 26.6637 12.8854Z" fill="#0AA245"/>
<path d="M29.6003 13.5361V9.66175H30.5837V12.6784H31.6632V9.66175H32.6466V12.6784H33.7261V9.66175H34.7094V13.5361H29.6003Z" fill="#0AA245"/>
<path d="M36.6272 12.1239L38.4609 9.66175H39.1929V13.5361H38.2095V11.1405L36.398 13.5361H35.6439V9.66175H36.6272V12.1239Z" fill="#0AA245"/>
<path d="M40.7267 9.66175L41.5622 10.8743L41.6213 11.0074L41.6953 10.8743L42.5234 9.66175H43.5437L42.1611 11.6063L43.5659 13.5361H42.5456L41.6879 12.3309L41.6213 12.2052L41.5622 12.3309L40.7119 13.5361H39.6916L41.089 11.6063L39.7137 9.66175H40.7267Z" fill="#0AA245"/>
<path d="M45.4771 12.6784H45.6841C45.8024 12.6636 45.8985 12.6267 45.9724 12.5675C46.0513 12.5034 46.1179 12.4048 46.1721 12.2718C46.2312 12.1337 46.2781 11.9514 46.3126 11.7246C46.352 11.4979 46.3914 11.2095 46.4309 10.8595L46.5639 9.66175H49.2775V12.6784H49.795V14.6452H48.9152V13.5361H46.3274V14.6452H45.4771V12.6784ZM48.2941 12.6784V10.4899H47.429L47.3551 11.074C47.3058 11.4732 47.2442 11.7986 47.1702 12.0499C47.1012 12.3013 47.0125 12.5108 46.9041 12.6784H48.2941Z" fill="#0AA245"/>
<path d="M52.2205 13.61C51.91 13.61 51.629 13.5583 51.3776 13.4548C51.1263 13.3463 50.9118 13.2009 50.7344 13.0185C50.5569 12.8361 50.4189 12.6242 50.3203 12.3827C50.2267 12.1411 50.1799 11.8873 50.1799 11.6211C50.1799 11.3451 50.2267 11.0863 50.3203 10.8448C50.414 10.5983 50.5495 10.3839 50.727 10.2015C50.9044 10.0142 51.1189 9.86631 51.3703 9.75787C51.6266 9.64943 51.9125 9.59521 52.2279 9.59521C52.5434 9.59521 52.8244 9.64943 53.0708 9.75787C53.3222 9.86631 53.5342 10.0117 53.7067 10.1941C53.8841 10.3765 54.0172 10.5884 54.106 10.83C54.1996 11.0715 54.2464 11.3229 54.2464 11.5841C54.2464 11.6482 54.244 11.7098 54.239 11.769C54.239 11.8281 54.2341 11.8774 54.2243 11.9169H51.2298C51.2446 12.0697 51.2815 12.2052 51.3407 12.3235C51.3998 12.4418 51.4762 12.5429 51.5699 12.6267C51.6635 12.7105 51.7695 12.7745 51.8878 12.8189C52.0061 12.8633 52.1293 12.8854 52.2575 12.8854C52.4547 12.8854 52.6395 12.8386 52.812 12.745C52.9895 12.6464 53.1103 12.5182 53.1743 12.3605L54.0246 12.5971C53.8817 12.8928 53.6525 13.1368 53.337 13.3291C53.0265 13.5164 52.6543 13.61 52.2205 13.61ZM53.2261 11.2736C53.2014 10.9828 53.093 10.7511 52.9008 10.5786C52.7135 10.4011 52.4842 10.3124 52.2131 10.3124C52.0801 10.3124 51.9544 10.337 51.8361 10.3863C51.7227 10.4307 51.6216 10.4948 51.5329 10.5786C51.4442 10.6624 51.3703 10.7634 51.3111 10.8817C51.2569 11 51.2248 11.1306 51.215 11.2736H53.2261Z" fill="#0AA245"/>
<path d="M56.5546 13.5361H55.5712V10.5194H54.3586V9.66175H57.7597V10.5194H56.5546V13.5361Z" fill="#0AA245"/>
<path d="M59.9465 13.61C59.6359 13.61 59.355 13.5583 59.1036 13.4548C58.8522 13.3463 58.6378 13.2009 58.4603 13.0185C58.2829 12.8361 58.1448 12.6242 58.0463 12.3827C57.9526 12.1411 57.9058 11.8873 57.9058 11.6211C57.9058 11.3451 57.9526 11.0863 58.0463 10.8448C58.1399 10.5983 58.2755 10.3839 58.4529 10.2015C58.6304 10.0142 58.8448 9.86631 59.0962 9.75787C59.3525 9.64943 59.6384 9.59521 59.9538 9.59521C60.2693 9.59521 60.5503 9.64943 60.7967 9.75787C61.0481 9.86631 61.2601 10.0117 61.4326 10.1941C61.6101 10.3765 61.7431 10.5884 61.8319 10.83C61.9255 11.0715 61.9724 11.3229 61.9724 11.5841C61.9724 11.6482 61.9699 11.7098 61.965 11.769C61.965 11.8281 61.96 11.8774 61.9502 11.9169H58.9557C58.9705 12.0697 59.0074 12.2052 59.0666 12.3235C59.1257 12.4418 59.2021 12.5429 59.2958 12.6267C59.3895 12.7105 59.4954 12.7745 59.6137 12.8189C59.732 12.8633 59.8553 12.8854 59.9834 12.8854C60.1806 12.8854 60.3654 12.8386 60.538 12.745C60.7154 12.6464 60.8362 12.5182 60.9002 12.3605L61.7505 12.5971C61.6076 12.8928 61.3784 13.1368 61.0629 13.3291C60.7524 13.5164 60.3802 13.61 59.9465 13.61ZM60.952 11.2736C60.9274 10.9828 60.8189 10.7511 60.6267 10.5786C60.4394 10.4011 60.2102 10.3124 59.9391 10.3124C59.806 10.3124 59.6803 10.337 59.562 10.3863C59.4486 10.4307 59.3476 10.4948 59.2588 10.5786C59.1701 10.6624 59.0962 10.7634 59.037 10.8817C58.9828 11 58.9508 11.1306 58.9409 11.2736H60.952Z" fill="#0AA245"/>
<path d="M65.6591 8.13863C65.6493 8.44917 65.5334 8.69317 65.3116 8.87062C65.0898 9.04314 64.799 9.1294 64.4392 9.1294C64.0793 9.1294 63.7885 9.04314 63.5667 8.87062C63.3449 8.69317 63.229 8.44917 63.2192 8.13863H63.7663C63.7713 8.32594 63.8304 8.46396 63.9438 8.55268C64.0621 8.64141 64.2272 8.68577 64.4392 8.68577C64.8631 8.68577 65.0898 8.50339 65.1194 8.13863H65.6591ZM63.5741 12.1239L65.4077 9.66175H66.1397V13.5361H65.1563V11.1405L63.3449 13.5361H62.5907V9.66175H63.5741V12.1239Z" fill="#0AA245"/>
</svg>
