<svg width="196" height="98" viewBox="0 0 196 98" fill="none" xmlns="http://www.w3.org/2000/svg">
<path fill-rule="evenodd" clip-rule="evenodd" d="M179.025 52.7545H167.044C166.857 52.7545 166.699 52.6835 166.573 52.5479L158.755 44.0294C158.574 43.8326 158.348 43.7325 158.08 43.7325C157.816 43.7325 157.587 43.8326 157.406 44.0294L149.588 52.5479C149.462 52.6835 149.3 52.7545 149.116 52.7545H137.136C136.848 52.7545 136.606 52.5738 136.523 52.2995C136.439 52.0252 136.542 51.738 136.784 51.5799L152.15 41.4222C152.414 41.248 152.559 40.9769 152.559 40.6607C152.559 40.3445 152.414 40.0734 152.15 39.8992L136.784 29.7415C136.545 29.5833 136.442 29.2994 136.523 29.0219C136.606 28.7476 136.848 28.5669 137.136 28.5669H149.116C149.304 28.5669 149.462 28.6379 149.588 28.7734L157.406 37.292C157.587 37.4888 157.816 37.5888 158.08 37.5888C158.345 37.5888 158.574 37.4888 158.755 37.292L166.573 28.7734C166.699 28.6379 166.86 28.5669 167.044 28.5669H179.025C179.312 28.5669 179.554 28.7476 179.638 29.0219C179.722 29.2962 179.619 29.5833 179.377 29.7415L164.011 39.8992C163.746 40.0734 163.601 40.3445 163.601 40.6607C163.601 40.9769 163.746 41.248 164.011 41.4222L179.377 51.5799C179.615 51.738 179.719 52.022 179.638 52.2995C179.557 52.5738 179.312 52.7545 179.025 52.7545ZM37.0781 27.7667C46.1613 27.7667 52.831 30.3513 56.4094 34.1943C56.5869 34.3847 56.6321 34.6461 56.5288 34.8849C56.4256 35.1236 56.2029 35.2688 55.9416 35.2688H46.839C46.6583 35.2688 46.5034 35.2011 46.3775 35.072C44.2414 32.8552 40.8727 31.4226 37.0781 31.4226C30.6311 31.4226 25.4006 35.5592 25.4006 40.6607C25.4006 45.7621 30.6311 49.8988 37.0781 49.8988C42.1892 49.8988 46.5324 47.3013 48.1167 43.6841C48.2071 43.4808 48.1877 43.2647 48.0651 43.0775C47.9425 42.8904 47.7521 42.7871 47.5295 42.7871H35.6422C35.2905 42.7871 35.0033 42.4999 35.0033 42.1482V39.7992C35.0033 39.4474 35.2905 39.1603 35.6422 39.1603H48.6007H56.8838C57.3613 39.1603 57.755 39.5249 57.7937 39.9992C57.8131 40.2186 57.8227 40.4413 57.8227 40.6671C57.8227 47.7885 48.533 53.5611 37.0781 53.5611C25.6232 53.5611 16.3335 47.7853 16.3335 40.6671C16.3335 33.5393 27.1721 27.7667 37.0781 27.7667ZM117.549 27.7667C129.004 27.7667 138.294 33.5425 138.294 40.6607C138.294 47.7821 129.004 53.5547 117.549 53.5547C106.095 53.5547 96.8048 47.7788 96.8048 40.6607C96.8048 33.5393 106.095 27.7667 117.549 27.7667ZM117.549 31.4226C123.996 31.4226 129.227 35.5592 129.227 40.6607C129.227 45.7621 123.996 49.8988 117.549 49.8988C111.102 49.8988 105.872 45.7621 105.872 40.6607C105.872 35.5592 111.099 31.4226 117.549 31.4226ZM63.4889 28.5669H71.8235H94.6074C94.9591 28.5669 95.2463 28.8541 95.2463 29.2058V31.5549C95.2463 31.9066 94.9591 32.1938 94.6074 32.1938H72.4624C72.1107 32.1938 71.8235 32.4809 71.8235 32.8327V38.2084C71.8235 38.5601 72.1107 38.8473 72.4624 38.8473H90.8902C91.2419 38.8473 91.5291 39.1344 91.5291 39.4862V41.8352C91.5291 42.1869 91.2419 42.4741 90.8902 42.4741H72.4624C72.1107 42.4741 71.8235 42.7613 71.8235 43.113V48.4758C71.8235 48.8275 72.1107 49.1147 72.4624 49.1147H94.6074C94.9591 49.1147 95.2463 49.4019 95.2463 49.7536V52.1027C95.2463 52.4544 94.9591 52.7415 94.6074 52.7415H71.8235H63.4889C62.9855 52.7415 62.5757 52.3318 62.5757 51.8284C62.5757 44.3747 62.5757 36.9209 62.5757 29.4704C62.5757 28.9767 62.9855 28.5669 63.4889 28.5669Z" fill="black" stroke="black" stroke-width="0.216" stroke-miterlimit="22.9256"/>
<path d="M19.8215 64.7223H20.241C21.4671 64.7223 22.2835 64.6384 22.6868 64.4674C23.0902 64.2964 23.2934 63.9963 23.2934 63.5607C23.2934 63.0928 23.0772 62.7637 22.6449 62.5701C22.2125 62.3765 21.4123 62.2829 20.2442 62.2829H19.8247V64.7223H19.8215ZM19.6731 65.7968V69.6044H17.5015V61.0955H20.7346C21.6833 61.0955 22.4222 61.1342 22.945 61.2052C23.4677 61.2794 23.913 61.3988 24.2873 61.5698C24.7293 61.7763 25.0681 62.0409 25.3134 62.3668C25.5521 62.6927 25.6715 63.0477 25.6715 63.4349C25.6715 64.1157 25.394 64.6481 24.8423 65.0353C24.2905 65.4193 23.4709 65.6516 22.3932 65.7291L27.3075 69.6011H24.6874L19.9409 65.7936H19.6731V65.7968ZM43.4927 69.6044V61.0955H51.4563V62.27H45.8095V64.4029H51.4563V65.6161H45.8095V68.3653H51.4563V69.6044H43.4927ZM68.1094 67.9007L69.9583 67.3908C70.1358 67.7684 70.4585 68.0588 70.9231 68.2588C71.391 68.4589 71.9912 68.5589 72.7172 68.5589C73.4045 68.5589 73.9563 68.4428 74.3596 68.2169C74.7662 67.9878 74.9694 67.6845 74.9694 67.3005C74.9694 66.8003 74.2757 66.3551 72.885 65.9646C72.6881 65.9065 72.5429 65.8646 72.4365 65.8388C70.8651 65.3806 69.8196 64.9676 69.2969 64.5965C68.7741 64.2287 68.5128 63.7737 68.5128 63.238C68.5128 62.5443 68.9097 61.9829 69.697 61.5505C70.4843 61.1213 71.5201 60.9051 72.8011 60.9051C73.853 60.9051 74.7339 61.0277 75.4438 61.2697C76.1537 61.5118 76.6409 61.8602 76.9152 62.312L75.1017 62.8702C74.8146 62.6024 74.5016 62.4088 74.1595 62.2862C73.8207 62.1603 73.4271 62.099 72.985 62.099C72.3623 62.099 71.8686 62.1958 71.5007 62.3894C71.1329 62.583 70.9489 62.8444 70.9489 63.1703C70.9489 63.6833 71.7524 64.1577 73.369 64.5997C73.4916 64.6352 73.5884 64.6643 73.6594 64.6804C75.0695 65.0708 76.0375 65.4484 76.5667 65.8162C77.0926 66.1873 77.354 66.6487 77.354 67.2037C77.354 68.0104 76.9281 68.6493 76.0762 69.1236C75.2244 69.5979 74.0756 69.8367 72.6268 69.8367C71.4136 69.8367 70.4165 69.6689 69.6389 69.3366C68.858 68.9977 68.3482 68.5202 68.1094 67.9007ZM97.0144 64.6514H97.6114C98.8988 64.6514 99.7571 64.5675 100.186 64.4029C100.615 64.2351 100.828 63.9415 100.828 63.5188C100.828 63.0638 100.599 62.7444 100.141 62.5604C99.6862 62.3733 98.8408 62.2797 97.6114 62.2797H97.0144V64.6514ZM96.8692 65.7839V69.6044H94.6976V61.0955H98.2083C99.2473 61.0955 100.012 61.1278 100.503 61.1955C100.993 61.2633 101.422 61.3762 101.784 61.5311C102.232 61.7279 102.584 61.9958 102.839 62.3281C103.09 62.6637 103.219 63.0315 103.219 63.4381C103.219 63.8414 103.094 64.2125 102.839 64.5546C102.587 64.8966 102.232 65.1644 101.784 65.3548C101.422 65.5097 100.993 65.6194 100.503 65.6871C100.009 65.7517 99.2441 65.7872 98.2083 65.7872H97.7501H96.8692V65.7839ZM120.173 69.6044V61.0955H122.493V69.6076H120.173V69.6044ZM142.957 64.7223H143.376C144.602 64.7223 145.419 64.6384 145.822 64.4674C146.225 64.2964 146.429 63.9963 146.429 63.5607C146.429 63.0928 146.212 62.7637 145.78 62.5701C145.348 62.3765 144.547 62.2829 143.379 62.2829H142.96V64.7223H142.957ZM142.808 65.7968V69.6044H140.637V61.0955H143.87C144.818 61.0955 145.557 61.1342 146.08 61.2052C146.603 61.2794 147.048 61.3988 147.422 61.5698C147.864 61.7763 148.203 62.0409 148.448 62.3668C148.687 62.6927 148.807 63.0477 148.807 63.4349C148.807 64.1157 148.529 64.6481 147.977 65.0353C147.426 65.4193 146.606 65.6516 145.528 65.7291L150.443 69.6011H147.822L143.076 65.7936H142.808V65.7968ZM169.638 66.2615H173.614L172.152 64.3222C172.068 64.1964 171.978 64.0544 171.891 63.8931C171.8 63.7317 171.707 63.5543 171.616 63.3542C171.536 63.5414 171.458 63.7156 171.368 63.8769C171.281 64.0383 171.19 64.1835 171.103 64.3222L169.638 66.2615ZM176.053 69.6044L174.433 67.4102H168.783L167.128 69.6044H164.689L171.597 60.7567L178.496 69.6044H176.053Z" fill="black"/>
</svg>
