<svg width="164" height="38" viewBox="0 0 164 38" fill="none" xmlns="http://www.w3.org/2000/svg">
<path d="M21.1412 12.3823C20.0028 12.0235 18.8198 11.8403 17.627 11.8329C11.1927 11.8329 10.3364 18.1039 10.3364 23.4865V36.0186H0.333496V1.24348H10.3389V6.16823H10.48C12.2123 4.06717 15.4294 1.21873 18.7803 1.13459C20.3591 1.10984 21.9331 1.35979 23.4254 1.87702L21.1412 12.3823Z" fill="#D2092D"/>
<path d="M34.2249 20.2248C34.2249 24.6175 35.9399 29.5744 41.1542 29.5744C44.4406 29.5744 46.5145 27.5946 47.8731 24.8278L57.0915 26.3127C54.6638 33.2593 48.5165 37.1545 41.1665 37.1545C30.3049 37.1545 23.6577 29.5051 23.6577 18.9503C23.6577 8.3955 29.2878 0.110046 40.6567 0.110046C52.1618 0.110046 57.3068 8.53904 57.3068 19.0221V20.2248H34.2249ZM47.8756 14.0627C47.3806 10.5213 45.089 7.05171 41.2284 7.05171C37.2267 7.05171 35.0119 10.452 34.5095 14.0627H47.8756Z" fill="#D2092D"/>
<path d="M70.8888 1.01583H60.8833V35.7934H70.8888V1.01583Z" fill="#D2092D"/>
<path d="M85.7126 4.35919H85.8561C87.774 1.59737 91.2065 0.110046 94.4212 0.110046C98.7817 0.110046 101.818 1.66171 104.347 5.32681C106.612 2.16409 110.643 0.110046 114.717 0.110046C123.65 0.110046 125.853 6.76712 125.853 14.3473V36.0211H115.86V17.7476C115.86 14.3473 116.073 8.04409 111.143 8.04409C105.711 8.04409 105.783 15.3396 105.783 18.9528V36.0285H95.7798V18.3836C95.7798 14.9833 96.208 8.04161 90.9912 8.04161C85.4181 8.04409 85.7126 15.2679 85.7126 18.9503V36.0261H75.6973V1.24348H85.7126V4.35919Z" fill="#D2092D"/>
<path d="M163.667 35.9444H153.805V32.7569H153.662C151.553 35.5286 148.252 37.1323 144.77 37.0778C134.477 37.0778 128.617 27.7975 128.617 18.3786C128.617 9.1701 134.557 0.0333328 144.624 0.0333328C148.269 0.0333328 151.373 1.59242 153.803 4.42601V1.16677H163.667V35.9444ZM154.51 18.5197C154.51 13.8449 151.603 8.81622 146.455 8.81622C141.308 8.81622 138.459 13.8449 138.459 18.5197C138.459 23.1945 141.298 28.295 146.443 28.295C151.588 28.295 154.498 23.1945 154.498 18.5197" fill="#D2092D"/>
</svg>
