<svg width="164" height="65" viewBox="0 0 164 65" fill="none" xmlns="http://www.w3.org/2000/svg">
<path d="M12.1419 31.2319C15.6278 33.143 16.8103 35.5648 16.019 39.1152C15.3569 42.0866 12.5918 44.2355 9.13724 44.4937C6.37221 44.6991 3.65021 44.3215 1.04363 43.4618C0.417655 43.2554 0.23671 42.7576 0.37951 42.2588C0.707167 41.1144 0.996679 40.1705 1.34194 39.0947C1.63928 38.1743 1.99041 37.9386 2.95773 38.2075C4.418 38.6134 6.71551 38.9714 7.76891 38.8844C8.8223 38.7973 9.50011 38.4227 9.70257 37.606C9.9334 36.6886 9.24972 35.9863 8.67167 35.5472C7.68284 34.795 6.45241 34.3637 5.32957 33.7876C1.70285 31.9253 0.181938 29.2708 0.886156 26.0432C1.61483 22.704 4.51581 20.4075 8.34206 20.3145C10.1789 20.2696 12.5243 20.5248 14.3641 20.7312C15.0869 20.8124 15.4371 21.2066 15.3471 22.0203C15.2229 23.1295 15.0801 24.175 14.8893 25.2998C14.7544 26.0989 14.2986 26.3337 13.6521 26.2261C12.5644 26.0471 10.978 25.8339 9.88058 25.783C8.76361 25.7312 7.49798 25.8016 7.16347 27.1396C6.86027 28.3534 7.88236 28.9686 8.78318 29.4792C9.88058 30.1012 11.0337 30.6255 12.1419 31.2319ZM62.513 33.5666C62.6998 32.3048 62.6715 31.0558 62.4309 29.6356C62.1502 27.9798 61.4821 26.4784 59.6541 25.9982C57.608 25.4602 55.7565 26.3601 54.0702 27.298L53.9235 27.5416V38.7337L54.0683 38.9802C54.0683 38.9802 54.7706 39.1856 55.4141 39.2795C59.0291 39.8096 61.8254 38.2212 62.513 33.5666ZM56.3277 21.3826C59.8145 19.4069 63.9537 20.2167 66.4664 23.3564C71.4028 29.5193 69.1503 40.1441 62.2206 43.4999C59.9514 44.5973 58.0422 44.7431 56.1643 44.3606C55.152 44.1543 54.126 43.7327 54.126 43.7327L53.9235 43.9342V53.3208C53.9235 54.3478 53.501 54.6432 52.5806 54.6608C51.3561 54.6833 50.0679 54.6853 48.7974 54.6618C47.8125 54.6432 47.3978 54.3821 47.3978 53.315C47.3978 48.2172 47.4154 43.0471 47.4154 37.9483C47.4154 32.8486 47.3968 27.3822 47.3968 22.2824C47.3968 21.3973 47.9181 21.1371 48.6116 21.1283C49.8009 21.1136 51.7346 21.1175 52.8535 21.1283C53.4951 21.1342 53.8541 21.4951 53.8932 21.9802C53.9274 22.4047 53.9245 22.8644 53.9245 22.8644L54.1602 23.0258C54.1593 23.0248 55.1618 22.0438 56.3277 21.3826ZM40.4945 21.1273C41.3787 21.141 41.6467 21.722 41.6467 22.5309C41.6467 25.8818 41.6291 29.1388 41.6291 32.4163C41.6291 35.735 41.6428 39.0555 41.6428 42.3751C41.6428 43.3268 41.3953 43.7141 40.2646 43.7806C39.0127 43.853 37.8018 43.8286 36.5675 43.7806C35.5298 43.7396 35.118 43.4725 35.118 42.339C35.118 42.0524 35.1121 41.3325 35.1307 41.1271L34.9253 41.0293C34.9253 41.0293 34.3463 41.5565 33.7379 42.0387C32.0722 43.3571 30.61 44.4438 28.424 44.5406C23.9796 44.7382 20.5182 41.532 20.435 37.0837C20.3441 32.1855 20.4947 27.2834 20.4008 22.3832C20.3832 21.4569 20.7901 21.141 21.6997 21.1273C23.1835 21.1058 24.1654 21.1156 25.5025 21.1273C26.6175 21.1361 26.9285 21.3953 26.9285 22.6121C26.9285 27.0496 26.9187 31.0421 26.9187 35.6538C26.9187 38.2877 27.9193 39.1084 30.475 38.5313C32.6386 38.0413 33.8592 37.3058 34.9595 36.7101L35.1219 36.4763C35.1219 36.4763 35.1268 34.2062 35.1268 32.8574C35.1268 29.4195 35.1131 25.9806 35.1131 22.5436C35.1131 21.5958 35.3224 21.14 36.4873 21.1293C37.8703 21.1156 39.2289 21.1078 40.4945 21.1273ZM77.7408 30.957L77.9422 31.1595C77.9422 31.1595 83.3823 30.3457 86.031 29.8244C86.7968 29.6738 87.0756 29.4997 87.0756 28.9256C87.0756 26.7581 85.3062 25.0621 83.1153 25.0445C80.2378 25.0211 77.6136 27.6726 77.7202 30.5462C77.7222 30.5912 77.7408 30.957 77.7408 30.957ZM91.5816 41.6152C91.8114 42.9229 91.6246 43.141 89.7232 43.6261C87.9275 44.0838 86.2002 44.5494 83.6151 44.5494C77.1246 44.2687 73.4333 41.5193 72.1833 35.9775C70.8453 30.0562 73.6905 23.7535 78.6435 21.4139C84.6118 18.5951 91.0172 21.367 92.1352 27.5885C92.4081 29.1055 92.3523 30.6049 92.0579 32.1395C91.8819 33.054 91.5297 33.4042 90.6827 33.5186C86.966 34.0204 83.2699 34.4586 79.5062 34.8136C79.2235 34.84 78.1564 34.9359 78.1564 34.9359L77.955 35.1383C78.0283 35.597 78.2112 36.4098 78.7854 37.1336C80.7435 39.6033 83.354 39.4771 86.1875 39.2306C87.4022 39.126 88.6043 38.8658 89.8034 38.6301C90.5477 38.4834 90.8911 38.7934 91.1004 39.4927C91.2226 39.9045 91.4476 40.8532 91.5816 41.6152ZM145.624 17.0448C144.99 17.0448 144.668 16.7162 144.632 16.1127C144.596 15.5171 144.589 13.9326 144.632 12.7608C144.652 12.1984 145.001 11.7886 145.554 11.7886H147.679C148.341 11.7886 148.598 11.2174 148.598 10.881V6.2566C148.598 5.77147 149.007 5.38024 149.467 5.36654C150.429 5.33818 153.252 5.33525 154.237 5.36654C154.984 5.39002 155.152 6.05609 155.152 6.36908V10.8634C155.152 11.416 155.592 11.7886 156.031 11.7886C157.997 11.7886 160.867 11.7779 162.625 11.7886C163.276 11.7925 163.635 12.1789 163.648 12.8205C163.671 13.8856 163.675 15.3723 163.648 16.1059C163.629 16.6741 163.218 17.0448 162.701 17.0448H156.099C155.545 17.0448 155.165 17.4194 155.152 17.9163C155.066 21.1322 155.03 23.462 155.152 26.7229C155.216 28.4365 155.762 28.9422 157.484 28.7769C159.164 28.6155 160.711 28.2575 162.37 27.9152C163.238 27.7372 163.572 27.9093 163.598 28.8727C163.633 30.201 163.617 31.6456 163.598 31.987C163.579 32.2794 163.363 32.6374 163.037 32.7733C162.558 32.9758 161.195 33.412 159.846 33.6957C157.845 34.1123 155.802 34.3363 153.714 34.3343C151.221 34.3334 149.583 33.1704 149.138 30.7125C148.669 28.1284 148.713 27.4115 148.597 22.5485C148.587 22.1729 148.597 19.758 148.597 17.9799C148.597 17.4458 148.194 17.0448 147.731 17.0448H145.624ZM115.141 17.0458C114.281 17.0458 113.934 16.5929 113.901 15.6344C113.871 14.7581 113.86 13.6881 113.901 13.1482C113.957 12.4068 114.139 11.7896 115.031 11.7896H116.463C117.09 11.7896 117.41 11.327 117.41 10.6707C117.41 8.6793 117.447 7.15056 117.675 5.55923C117.958 3.57079 119.244 2.1291 121.499 1.32414C123.77 0.512332 125.399 0.333344 127.676 0.333344C128.279 0.333344 128.627 0.747071 128.643 1.18525C128.697 2.63281 128.71 4.6457 128.649 5.33231C128.605 5.84776 128.173 6.08837 127.827 6.14118C127.507 6.18911 126.646 6.27127 126.193 6.40722C123.435 7.24055 123.575 8.19026 123.529 10.6941C123.517 11.3827 123.859 11.7896 124.518 11.7896H127.665C128.096 11.7896 128.628 12.0517 128.671 12.7178C128.725 13.5492 128.731 15.0681 128.671 15.964C128.638 16.4707 128.385 17.0458 127.658 17.0458H124.819C124.297 17.0458 123.904 17.4507 123.904 17.9603C123.904 22.8135 123.934 30.3408 123.934 35.3026C123.934 36.5086 123.637 36.893 122.622 36.893C121.369 36.893 119.808 36.8852 118.613 36.8852C117.817 36.8852 117.408 36.5624 117.408 35.599V17.9896C117.408 17.3754 116.971 17.0458 116.506 17.0458H115.141ZM139.065 11.7876C139.945 11.8072 140.154 12.3295 140.154 12.754C140.154 16.0354 140.134 19.8304 140.134 23.1119C140.134 26.4324 140.146 29.2082 140.146 32.5288C140.146 33.4942 139.805 33.8277 138.946 33.861C137.604 33.9108 136.02 33.902 134.689 33.8502C134.031 33.8238 133.622 33.4893 133.622 32.788C133.622 25.9884 133.624 19.6338 133.624 12.8342C133.624 12.172 133.962 11.8023 134.631 11.7837C135.907 11.7485 137.892 11.7612 139.065 11.7876ZM136.79 7.25913C134.696 7.25619 133.173 5.88493 133.173 4.00701C133.175 2.03325 134.772 0.525047 136.874 0.512332C138.992 0.497661 140.538 2.0352 140.517 3.88573C140.494 5.78516 138.756 7.26206 136.79 7.25913ZM97.8374 32.6745C97.8374 28.5099 97.9821 27.658 95.8714 24.5262C95.3726 23.7867 95.5203 23.3016 96.2754 22.7637C97.2036 22.0995 98.166 21.4775 99.1509 20.875C99.9579 20.3811 100.376 20.5033 100.957 21.278C101.675 22.2355 102.48 23.5647 102.48 23.5647L102.761 23.6195C102.761 23.6195 104.193 22.527 106.059 21.4374C107.927 20.3468 109.238 19.8813 110.715 19.492C111.905 19.178 111.878 20.4456 111.913 21.2691C111.964 22.4986 111.935 23.73 111.86 25.0269C111.822 25.6656 111.553 25.9943 110.534 26.1234C109.534 26.2505 108.636 26.408 107.221 26.8266C106.168 27.1396 105.065 27.6012 104.475 27.9504L104.356 28.1597V42.1932C104.356 43.3053 104.12 43.7806 103.121 43.7806C101.919 43.7806 100.453 43.8266 99.2429 43.7806C98.3137 43.7454 97.8178 43.5381 97.8384 42.5042C97.8834 40.2508 97.8374 36.8392 97.8374 32.6745ZM156.025 44.2814C156.699 44.3861 157.026 44.8027 156.786 45.461C156.529 46.1721 155.77 47.9287 155.515 48.3336C155.211 48.8226 155.01 49.0065 154.058 48.9518C151.643 48.8119 148.775 48.6084 146.05 48.5957C112.118 48.4402 99.7838 59.0876 97.4432 60.5938C95.6171 61.7705 94.1627 63.1271 93.1279 63.8714C92.3963 64.3976 92.2222 64.4758 91.8486 64.3379C91.6911 64.2812 91.2862 64.0073 91.1209 63.8675C90.8871 63.6689 90.758 63.4029 91.1287 62.9657C91.9396 62.0091 93.3499 60.498 95.0792 59.0201C99.95 54.8554 114.827 42.9258 149.337 43.6877C150.299 43.7034 154.258 44.0095 156.025 44.2814Z" fill="#FF211C"/>
</svg>
