<svg width="25" height="37" viewBox="0 0 25 37" fill="none" xmlns="http://www.w3.org/2000/svg">
<path d="M22.8537 3.38546C22.9011 3.49707 22.9214 3.61882 22.9214 3.73719C22.9214 4.03144 22.803 4.27156 22.6576 4.27156C22.5121 4.27156 22.3938 4.03482 22.3938 3.73719C22.3938 3.59515 22.4242 3.46663 22.4682 3.37193C22.13 3.47339 21.8797 3.85218 21.8797 4.30877C21.8797 4.83976 22.2247 5.27605 22.6508 5.27605C23.077 5.27605 23.4253 4.84314 23.4253 4.30877C23.4253 3.86571 23.1886 3.50045 22.8673 3.38207L22.8537 3.38546ZM21.1593 1.26827C20.0906 0.422744 18.7749 1.32576 18.2981 2.38774C18.2101 2.59405 18.7005 2.39789 18.7682 2.24569C19.1402 1.4137 19.9857 1.00108 20.7535 1.60648C20.8854 1.71132 21.325 1.3934 21.1593 1.26827ZM22.2788 0.365249C23.2325 -0.561444 24.4095 0.432891 24.8323 1.59633C24.9134 1.82293 24.4738 1.60648 24.4129 1.44075C24.0814 0.527589 23.3238 0.077771 22.6407 0.744043C22.5223 0.859034 22.13 0.507297 22.2788 0.365249ZM9.91724 31.0002C10.8304 31.7071 10.9657 32.8164 10.6072 33.8615C10.5937 33.9088 10.6275 33.9393 10.6647 33.9562C11.314 34.3079 12.5654 35.0824 11.9397 35.9753C11.7977 36.1816 12.3659 36.1241 12.4707 35.9753C13.1032 35.0757 12.1562 34.3248 11.4358 33.8547C11.1517 33.6721 11.3783 32.4985 11.3174 32.1265C11.2295 31.5684 10.8811 31.1118 10.4516 30.777C10.2994 30.662 9.77519 30.8852 9.91724 31.0002ZM0.836319 30.5673C1.94565 31.308 1.81374 32.0047 1.28276 32.9517C1.26246 32.9821 1.24217 33.0295 1.27937 33.0599C1.8983 33.574 2.91969 34.0746 2.31767 35.1704C2.22974 35.3327 2.83513 35.2718 2.89939 35.0892C3.04821 34.6901 2.96365 34.3959 2.8047 34.0001C2.66265 33.6416 1.82727 33.0092 1.9727 32.6676C2.40223 31.6969 2.04373 31.0848 1.20835 30.3475C1.0663 30.2224 0.826172 30.5639 0.826172 30.5639L0.836319 30.5673ZM6.49118 35.7791C6.20708 35.3361 6.32884 34.8423 6.49118 34.3654C6.6569 33.875 5.69638 33.6484 5.8249 33.2831C6.08871 32.5188 5.24657 31.5278 4.59382 31.2505C4.46869 31.1964 4.11695 31.3926 4.15077 31.4061C4.91512 31.7308 5.59492 32.7116 5.30068 33.5571C5.29392 33.5706 5.29392 33.5875 5.31083 33.5909C5.84858 33.9088 6.0718 34.2504 5.90946 34.8626C5.81138 35.2278 5.82152 35.5863 6.02783 35.9076C6.09547 36.0159 6.52838 35.8265 6.49794 35.7825L6.49118 35.7791Z" fill="#202329"/>
</svg>
