<svg width="13" height="16" viewBox="0 0 13 16" fill="none" xmlns="http://www.w3.org/2000/svg">
<path d="M12.9163 12.6296C10.5556 9.30164 8.56354 6.09204 5.55347 2.93655C5.31334 2.69304 4.90411 2.19249 4.42047 1.67164C4.25813 1.65135 4.08565 1.61415 3.91316 1.57018C4.51517 2.17219 5.04954 2.82832 5.33702 3.13947C8.2862 6.2307 10.2918 9.42002 12.6187 12.7108C12.639 12.7412 12.7066 12.8461 12.6187 12.907C12.4935 12.9949 12.338 12.9272 12.1486 12.6837C10.0077 9.66353 8.02578 6.55877 5.4926 3.7956C5.09689 3.36269 4.3968 2.58819 3.6595 1.92192C3.3957 1.68517 3.12851 1.44504 2.86471 1.25226C2.4521 1.09331 2.06315 0.910673 1.68774 0.673927C1.64377 0.667163 1.5829 0.667163 1.53893 0.663781C1.31571 0.660399 1.09588 0.75848 0.957211 0.958023C0.720464 1.29623 0.652821 1.84075 0.649439 2.51717C0.652821 4.29953 1.18043 7.00182 1.30895 8.52038C1.47129 10.4651 1.92111 13.6003 2.00904 14.6149C2.00904 14.6149 2.04963 14.855 1.82641 14.8719C1.65054 14.8821 1.65054 14.6656 1.64377 14.6081C1.46791 11.916 0.889569 9.08519 0.788106 6.4201C0.764431 5.84853 0.439748 3.98838 0.439748 2.4157C0.432984 1.85089 0.487099 1.303 0.591944 0.914056C0.571651 0.924202 0.551359 0.944494 0.534449 0.95464C0.43975 0.998607 0.351815 1.02228 0.263881 1.02905C0.18271 1.43152 0.152272 1.93206 0.145508 2.42247C0.14889 4.0222 0.476953 5.91617 0.497246 6.43701C0.602091 9.13592 1.17366 11.9735 1.35291 14.6318C1.37321 14.8483 1.48143 15.1324 1.78921 15.1763C2.09021 15.173 2.17138 15.0749 2.25255 14.97C2.31681 14.8821 2.31005 14.7062 2.31005 14.6453C2.31005 14.3646 1.76891 10.4346 1.60319 8.50009C1.47129 6.96124 0.943682 4.25894 0.943682 2.52055C0.9403 1.87119 1.03162 1.35373 1.19396 1.13727C1.28189 1.01214 1.38335 0.971551 1.53555 0.968169C1.96846 0.954641 2.74295 1.48563 3.45996 2.14514C4.18372 2.80126 4.88044 3.569 5.27276 4.00191C7.78904 6.74816 9.76756 9.83939 11.9152 12.8731C12.0031 12.9712 12.2027 13.2113 12.5037 13.1978C12.6795 13.1877 12.9603 13.049 12.9738 12.8528C12.9738 12.7987 12.9433 12.6702 12.9197 12.633L12.9163 12.6296Z" fill="#202329"/>
</svg>
