<svg width="8" height="8" viewBox="0 0 8 8" fill="none" xmlns="http://www.w3.org/2000/svg">
<path fill-rule="evenodd" clip-rule="evenodd" d="M1.07552 7.40937C0.997734 7.37893 0.980826 7.20306 1.02479 6.89529C1.0992 6.33048 1.29874 5.60671 1.61328 4.72061C1.96502 3.76009 2.35057 2.93486 2.76319 2.25168C3.24345 1.45689 3.67636 1.04427 4.05853 1.00707C4.48468 0.963102 4.98861 1.39601 5.57033 2.30241C6.06412 3.07353 6.50379 3.99684 6.88596 5.06896C7.26138 6.10388 7.41695 6.82088 7.3696 7.21997C7.33916 7.41951 7.23094 7.52098 7.03816 7.52098C6.842 7.52098 6.53761 7.32143 6.11823 6.91897C5.67517 6.49282 5.37755 6.24593 5.21521 6.18167C5.11036 6.14108 4.95479 6.07344 4.75186 5.98212C4.5929 5.90772 4.42718 5.8739 4.26146 5.8739C3.97736 5.8739 3.57827 5.97874 3.06758 6.18167C2.71584 6.32372 2.39116 6.50635 2.1003 6.73633C2.01913 6.80397 1.83988 6.96631 1.56931 7.22673C1.4205 7.36878 1.3055 7.44319 1.20742 7.44319C1.17022 7.43642 1.12625 7.42628 1.07552 7.40937ZM3.56136 3.1919C3.50387 3.61128 3.51739 3.9664 3.59518 4.25726C3.63239 4.39931 3.71356 4.47033 3.82179 4.47033C3.93001 4.47033 4.08221 4.40269 4.26484 4.26402C4.4238 4.1558 4.55232 4.04419 4.65378 3.92243C4.67407 3.90214 4.68422 3.86832 4.69098 3.82435C4.71466 3.64848 4.63349 3.37792 4.43733 3.01603C4.24116 2.65415 4.06868 2.48166 3.90634 2.48166C3.73385 2.48166 3.61886 2.71841 3.5546 3.18852L3.56136 3.1919Z" fill="#F10B34" stroke="#202329" stroke-width="0.492" stroke-miterlimit="3.4828"/>
</svg>
