<svg width="12" height="15" viewBox="0 0 12 15" fill="none" xmlns="http://www.w3.org/2000/svg">
<path fill-rule="evenodd" clip-rule="evenodd" d="M10.4169 12.2617C9.61532 12.4612 8.81038 12.0182 8.45526 11.2403L7.77884 11.3891C7.30873 11.4906 4.19045 12.2549 3.90635 12.3733C3.80489 13.1106 3.89959 13.8175 2.94922 14.2233C1.45772 14.8558 0.818506 13.8411 0.466768 12.8671C0.223258 12.1907 0.277372 11.5582 0.456623 11.1591C0.656166 10.7093 1.11951 10.5402 1.13304 10.4726C1.13304 10.4726 2.38441 4.67228 5.44858 0.887723C5.57372 0.738911 5.67857 0.650977 5.84767 0.650977C5.98972 0.647595 6.14191 0.732147 6.22985 0.793025C6.83186 1.2124 8.14411 2.19997 8.73936 2.67685C8.89493 2.80199 9.01669 2.82566 9.01669 3.10299C9.01669 3.32621 8.77994 3.404 8.77994 3.404L9.74722 7.33737C9.74722 7.33737 10.4236 7.10739 10.8599 7.45575C11.5668 8.02394 11.5972 9.31928 11.6919 10.0058C11.8407 11.0374 11.3469 12.0385 10.4135 12.2718L10.4169 12.2617ZM6.88259 8.82549L5.9356 5.19651C4.77555 6.7286 4.15663 8.43655 4.07207 9.7116L6.88259 8.82549Z" fill="white" stroke="#202329" stroke-width="0.4467" stroke-miterlimit="3.4828" stroke-linejoin="round"/>
</svg>
