<svg width="21" height="21" viewBox="0 0 21 21" fill="none" xmlns="http://www.w3.org/2000/svg">
<path fill-rule="evenodd" clip-rule="evenodd" d="M20.027 16.4116C19.9187 16.7058 19.7902 16.5401 19.6752 16.628L19.2558 16.7227C19.1983 16.8208 19.1781 16.8411 19.2525 16.7227L18.9582 16.7904C18.8568 16.7802 18.7925 16.7802 18.7519 16.7599L18.6031 16.7904C18.4949 16.8242 18.363 16.8648 18.3089 16.9087C18.3021 16.8986 18.2277 16.8783 18.1837 16.8851L18.0653 16.9087C17.9842 16.9527 17.9571 17.0373 17.8083 17.0339C17.8557 17.0034 17.8759 16.9764 17.8759 16.9527L17.7711 16.9764C17.6358 17.0508 17.4633 17.0846 17.3111 17.1421C17.3416 17.1184 17.3822 17.1015 17.3686 17.0677C17.1759 17.203 16.9865 17.1353 16.8106 17.2368L16.8478 17.1861L16.6888 17.2233C16.6787 17.2605 16.6855 17.3112 16.54 17.318C16.5941 17.2875 16.5738 17.2706 16.5738 17.247L16.5569 17.2537C16.3405 17.4025 15.9583 17.46 15.7317 17.548L15.7385 17.5175C15.4814 17.5885 15.2041 17.619 14.9301 17.7306C14.8557 17.7272 14.8794 17.663 14.8253 17.6427L14.6562 17.6799C14.6359 17.7813 14.2131 17.8185 14.3958 17.9098C14.159 17.9403 13.7769 17.9842 13.6314 18.0587C13.7126 18.0012 13.5604 17.9572 13.6179 17.9098L12.9652 18.0587C12.8603 18.1466 12.7419 18.2345 12.5593 18.2819C12.654 18.2244 12.5458 18.1939 12.5255 18.1567L12.5018 18.1635L12.1839 18.4476C12.0858 18.478 12.1399 18.3597 12.008 18.4172C12.0215 18.4476 11.9641 18.4814 11.9269 18.5152C11.8863 18.5119 11.5278 18.6336 11.4567 18.5321C11.4026 18.4983 11.6089 18.4747 11.4906 18.4544C11.3147 18.4949 11.3147 18.5355 11.1321 18.5795L11.1253 18.566C11.0002 18.5761 10.7871 18.6945 10.9325 18.7317C11.0137 18.7182 10.8852 18.6742 11.0137 18.6742C10.9427 18.7621 10.7397 18.823 10.5605 18.867C10.618 18.8365 10.6011 18.8095 10.618 18.7689C10.459 18.7926 10.1648 18.6979 9.91113 18.7926C9.93142 18.7621 9.96186 18.7148 9.98891 18.7046C9.64056 18.7148 9.3294 18.9549 9.0284 18.9279C9.04531 18.9448 9.04193 18.9921 9.03854 18.9853C8.86606 19.0158 8.86268 18.9346 8.75445 18.9887C8.73416 18.9448 8.62255 19.0361 8.51432 19.0767C8.47712 19.1105 8.47712 19.0868 8.5177 19.0631C8.31139 19.1511 7.78041 19.3269 7.44558 19.3371C7.45911 19.3675 7.24942 19.4994 7.16487 19.513L7.18178 19.4318C7.15134 19.425 7.11414 19.4284 7.07693 19.4385C7.0634 19.4453 7.04649 19.4487 7.04311 19.4453C7.00252 19.4555 6.96194 19.4622 6.92135 19.4622L7.03973 19.425C7.04311 19.4216 7.03973 19.4216 7.03973 19.4183C6.99914 19.4284 6.95856 19.4487 6.91459 19.4622C6.90106 19.4588 6.88415 19.4555 6.87739 19.4453C6.84357 19.4757 6.86048 19.4757 6.90106 19.469C6.78945 19.5163 6.68123 19.5671 6.55609 19.5468C6.60682 19.5468 6.67446 19.4183 6.5358 19.4521C6.29905 19.5163 6.4783 19.5028 6.29229 19.5704L6.17391 19.6279C6.18406 19.6956 5.98113 19.6685 6.05554 19.7159C5.98452 19.6956 5.73086 19.8275 5.73086 19.7159L5.74101 19.6144C5.63954 19.6449 5.59219 19.7497 5.52455 19.8072C5.51441 19.8004 5.48397 19.7937 5.48059 19.7768C5.49073 19.9154 5.23369 19.8173 5.13561 19.9526L4.95298 19.9729L4.85828 19.9864L4.81093 19.9966L4.78726 20.0034H4.77373L4.33067 19.7226V19.7193V19.7125C4.31038 19.5941 4.29685 19.4758 4.32729 19.4183C4.24612 19.2627 4.16157 19.124 4.15142 18.9279C4.1751 18.9583 4.18863 19.009 4.22245 19.0158C4.23598 18.8873 4.19201 18.867 4.14466 18.7621C4.1751 18.7824 4.1751 18.5085 4.19201 18.363C4.11084 18.2108 4.04996 18.2819 3.99923 18.2751C4.10407 18.0925 3.80645 17.8321 3.891 17.6156C3.92144 17.6697 4.00937 17.8388 4.01614 17.6968C4.12098 17.5209 3.84365 17.4161 3.85718 17.1624L3.75572 17.2503C3.80307 17.1252 3.60691 16.9121 3.73204 16.9087C3.67455 16.8377 3.7016 16.6145 3.60014 16.6686C3.60352 16.2492 3.32281 15.7182 3.46824 15.4274C3.4378 15.3733 3.42427 15.2312 3.37354 15.2718C3.33296 15.38 3.44795 15.3969 3.41074 15.4409C3.39722 15.3902 3.36339 15.3834 3.34648 15.3834C3.34648 15.2549 3.33296 15.1534 3.44795 15.2515C3.45809 14.9573 3.19429 15.0114 3.16047 14.6495C3.2112 14.6563 3.21796 14.6258 3.19091 14.5244L3.07254 14.3485C3.03871 14.1185 3.14694 14.1963 3.22473 14.1726C3.18415 14.0543 3.1537 13.9088 3.08268 13.8649L3.14018 13.6958C3.09621 13.8141 3.07254 13.6078 3.03871 13.5537L3.06915 13.6044C3.09959 13.574 3.04548 13.4387 3.01842 13.3677C2.97446 13.3981 2.98798 13.5436 2.98798 13.6247C2.94063 13.5706 2.93049 13.4725 2.86961 13.4015C2.95078 13.4117 2.87976 13.1952 2.86623 13.0937C2.85608 12.9821 2.76815 12.9889 2.76477 12.9551C2.80535 12.9416 2.73433 12.7724 2.80535 12.8469C2.82902 12.8807 2.78844 12.9416 2.83579 12.9957C2.84594 12.9145 2.91696 12.9077 2.83241 12.7724C2.77491 12.6676 2.68359 12.8299 2.68359 12.6101C2.71403 12.6608 2.74785 12.6642 2.78506 12.698L2.77829 12.485L2.70389 12.4951C2.71403 12.4647 2.72756 12.4816 2.73433 12.4647C2.64639 12.4241 2.64639 12.1637 2.54831 12.1332C2.51787 12.0352 2.54831 11.91 2.53478 11.8086L2.54493 11.8255C2.55846 11.7003 2.4942 11.5447 2.42656 11.4568L2.44008 11.4602C2.42994 11.3926 2.38597 11.2437 2.32171 11.1727C2.33862 10.9968 2.57537 11.0543 2.44685 10.8954C2.40965 10.7297 2.26083 10.6654 2.23039 10.7432C2.21348 10.4354 2.02409 10.1175 2.06467 9.81988C2.02747 9.78606 2.01394 9.81312 1.97674 9.73195C1.90571 9.28889 1.68249 8.82893 1.73999 8.44675C1.79749 8.56513 1.8144 8.43661 1.8516 8.42646C1.76367 8.33853 1.8888 8.28779 1.77043 8.27426C1.71293 8.29794 1.67573 8.29456 1.68249 8.42308C1.59456 8.16942 1.49986 7.77372 1.52692 7.61476C1.51339 7.69593 1.47957 7.6452 1.44913 7.58432C1.5506 7.58094 1.52692 7.38816 1.4559 7.24949L1.39163 7.24273L1.43222 7.13112C1.40178 7.08039 1.29017 7.10068 1.31385 6.94172C1.33414 6.92819 1.35781 6.91128 1.37134 6.88422C1.28341 6.74556 1.15151 6.55278 1.16504 6.37353L1.22253 6.22134C1.19209 6.15369 1.11769 6.04547 1.11769 6.17737C1.10754 5.88313 1.0771 5.70726 1.13121 5.59565C0.982403 5.3792 0.867411 5.0951 0.779477 4.79409L0.654339 4.33751L0.600227 4.11429L0.576552 4.00607L0.566406 3.96548V3.9621H0.569786L0.603609 3.9046H0.600227H0.603609V3.90122L0.968873 3.3195H0.999314H1.01961L1.05005 3.30935L1.08048 3.27892C1.09063 3.24848 1.09063 3.22819 1.14812 3.23157C1.11092 3.28906 1.28341 3.30259 1.17856 3.38038C1.40516 3.38038 1.44237 3.23833 1.57427 3.1876C1.58441 3.12334 1.47281 3.25186 1.47957 3.17069C1.49986 3.14025 1.78734 3.1504 1.80425 3.05232C1.86851 3.08276 1.83807 3.15378 1.81778 3.20113L1.94292 3.12672C2.12555 3.19775 1.61824 3.40067 1.81778 3.49537L1.93615 3.45478C2.07482 3.52243 1.64191 3.63065 1.95306 3.6036C2.07144 3.52581 2.15937 3.36685 2.03085 3.3567C2.29465 3.26877 2.11202 3.10981 2.40626 3.04893C2.50096 3.08276 2.16952 3.11319 2.2473 3.17745C2.40288 3.21804 2.51787 3.07261 2.64639 3.06923C2.49758 3.06584 2.59566 2.95085 2.68021 2.91027C2.83917 2.92041 2.59904 3.01849 2.8155 2.98129C2.83917 2.9238 3.02857 2.83248 2.84594 2.83924C2.89667 2.70058 3.07592 2.82234 3.17062 2.70058C3.25855 2.7716 2.99475 2.94409 3.23826 2.93733C3.18076 2.86292 3.50206 2.76146 3.34987 2.67352C3.44795 2.6769 3.47501 2.73102 3.41751 2.79866C3.55956 2.82234 3.70161 2.58221 3.77939 2.73102L3.80983 2.64308C3.85718 2.65999 3.91806 2.66676 3.99923 2.6972C4.1176 2.67352 4.3442 2.50104 4.36111 2.62956C4.39493 2.60588 4.66212 2.55177 4.53698 2.49089C4.36111 2.47398 4.36111 2.59235 4.24274 2.50103C4.37802 2.56868 4.47949 2.43339 4.56066 2.38266L4.59109 2.43001C4.63844 2.39957 4.73991 2.38266 4.78387 2.34208C4.77373 2.36575 4.80079 2.38266 4.84137 2.38605L4.88195 2.29811C5.10179 2.21018 4.96312 2.41648 5.18296 2.34208L5.02738 2.44016C5.0612 2.41986 5.15252 2.4706 5.25399 2.42325C5.28442 2.34546 5.34192 2.24738 5.36559 2.1865C5.47044 2.13577 5.44676 2.22709 5.51779 2.17635L5.39941 2.27105C5.3825 2.30149 5.5347 2.35899 5.7038 2.3184C5.80526 2.26767 5.94731 2.13577 5.77145 2.13577C5.85938 2.11548 5.98452 2.12901 5.92702 2.19327C6.11304 2.12562 5.88644 2.12562 6.03863 2.04445C6.1198 2.07489 6.34302 2.0918 6.48168 2.12562L6.33287 2.27782L6.45124 2.25414C6.32611 2.37252 6.53918 2.30487 6.48168 2.41987C6.56285 2.41648 6.65079 2.36237 6.71843 2.3184C6.45463 2.21694 6.92474 2.0546 6.82666 1.92946C7.13104 1.82123 7.09722 2.2237 7.37456 1.93284C7.32721 1.91255 7.39485 1.82462 7.33397 1.828C7.42867 1.77727 7.39823 1.68595 7.59777 1.68933C7.4422 1.78741 7.81423 1.7908 7.58763 1.92608C7.59439 1.87535 7.43882 1.9227 7.41176 1.94299C7.49969 1.97681 7.42529 2.0918 7.62483 2.04107C7.7432 2.00049 7.90893 1.9599 7.86834 1.89226C7.84467 1.81109 7.68571 1.94299 7.7432 1.84491C7.97995 1.76374 8.04759 1.87535 8.11523 1.70963C7.96642 1.75698 7.90893 1.67919 7.89878 1.62846L8.06789 1.55405L8.04759 1.61155C8.34183 1.58111 8.10509 1.49317 8.38918 1.44582L8.54138 1.52361C8.49403 1.62846 8.12876 1.57434 8.20993 1.70963C8.39257 1.67581 8.43315 1.59125 8.6124 1.58449L8.49403 1.64198C8.55829 1.63184 8.6699 1.81447 8.8965 1.6386C9.01487 1.5642 8.92017 1.58111 8.91003 1.52023C9.19412 1.43906 9.26176 1.36465 9.44778 1.31392C9.43763 1.43229 9.77922 1.24966 9.59659 1.40186C9.49175 1.36127 9.07575 1.45935 8.99458 1.58449C9.12648 1.68933 8.7646 1.61831 8.73078 1.76036C8.96076 1.70962 8.97767 1.84153 9.03516 1.91255C9.09942 1.90241 9.15354 1.85506 9.18736 1.83138C9.1975 1.75021 9.11295 1.77388 9.09266 1.68933C9.35646 1.65213 9.59321 1.55067 9.71835 1.44582C9.81304 1.46612 9.80628 1.54729 9.70482 1.57772C10.0058 1.48979 10.3339 1.42215 10.6315 1.37818C10.4455 1.30716 10.8074 1.28348 10.8243 1.22937C10.8547 1.26319 10.8885 1.30377 10.8784 1.34774C11.0678 1.24628 10.8852 1.42215 11.0847 1.37818C11.2741 1.27672 11.5109 1.18202 11.7341 1.10761C12.0385 1.13805 12.4477 0.948655 12.698 0.887777C12.84 0.90807 12.7791 1.03997 12.9212 1.02644C13.0903 0.98924 12.7724 0.938509 13.0294 0.931745L13.0125 0.962184C13.0768 0.921599 13.4353 0.931745 13.5131 0.786315L13.4759 0.894542C13.5232 0.894542 13.5638 0.857339 13.5942 0.837047C13.6044 0.87425 13.6652 0.894541 13.5976 0.941891C13.6213 0.948655 13.6416 0.952038 13.6652 0.952038L13.8411 0.911453C13.9189 0.881014 13.9967 0.833665 14.0779 0.813372L13.9527 0.766023C14.2233 0.64765 14.4296 0.678089 14.7002 0.590154L14.7069 0.664559L14.8625 0.58339C14.8422 0.640885 14.9504 0.66456 15.0248 0.623975L14.9809 0.654413L16.354 0.343262L17.1792 3.96548L17.2672 4.20223C17.2773 4.23267 17.2638 4.24619 17.2435 4.25634L17.3686 4.81439C17.5039 5.21009 17.6054 5.67005 17.673 6.14693L18.5862 10.1818L19.0225 11.7849C19.0022 11.7713 18.9684 11.7612 18.9413 11.768L18.9582 11.8356C19.0259 11.9066 19.0834 12.0724 19.1341 12.2279C19.0631 12.3362 19.293 12.5458 19.2964 12.786L19.2728 12.7724C19.4047 12.9213 19.2728 13.0363 19.4216 13.1479L19.3742 13.273C19.523 13.317 19.3641 13.5334 19.4622 13.6552L19.4926 13.645C19.5501 13.7702 19.5027 13.8513 19.5501 13.9697L19.5399 13.9832C19.638 14.2673 19.6042 14.45 19.7023 14.4195C19.6448 14.5379 19.6042 14.1794 19.5264 14.3214L19.5569 14.45C19.6989 14.8727 19.8207 15.5999 19.9289 16.0395L20.01 16.398L20.027 16.4116ZM13.5435 0.769405L13.5333 0.799844L13.5435 0.769405ZM5.5719 2.14592C5.56175 2.15606 5.55161 2.16283 5.54146 2.16959L5.5719 2.14592ZM4.82784 2.31164C4.82446 2.32178 4.81769 2.32517 4.81431 2.33531C4.81093 2.32517 4.8177 2.3184 4.82784 2.31164ZM1.00946 3.33979C1.01961 3.32965 1.01961 3.32965 1.00946 3.33979V3.33979ZM6.08598 19.7328C6.0826 19.7294 6.07583 19.726 6.07583 19.7226C6.07921 19.726 6.0826 19.726 6.08598 19.7328ZM9.01825 18.938C9.0284 18.9414 9.03516 18.9414 9.04869 18.9414C9.04193 18.9346 9.03516 18.9346 9.01825 18.938ZM18.3122 16.9155C18.3122 16.9121 18.3156 16.9121 18.319 16.9087C18.3156 16.9121 18.3122 16.9155 18.3122 16.9155ZM7.28662 1.85167C7.32382 1.83476 7.34412 1.828 7.36441 1.82123C7.3475 1.83476 7.32044 1.84153 7.28662 1.85167ZM10.5875 1.09747C10.6856 1.08394 10.5977 1.15158 10.645 1.16849C10.7161 1.10423 10.7938 1.15835 10.8615 1.15835C10.8784 1.14144 10.9088 1.12452 10.963 1.10085C10.9325 1.14482 10.8953 1.15835 10.8615 1.15835C10.8311 1.18878 10.8311 1.20908 10.8446 1.23275C10.8412 1.23275 10.8378 1.22937 10.8344 1.22599C10.6687 1.22937 10.5165 1.17187 10.5875 1.09747ZM9.8976 18.8264C9.90774 18.823 9.91789 18.8196 9.92804 18.8162C9.91113 18.8332 9.8976 18.8433 9.8976 18.8264ZM14.3789 0.813372L14.4736 0.793079L14.548 0.74573C14.5547 0.755876 14.5581 0.766023 14.5581 0.776169L14.7509 0.732201C14.7475 0.725437 14.7408 0.718673 14.734 0.715291C14.6528 0.667942 14.4161 0.742348 14.3789 0.813372ZM13.2256 1.08056C13.2053 1.08394 13.185 1.08394 13.1512 1.08394L13.141 1.10085L13.2256 1.08056ZM0.64081 3.93504L0.60699 3.99254L0.64081 3.93504ZM6.93488 19.4724C6.92812 19.4758 6.92474 19.4791 6.91797 19.4791C6.92474 19.4758 6.92812 19.4758 6.93488 19.4724Z" fill="#F10B34"/>
</svg>
