<svg width="9" height="8" viewBox="0 0 9 8" fill="none" xmlns="http://www.w3.org/2000/svg">
<path d="M0.843444 7.52441C0.559348 7.57852 0.413919 7.0915 0.400391 6.06334C0.400391 5.39707 0.437591 4.77477 0.518761 4.19305C0.599931 3.57413 0.714925 3.02961 0.860355 2.54259C1.0971 1.77823 1.37443 1.30136 1.69911 1.11534C1.82763 1.04432 1.94939 1.0105 2.06776 1.0105C2.3992 1.0105 2.7036 1.26077 2.98093 1.76132L3.69455 3.13445C3.95835 3.62486 4.1951 3.85822 4.39126 3.83454C4.61448 3.80411 4.89857 3.55045 5.24016 3.07019L6.17362 1.7275C6.52197 1.25063 6.79931 1.0105 7.01576 1.0105C7.09693 1.0105 7.1781 1.0477 7.2525 1.12211C7.58395 1.48737 7.86129 2.40054 8.09127 3.8616C8.31449 5.2212 8.3855 6.23245 8.29757 6.88857C8.24007 7.31134 8.10479 7.52441 7.89511 7.52441C7.65498 7.52441 7.39455 7.32825 7.11384 6.93592L6.37654 5.83674C6.1026 5.44104 5.88276 5.24826 5.71027 5.24826C5.52764 5.24826 5.33486 5.42413 5.12179 5.78601C4.98312 6.02952 4.77005 6.38802 4.48934 6.8649C4.24583 7.26399 3.98203 7.48382 3.70469 7.52779C3.43075 7.56837 3.23796 7.38912 3.12636 6.99004L2.86255 5.76572C2.74418 5.29561 2.57846 5.0149 2.35524 4.94049C2.30113 4.93034 2.2673 4.92696 2.25378 4.92696C2.05761 4.92696 1.89189 5.14341 1.75999 5.57632L1.41164 6.79388C1.26959 7.24708 1.08019 7.49397 0.85359 7.53794L0.843444 7.52441Z" fill="#F10B34" stroke="#202329" stroke-width="0.492" stroke-miterlimit="3.4828"/>
</svg>
