<svg width="4" height="5" viewBox="0 0 4 5" fill="none" xmlns="http://www.w3.org/2000/svg">
<path d="M3.32455 2.77099C3.30087 3.36962 3.15883 3.89046 2.75298 4.34367C1.68085 5.55107 0.933405 3.59622 0.896202 2.84202C0.865763 2.26706 1.08898 1.6921 1.46778 1.26934C2.5399 0.0619361 3.29073 2.02017 3.32455 2.77099C3.33131 2.87245 3.60865 2.9198 3.60865 2.83863C3.57483 2.05399 3.21294 0.900695 2.25919 0.816143C1.14648 0.71468 0.659455 1.8071 0.61887 2.77099C0.585049 3.55226 1.06193 4.7157 1.96833 4.79348C3.08104 4.89495 3.56806 3.80253 3.60865 2.83863C3.61203 2.74055 3.33131 2.6932 3.32455 2.77099Z" fill="#202329"/>
</svg>
