<svg width="14" height="8" viewBox="0 0 14 8" fill="none" xmlns="http://www.w3.org/2000/svg">
<path d="M5.12353 7.11857C5.07957 6.97314 5.04574 6.82433 5.02883 6.67551L4.94766 5.71162C4.8834 5.22798 4.77179 4.97432 4.61622 4.95403C4.45388 4.92359 4.16302 5.14343 3.74026 5.60339L2.54976 6.8852C2.10671 7.35531 1.75497 7.5853 1.50131 7.5853C1.14957 7.5853 0.841806 6.82094 0.594913 5.29562C0.375077 3.9394 0.300671 2.81317 0.388606 1.91691C0.442719 1.33519 0.564473 1.03419 0.757252 1.02066C1.0312 0.990219 1.23413 1.21344 1.36941 1.68693L1.69409 3.00595C1.81247 3.48282 1.95789 3.72295 2.13715 3.72295C2.3164 3.72295 2.66813 3.4862 3.18559 3.02624L4.62298 1.70722C5.15735 1.23711 5.56658 1.00037 5.83039 1.00037C5.87435 1.00037 5.91494 1.01051 5.95552 1.02742C6.17198 1.11536 6.28021 1.60238 6.28697 2.47158C6.29374 2.96198 6.27006 3.50649 6.20918 4.12203C6.15507 4.70037 6.07052 5.30915 5.95214 5.94836C5.75936 6.94946 5.57673 7.45001 5.39748 7.45001C5.28587 7.44325 5.19456 7.3384 5.12353 7.11857ZM7.34218 7.50751C7.10544 7.46016 6.99045 7.01372 7.00059 6.17158C7.00736 5.70147 7.04794 5.17725 7.12573 4.59891C7.21705 3.95631 7.3388 3.3171 7.49776 2.68465C7.74465 1.63958 7.98478 1.08492 8.21476 1.02066C8.23844 1.01389 8.26549 1.01051 8.29593 1.01051C8.4718 1.01051 8.62061 1.19653 8.72546 1.56517L9.0197 2.59671C9.13807 2.97213 9.32747 3.16152 9.57774 3.16828C9.95316 3.17843 10.2305 3.17167 10.4097 3.14461C10.5383 3.12094 10.6938 3.06682 10.8798 2.98903C11.0456 2.91125 11.1606 2.70494 11.2316 2.35997L11.3905 1.47048C11.4785 1.16947 11.6374 1.01728 11.8539 1.01051C12.0906 1.00037 12.3477 1.5415 12.6182 2.62377C12.8719 3.62487 13.0342 4.64964 13.0985 5.68118C13.1289 6.18849 13.1188 6.59434 13.0816 6.89873C13.0309 7.25047 12.9395 7.45339 12.7975 7.50074C12.7468 7.51427 12.6994 7.52442 12.6588 7.52442C12.4424 7.52442 12.2462 7.34179 12.0906 6.9799L11.6341 5.84014C11.4413 5.37003 11.2383 5.04535 11.0287 4.87962C10.6871 4.59891 10.3861 4.46024 10.129 4.46024C9.86522 4.46024 9.55745 4.64288 9.19895 5.00814C9.06367 5.14343 8.8878 5.46473 8.66458 5.96527C8.42107 6.51317 8.23167 6.88858 8.09977 7.08475C7.90023 7.37899 7.68716 7.5278 7.46394 7.5278C7.42673 7.5278 7.38953 7.52104 7.35233 7.51089L7.34218 7.50751Z" fill="white" stroke="#202329" stroke-width="0.5503" stroke-miterlimit="3.4828"/>
</svg>
