<svg width="8" height="8" viewBox="0 0 8 8" fill="none" xmlns="http://www.w3.org/2000/svg">
<path fill-rule="evenodd" clip-rule="evenodd" d="M7.05214 2.48855C6.89318 3.69595 6.58203 4.76808 6.13221 5.71168C5.57417 6.88188 4.93495 7.48389 4.21795 7.52786C3.76474 7.5583 3.25067 7.18627 2.67571 6.42192C2.23942 5.85034 1.90121 5.27201 1.66108 4.68014C1.31611 3.84138 1.18421 3.11085 1.26538 2.49193C1.33979 1.95417 1.76593 1.54832 2.55396 1.29467C3.10862 1.10865 3.71063 1.01733 4.36338 1.01733C5.01274 1.01733 5.59108 1.10527 6.09501 1.29467C6.80863 1.55509 7.12655 1.95756 7.05214 2.48855ZM4.71849 3.53023C4.74893 3.31039 4.70835 3.12438 4.60012 2.97557C4.49528 2.82675 4.33632 2.75911 4.11987 2.75911C3.90341 2.75911 3.72416 2.83352 3.56858 2.98233C3.41301 3.13114 3.32169 3.31377 3.29125 3.53023C3.23375 3.97666 3.30816 4.3487 3.528 4.6497C3.70049 4.88645 3.87973 5.00144 4.07928 5.00144C4.10972 5.00144 4.13339 4.99806 4.14354 4.99129C4.33632 4.92703 4.48513 4.7072 4.58659 4.34193C4.62041 4.20665 4.66776 3.93946 4.71849 3.53361V3.53023Z" fill="#0AA245" stroke="#202329" stroke-width="0.5503" stroke-miterlimit="3.4828"/>
</svg>
