<svg width="7" height="8" viewBox="0 0 7 8" fill="none" xmlns="http://www.w3.org/2000/svg">
<path fill-rule="evenodd" clip-rule="evenodd" d="M4.07361 4.58201C3.10295 4.7545 2.1492 5.56958 1.93951 6.34408C1.72982 7.11858 1.60806 7.56164 1.14472 7.56164C0.674606 7.56164 0.532564 7.56163 0.579914 6.59774L0.76931 2.16382C0.76931 2.16382 0.640788 0.844802 2.34198 0.966557C4.31374 1.1086 5.62598 1.78164 5.9811 2.86729C6.33284 3.94618 5.01383 4.41629 4.07361 4.58201ZM4.02626 3.00934C4.04993 2.56629 3.6035 2.33292 3.1131 2.30248C2.2439 2.25513 2.36227 2.89097 2.36227 2.89097C2.29125 3.31373 2.67004 3.61812 3.02177 3.61812C3.37351 3.61812 4.00596 3.45239 4.02626 3.00934Z" fill="#0AA245" stroke="#202329" stroke-width="0.5555" stroke-miterlimit="3.4828"/>
</svg>
