<svg width="36" height="36" viewBox="0 0 36 36" fill="none" xmlns="http://www.w3.org/2000/svg">
<path d="M35.0082 6.53532C34.0612 3.64025 31.8662 0.555779 28.5822 0.687681C26.8438 0.75194 25.491 1.70231 24.9363 3.346C24.2295 5.4429 24.7605 7.96256 25.1224 10.073L25.7413 13.6715C26.2012 15.9612 27.1313 18.0885 27.0231 20.4695C26.9352 22.4548 25.3963 25.0929 23.0762 24.1662C21.561 23.5641 20.9184 21.4977 19.9985 20.2598C18.5171 18.2678 15.7168 16.6748 13.1971 17.615C11.9322 18.0852 10.7146 18.8563 9.80486 19.8709C9.52415 20.1821 9.3246 20.5304 9.06757 20.8619C8.53658 21.5484 8.67186 20.4492 8.70568 20.3512C8.8714 19.8405 9.33813 19.3602 9.69664 18.9882C11.2625 17.3682 13.17 17.1382 15.2906 16.9488C16.5116 16.8439 17.7528 16.6342 18.8486 16.0661C21.1213 14.8891 19.251 12.2443 18.0606 11.0098C17.5296 10.4653 16.7212 9.78212 15.896 10.002C15.3481 10.1508 15.4834 10.5363 15.7235 10.9151C16.383 11.9264 18.6287 13.8609 15.967 14.2938C14.2997 14.5644 12.5207 14.0977 10.833 14.2059C7.87369 14.3885 4.53556 15.6433 2.40146 17.7605C-0.77094 20.9126 -1.07195 26.608 3.13876 28.9451C4.37999 29.6384 6.39571 29.6891 6.62908 31.3937C6.68319 31.7691 6.22999 32.5808 6.12853 32.9833C6.05074 33.2877 6.10485 33.5616 6.13867 33.866C6.2097 34.4917 6.74069 34.8468 7.24462 35.1174C9.03375 36.0745 11.7056 35.4995 12.9705 33.8998L12.4395 34.0047C12.9536 34.7893 13.8093 34.8874 14.7021 34.9178C15.1384 34.9314 15.852 34.7623 16.1733 35.0058C16.5961 35.3203 17.0053 35.6315 17.6073 35.7701C18.8925 36.0779 21.8181 36.2064 22.6027 34.7555L22.1123 34.8874C23.4956 35.3778 25.3219 35.4826 26.1877 34.0791C26.6308 33.3621 26.2182 32.8006 25.606 32.4421C25.1359 32.1682 25.0175 32.2663 25.0175 31.6913C25.0141 31.1468 24.6184 30.5651 24.2092 30.2404L23.8338 30.5042C25.8157 30.6395 28.1054 30.423 29.5597 28.8909C30.9497 27.4265 31.2811 25.4277 31.3116 23.4728C31.3488 20.8822 30.5743 18.4944 29.6476 16.1033L28.0107 12.0109C27.7908 11.436 27.3816 10.5871 27.3681 9.87006C27.3681 9.83624 27.3782 9.83962 27.3985 9.84638C27.8619 9.9952 28.173 10.1981 28.5349 9.9952C28.5924 9.96476 28.5653 9.73478 28.6837 9.57244C28.7784 9.4473 28.8325 9.34583 28.8021 9.24099C28.7818 9.16997 28.7446 9.01101 28.7209 8.94675C28.7209 8.95689 28.7446 8.95689 28.7446 8.95689C29.7761 10.0628 31.7411 10.719 32.9012 10.7359C35.2788 10.7731 35.3972 8.24327 35.0116 6.55561C34.971 6.36959 34.3994 6.51502 34.4434 6.70442C34.6024 7.40451 34.7072 8.05049 34.6599 8.77088C34.5347 10.4991 32.3769 10.4552 31.156 9.94785C30.2428 9.57243 28.66 8.59839 28.6093 7.34702C28.6025 7.161 28.2034 7.2185 28.1324 7.34702C28.014 7.56347 28.031 7.81713 28.102 8.32783C28.1764 8.86896 28.9441 10.3165 27.4256 9.31201C27.2767 9.21731 26.9352 9.27819 26.8743 9.46083C26.4278 10.7765 27.7435 12.941 28.217 14.1044C29.164 16.4313 30.1887 18.792 30.6081 21.2914C30.9024 23.0535 30.8279 25.0015 30.3206 26.7095C29.465 29.5707 26.8168 30.3892 24.0671 30.2032C23.9995 30.1998 23.5328 30.3385 23.6917 30.467C24.2227 30.8931 24.6184 31.6744 24.3783 32.3576C24.3648 32.3982 24.3952 32.4388 24.4358 32.4523C25.1122 32.6586 25.8799 32.8886 25.7751 33.8085C25.6161 35.3034 23.5192 34.9753 22.579 34.6405C22.4471 34.5931 22.1664 34.6304 22.0886 34.7724C21.1991 36.4161 17.6412 35.5841 16.5826 34.8028C16.4574 34.7149 16.3763 34.397 16.2173 34.4308C15.0403 34.7081 13.7315 34.7825 13.0009 33.6698C12.9029 33.521 12.5477 33.68 12.47 33.7747C11.2456 35.3271 7.46446 35.9358 6.71701 33.7307C6.39233 32.7634 7.28859 32.1276 7.20742 31.2618C7.14992 30.6801 6.8895 30.3351 6.45321 29.9597C5.35065 29.0127 3.77459 28.9451 2.5841 28.0319C1.53565 27.2236 0.916725 26.0229 0.646157 24.7513C0.108404 22.2181 1.27184 19.4346 3.06097 17.6624C4.55586 16.1743 6.78465 15.3254 8.78009 14.8214C10.7958 14.3141 12.7405 14.6151 14.7664 14.6692C16.4169 14.7098 18.6287 14.1687 17.3774 12.1665C17.0933 11.7167 16.7246 11.3108 16.3932 10.9016C15.5747 9.86329 17.188 10.932 17.5363 11.2533C18.5679 12.2206 20.2048 14.3615 18.8756 15.6805C17.6987 16.8575 15.1824 16.6579 13.674 16.8C12.3482 16.9251 11.1949 17.4493 10.1093 18.2035C9.26373 18.792 8.40129 19.6578 8.07661 20.6555C7.8906 21.2305 8.33703 21.5992 8.86464 21.4571C9.31446 21.3387 9.62899 20.8619 9.87927 20.5067C10.8432 19.1167 12.5883 17.8112 14.32 17.6996C17.3638 17.5034 19.4506 20.1685 20.7595 22.5292C21.5035 23.8787 22.9308 25.1368 24.588 24.6194C26.4887 24.0241 27.3748 22.3094 27.5913 20.4188C27.916 17.6455 26.4786 14.7944 26.0592 12.0853C25.7717 10.2015 25.3659 8.34474 25.234 6.44062C25.1156 4.70222 25.2306 2.48695 26.854 1.44189C30.3071 -0.766619 33.5404 3.97507 34.4333 6.71457C34.4908 6.90396 35.0589 6.74501 35.0014 6.56576L35.0082 6.53532Z" fill="#202329"/>
</svg>
