<svg width="4" height="5" viewBox="0 0 4 5" fill="none" xmlns="http://www.w3.org/2000/svg">
<path d="M3.5721 2.81157C3.54166 3.49476 3.3455 4.16779 2.74687 4.55335C1.69166 5.24668 1.17758 3.55225 1.14715 2.85892C1.11671 2.19603 1.41095 1.48241 1.97238 1.11715C3.03435 0.4272 3.54505 2.11825 3.5721 2.81157C3.58225 2.92995 3.85958 2.99421 3.8562 2.86231C3.82238 2.06751 3.44358 0.907457 2.48984 0.822904C1.37713 0.721442 0.910399 1.87473 0.869814 2.81496C0.835994 3.60298 1.32301 4.77319 2.23618 4.85436C3.34889 4.95582 3.81561 3.80253 3.8562 2.86231C3.8562 2.74393 3.57887 2.67629 3.5721 2.81157Z" fill="#202329"/>
</svg>
